<svg aria-hidden="true" style="position: absolute; width: 0; height: 0; overflow: hidden;" version="1.1" xmlns="http://www.w3.org/2000/svg" xmlns:xlink="http://www.w3.org/1999/xlink">
<defs>
<symbol id="icon-game" viewBox="0 0 32 32">
<path fill="#fff" style="fill: var(--color1, #fff)" d="M4.084 10.040c2.28-4.548 6.845-7.373 11.916-7.373 7.352 0 13.333 5.981 13.333 13.333s-5.981 13.333-13.333 13.333c-5.071 0-9.636-2.825-11.916-7.373-0.153-0.305-0.183-0.656-0.085-0.983s0.318-0.603 0.614-0.772l7.364-4.205-7.363-4.204c-0.615-0.352-0.848-1.123-0.531-1.756zM15.328 14.843c0.204 0.116 0.374 0.285 0.492 0.488s0.18 0.434 0.18 0.669c0 0.235-0.062 0.466-0.18 0.669s-0.288 0.372-0.492 0.488l-8.231 4.7c0.965 1.48 2.285 2.696 3.84 3.536s3.295 1.278 5.062 1.274c5.881 0 10.667-4.785 10.667-10.667s-4.785-10.667-10.667-10.667c-1.767-0.004-3.507 0.434-5.062 1.273s-2.875 2.055-3.841 3.535l8.231 4.701z"></path>
<path fill="#fff" style="fill: var(--color1, #fff)" d="M16.667 12c-1.105 0-2-0.895-2-2s0.895-2 2-2c1.105 0 2 0.895 2 2s-0.895 2-2 2z"></path>
</symbol>
<symbol id="icon-close" viewBox="0 0 32 32">
<path d="M1.074 1.074c0.669-0.669 1.755-0.669 2.424 0l12.502 12.502 12.502-12.502c0.669-0.669 1.755-0.669 2.424 0s0.669 1.755 0 2.424l-12.502 12.502 12.502 12.502c0.669 0.669 0.669 1.755 0 2.424s-1.755 0.669-2.424 0l-12.502-12.502-12.502 12.502c-0.669 0.669-1.755 0.669-2.424 0s-0.669-1.755 0-2.424l12.502-12.502-12.502-12.502c-0.669-0.669-0.669-1.755 0-2.424z"></path>
</symbol>
<symbol id="icon-open" viewBox="0 0 37 32">
<path d="M0 1.714c0-0.947 0.767-1.714 1.714-1.714h33.143c0.947 0 1.714 0.767 1.714 1.714s-0.768 1.714-1.714 1.714h-33.143c-0.947 0-1.714-0.768-1.714-1.714zM0 11.238c0-0.947 0.767-1.714 1.714-1.714h33.143c0.947 0 1.714 0.768 1.714 1.714s-0.768 1.714-1.714 1.714h-33.143c-0.947 0-1.714-0.768-1.714-1.714zM0 20.762c0-0.947 0.767-1.714 1.714-1.714h33.143c0.947 0 1.714 0.768 1.714 1.714s-0.768 1.714-1.714 1.714h-33.143c-0.947 0-1.714-0.767-1.714-1.714zM0 30.286c0-0.947 0.767-1.714 1.714-1.714h33.143c0.947 0 1.714 0.768 1.714 1.714s-0.768 1.714-1.714 1.714h-33.143c-0.947 0-1.714-0.768-1.714-1.714z"></path>
</symbol>
<symbol id="icon-instagram" viewBox="0 0 32 32">
<path fill="none" stroke="#fff" style="stroke: var(--color1, #fff)" stroke-linejoin="miter" stroke-linecap="butt" stroke-miterlimit="4" stroke-width="2.6667" d="M4 14.667c0-5.028 0-7.543 1.563-9.104s4.076-1.563 9.104-1.563h2.667c5.028 0 7.543 0 9.104 1.563s1.563 4.076 1.563 9.104v2.667c0 5.028 0 7.543-1.563 9.104s-4.076 1.563-9.104 1.563h-2.667c-5.028 0-7.543 0-9.104-1.563s-1.563-4.076-1.563-9.104v-2.667z"></path>
<path fill="#fff" style="fill: var(--color1, #fff)" d="M22 12c1.105 0 2-0.895 2-2s-0.895-2-2-2c-1.105 0-2 0.895-2 2s0.895 2 2 2z"></path>
<path fill="none" stroke="#fff" style="stroke: var(--color1, #fff)" stroke-linejoin="miter" stroke-linecap="butt" stroke-miterlimit="4" stroke-width="2.6667" d="M16 20c2.209 0 4-1.791 4-4s-1.791-4-4-4c-2.209 0-4 1.791-4 4s1.791 4 4 4z"></path>
</symbol>
<symbol id="icon-whatsapp" viewBox="0 0 32 32">
<path fill="#fff" style="fill: var(--color1, #fff)" d="M25.4 6.547c-1.223-1.235-2.679-2.213-4.283-2.88s-3.326-1.006-5.063-1c-7.28 0-13.213 5.933-13.213 13.213 0 2.333 0.613 4.6 1.76 6.6l-1.867 6.853 7-1.84c1.933 1.053 4.107 1.613 6.32 1.613 7.28 0 13.213-5.933 13.213-13.213 0-3.533-1.373-6.853-3.867-9.347zM16.053 26.867c-1.973 0-3.907-0.533-5.6-1.533l-0.4-0.24-4.16 1.093 1.107-4.053-0.267-0.413c-1.097-1.751-1.679-3.774-1.68-5.84 0-6.053 4.933-10.987 10.987-10.987 2.933 0 5.693 1.147 7.76 3.227 1.023 1.018 1.835 2.23 2.386 3.564s0.833 2.765 0.827 4.209c0.027 6.053-4.907 10.973-10.96 10.973zM22.080 18.653c-0.333-0.16-1.96-0.96-2.253-1.080-0.307-0.107-0.52-0.16-0.747 0.16-0.227 0.333-0.853 1.080-1.040 1.293-0.187 0.227-0.387 0.253-0.72 0.080-0.333-0.16-1.4-0.52-2.653-1.64-0.987-0.88-1.64-1.96-1.84-2.293-0.187-0.333-0.027-0.507 0.147-0.68 0.147-0.147 0.333-0.387 0.493-0.573s0.227-0.333 0.333-0.547c0.107-0.227 0.053-0.413-0.027-0.573s-0.747-1.787-1.013-2.453c-0.267-0.64-0.547-0.56-0.747-0.573h-0.64c-0.227 0-0.573 0.080-0.88 0.413-0.293 0.333-1.147 1.133-1.147 2.76s1.187 3.2 1.347 3.413c0.16 0.227 2.333 3.56 5.64 4.987 0.787 0.347 1.4 0.547 1.88 0.693 0.787 0.253 1.507 0.213 2.080 0.133 0.64-0.093 1.96-0.8 2.227-1.573 0.28-0.773 0.28-1.427 0.187-1.573s-0.293-0.213-0.627-0.373z"></path>
</symbol>
<symbol id="icon-youtube" viewBox="0 0 32 32">
<path fill="#fff" style="fill: var(--color1, #fff)" d="M16 5.333c1.14 0 2.309 0.029 3.443 0.077l1.339 0.064 1.281 0.076 1.2 0.081 1.096 0.085c1.19 0.091 2.309 0.598 3.161 1.433s1.382 1.944 1.497 3.131l0.053 0.567 0.1 1.213c0.093 1.257 0.163 2.628 0.163 3.939s-0.069 2.681-0.163 3.939l-0.1 1.213-0.053 0.567c-0.115 1.188-0.645 2.297-1.498 3.132s-1.972 1.342-3.162 1.432l-1.093 0.084-1.2 0.083-1.283 0.076-1.339 0.064c-1.147 0.050-2.295 0.075-3.443 0.077-1.148-0.002-2.296-0.028-3.443-0.077l-1.339-0.064-1.281-0.076-1.2-0.083-1.096-0.084c-1.19-0.091-2.309-0.598-3.161-1.433s-1.382-1.944-1.497-3.131l-0.053-0.567-0.1-1.213c-0.102-1.311-0.156-2.624-0.163-3.939 0-1.311 0.069-2.681 0.163-3.939l0.1-1.213 0.053-0.567c0.115-1.187 0.645-2.296 1.497-3.131s1.971-1.342 3.16-1.433l1.095-0.085 1.2-0.081 1.283-0.076 1.339-0.064c1.147-0.050 2.296-0.075 3.444-0.077zM16 8c-1.1 0-2.232 0.029-3.333 0.075l-1.304 0.063-1.252 0.073-1.176 0.080-1.077 0.084c-0.566 0.040-1.1 0.279-1.507 0.675s-0.66 0.924-0.714 1.489c-0.156 1.612-0.303 3.619-0.303 5.461s0.147 3.849 0.303 5.461c0.113 1.163 1.036 2.067 2.221 2.164l1.077 0.083 1.176 0.080 1.252 0.075 1.304 0.063c1.101 0.045 2.233 0.075 3.333 0.075s2.232-0.029 3.333-0.075l1.304-0.063 1.252-0.073 1.176-0.080 1.077-0.084c0.566-0.040 1.1-0.279 1.507-0.675s0.66-0.924 0.714-1.489c0.156-1.612 0.303-3.619 0.303-5.461s-0.147-3.849-0.303-5.461c-0.054-0.565-0.307-1.093-0.714-1.489s-0.941-0.635-1.507-0.675l-1.077-0.083-1.176-0.080-1.252-0.075-1.304-0.063c-1.111-0.048-2.222-0.073-3.333-0.075zM13.333 12.767c-0-0.13 0.032-0.259 0.093-0.374s0.149-0.214 0.257-0.287c0.108-0.073 0.231-0.12 0.361-0.134s0.261 0.003 0.382 0.050l0.108 0.053 5.6 3.232c0.111 0.064 0.206 0.155 0.275 0.263s0.111 0.232 0.122 0.361c0.011 0.128-0.009 0.257-0.058 0.376s-0.127 0.224-0.226 0.307l-0.113 0.080-5.6 3.233c-0.113 0.065-0.24 0.102-0.37 0.107s-0.26-0.022-0.377-0.078c-0.118-0.057-0.219-0.141-0.297-0.246s-0.128-0.227-0.147-0.356l-0.008-0.12v-6.467z"></path>
</symbol>
<symbol id="icon-linkedin" viewBox="0 0 32 32">
<path fill="#fff" style="fill: var(--color1, #fff)" d="M9.253 6.667c-0 0.707-0.282 1.385-0.782 1.885s-1.179 0.78-1.886 0.78c-0.707-0-1.385-0.282-1.885-0.782s-0.78-1.179-0.78-1.886c0-0.707 0.282-1.385 0.782-1.885s1.179-0.78 1.886-0.78c0.707 0 1.385 0.282 1.885 0.782s0.78 1.179 0.78 1.886zM9.333 11.307h-5.333v16.693h5.333v-16.693zM17.76 11.307h-5.307v16.693h5.253v-8.76c0-4.88 6.36-5.333 6.36 0v8.76h5.267v-10.573c0-8.227-9.413-7.92-11.627-3.88l0.053-2.24z"></path>
</symbol>
<symbol id="icon-telegram" viewBox="0 0 32 32">
<path fill="#fff" style="fill: var(--color1, #fff)" d="M29.12 8.075c0.058-0.353 0.021-0.715-0.109-1.048s-0.346-0.626-0.627-0.848c-0.281-0.221-0.616-0.363-0.971-0.411s-0.715 0-1.045 0.139l-22.8 9.6c-1.589 0.669-1.671 2.968 0 3.661 1.655 0.689 3.333 1.32 5.032 1.891 1.557 0.515 3.256 0.991 4.617 1.125 0.372 0.445 0.84 0.875 1.317 1.267 0.729 0.6 1.607 1.217 2.513 1.809 1.816 1.187 3.831 2.321 5.188 3.060 1.623 0.88 3.565-0.133 3.856-1.903l3.027-18.343zM6.125 17.324l20.165-8.491-2.824 17.12c-1.332-0.724-3.251-1.808-4.96-2.925-0.788-0.506-1.548-1.053-2.279-1.639-0.195-0.159-0.385-0.326-0.568-0.499l5.281-5.28c0.25-0.25 0.391-0.589 0.391-0.943s-0.14-0.693-0.39-0.943-0.589-0.391-0.943-0.391c-0.354-0-0.693 0.14-0.943 0.39l-5.783 5.783c-0.979-0.125-2.341-0.488-3.837-0.981-1.114-0.371-2.217-0.772-3.309-1.203l-0.001 0.001z"></path>
</symbol>
<symbol id="icon-video" viewBox="0 0 32 32">
<path fill="none" stroke="#fff" style="stroke: var(--color1, #fff)" stroke-linejoin="round" stroke-linecap="round" stroke-miterlimit="4" stroke-width="2" d="M1.568 22.957v-13.913c0-0.984 0.338-1.928 0.939-2.623s1.417-1.087 2.268-1.087h13.63c0.851 0 1.666 0.391 2.268 1.087s0.939 1.639 0.939 2.623v13.913c0 0.984-0.338 1.928-0.939 2.623s-1.417 1.087-2.268 1.087h-13.63c-0.851 0-1.666-0.391-2.268-1.087s-0.939-1.639-0.939-2.623zM29.097 6.708l-6.414 6.61c-0.085 0.087-0.152 0.193-0.199 0.313s-0.071 0.248-0.071 0.379v3.298c0 0.131 0.024 0.26 0.071 0.379s0.114 0.226 0.199 0.313l6.414 6.61c0.115 0.119 0.258 0.196 0.411 0.223s0.309 0.003 0.45-0.071c0.141-0.073 0.261-0.192 0.344-0.342s0.129-0.325 0.129-0.504v-16.514c0-0.179-0.045-0.354-0.129-0.504s-0.203-0.269-0.344-0.342c-0.141-0.073-0.297-0.098-0.45-0.071s-0.296 0.105-0.411 0.223z"></path>
</symbol>
<symbol id="icon-web" viewBox="0 0 32 32">
<path fill="none" stroke="#fff" style="stroke: var(--color1, #fff)" stroke-linejoin="round" stroke-linecap="round" stroke-miterlimit="4" stroke-width="2.2857" d="M30.857 16c0 3.94-1.565 7.719-4.351 10.506s-6.565 4.352-10.506 4.352c-3.94 0-7.719-1.565-10.506-4.352s-4.352-6.565-4.352-10.506M30.857 16c0-3.94-1.565-7.719-4.351-10.506s-6.565-4.352-10.506-4.352c-3.94 0-7.719 1.565-10.506 4.352s-4.352 6.565-4.352 10.506M30.857 16h-29.714"></path>
<path fill="none" stroke="#fff" style="stroke: var(--color1, #fff)" stroke-linejoin="round" stroke-linecap="round" stroke-miterlimit="4" stroke-width="2.2857" d="M21.714 16c-0.281 5.433-2.282 10.636-5.714 14.857-3.432-4.221-5.434-9.424-5.714-14.857 0.281-5.433 2.282-10.636 5.714-14.857 3.432 4.221 5.434 9.424 5.714 14.857z"></path>
</symbol>
<symbol id="icon-mobile" viewBox="0 0 32 32">
<path fill="#fff" style="fill: var(--color1, #fff)" d="M24.833 0h-17c-0.663 0-1.299 0.263-1.768 0.732s-0.732 1.105-0.732 1.768v27c0 0.663 0.263 1.299 0.732 1.768s1.105 0.732 1.768 0.732h17c0.663 0 1.299-0.263 1.768-0.732s0.732-1.105 0.732-1.768v-27c0-0.663-0.263-1.299-0.732-1.768s-1.105-0.732-1.768-0.732zM24.833 29.5h-17v-27h17v27z"></path>
<path fill="#fff" style="fill: var(--color1, #fff)" d="M16 27c0.884 0 1.6-0.672 1.6-1.5s-0.716-1.5-1.6-1.5c-0.884 0-1.6 0.672-1.6 1.5s0.716 1.5 1.6 1.5z"></path>
</symbol>
<symbol id="icon-trust" viewBox="0 0 49 32">
<path fill="none" stroke="#fff" style="stroke: var(--color1, #fff)" stroke-linejoin="miter" stroke-linecap="round" stroke-miterlimit="4" stroke-width="0.9057" d="M0.604 29.537c3.003-0.626 6.186-3.317 8.698-4.97 2.139-1.407 4.346-2.806 6.395-4.342 0.546-0.41 1.237-1.113 1.927-1.257 0.574-0.12 0.707 1.469 0.796 1.773 0.953 3.253 1.641 6.573 2.681 9.801 0.384 1.193 0.699 1.089 1.661 0.196 2.595-2.41 5.373-4.588 7.986-6.981 4.129-3.782 7.196-8.294 10.765-12.566 1.459-1.747 3.494-3.882 4.468-5.976 0.399-0.858 0.799-1.525 1.466-2.192 0.433-0.433 1.159-2.831 1.159-1.103 0 0.554-0.251 2.939-0.251 2.569 0-1.186 0.339-2.367 0.251-3.546-0.085-1.156-2.493 0.988-2.764 1.326-0.428 0.535-1.198 0.599-1.759 0.88"></path>
</symbol>
<symbol id="icon-sight" viewBox="0 0 50 32">
<path fill="none" stroke="#fff" style="stroke: var(--color1, #fff)" stroke-linejoin="miter" stroke-linecap="round" stroke-miterlimit="4" stroke-width="1.3521" d="M21.189 16.107c-1.298-2.809-2.588-5.571-4.127-8.254-1.125-1.962-2.28-4.956-4.148-6.358-1.339-1.004-4.53-0.44-6.066-0.396-6.688 0.191-5.92 8.602-5.92 13.299 0 1.389 0.763 2.349 1.105 3.648 0.472 1.795 0.55 3.73 1.146 5.482 0.263 0.774 0.225 3.46 1.376 3.46 9.631 0 18.037-6.624 24.221-13.507 2.677-2.979 5.712-5.754 8.546-8.588 0.926-0.926 3.048-2.281 4.502-1.918 1.242 0.31 1.922 3.16 2.335 4.127 1.135 2.666 2.491 5.248 3.085 8.109 0.804 3.875 1.334 7.841 1.334 11.798 0 1.896-0.726 3.89-3.002 4.106-1.777 0.169-2.483-1.086-3.731-2.251-2.729-2.547-5.696-4.955-8.734-7.129-1.677-1.2-4.486-3.377-6.67-3.377"></path>
</symbol>
<symbol id="icon-clients" viewBox="0 0 27 32">
<path fill="none" stroke="#fff" style="stroke: var(--color1, #fff)" stroke-linejoin="miter" stroke-linecap="round" stroke-miterlimit="4" stroke-width="0.9231" d="M0.615 30.674c2.678-3.554 4.939-7.169 7.371-10.844 0.49-0.74 0.777-1.54 1.21-2.305 0.354-0.626 1.015-0.987 1.38-1.58 0.701-1.139 1.761-3.392 3.102-3.913 0.341-0.133 2.955 4.288 3.387 4.81 1.28 1.544 2.134 3.404 3.316 5.038 1.397 1.93 2.668 3.936 4.070 5.863 0.869 1.195 1.993 2.211 2.291 3.7"></path>
<path fill="none" stroke="#fff" style="stroke: var(--color1, #fff)" stroke-linejoin="miter" stroke-linecap="round" stroke-miterlimit="4" stroke-width="0.9231" d="M15.728 0.96c-1.251-0.118-3.043-0.576-4.298-0.199-0.734 0.22-1.528 1.392-2.021 1.907-1.167 1.221-1.415 3.61-0.854 5.18 0.856 2.398 3.888 3.358 6.176 3.358 2.291 0 4.326-2.3 4.326-4.554 0-0.85 0.561-3.643-0.768-3.643"></path>
</symbol>
<symbol id="icon-style" viewBox="0 0 37 32">
<path fill="none" stroke="#fff" style="stroke: var(--color1, #fff)" stroke-linejoin="miter" stroke-linecap="round" stroke-miterlimit="4" stroke-width="1.2632" d="M0.842 14.804c10.927-0.46 21.861-0.778 32.793-1.052 0.154-0.004 2.011-0.155 2.006-0.117-0.108 0.756-1.531 1.67-2.006 2.103-3.529 3.215-7.161 6.403-10.983 9.269-1.223 0.917-2.479 1.974-3.797 2.746-1.469 0.86-3.237 1.387-4.459 2.609-1.672 1.672-1.666 0.181-1.441-1.558 0.891-6.877 3.153-13.486 4.128-20.35 0.319-2.246 0.269-4.537 1.207-6.621 0.117-0.259 0.078-0.561 0.078-0.837 0-0.729 0.672 1.299 0.915 1.986 2.186 6.172 5.803 12.281 9.191 17.857 1.126 1.853 2.263 3.692 3.038 5.706 0.28 0.727 0.719 1.714 0.857 2.473 0.48 2.64-1.229 0.518-2.512-0.195-3.26-1.811-6.794-3.186-10.321-4.362-3.795-1.265-7.317-3.742-11.1-5.16-2.674-1.003-5.144-2.327-7.595-3.797"></path>
</symbol>
<symbol id="icon-open-faq" viewBox="0 0 32 32">
<path fill="#fff" style="fill: var(--color1, #fff)" d="M13.714 0h4.571v32h-4.571v-32z"></path>
<path fill="#fff" style="fill: var(--color1, #fff)" d="M0 18.286v-4.571h32v4.571h-32z"></path>
</symbol>
<symbol id="icon-space" viewBox="0 0 32 32">
<path fill="#fff" style="fill: var(--color1, #fff)" d="M16 13.856c-1.241 0-2.25-1.009-2.25-2.25s1.009-2.25 2.25-2.25c1.241 0 2.25 1.009 2.25 2.25s-1.009 2.25-2.25 2.25z"></path>
<path fill="#fff" style="fill: var(--color1, #fff)" d="M24.718 17.631c0.485-7.521-1.005-14.618-8.374-17.32-0.222-0.082-0.466-0.082-0.688 0-7.368 2.702-8.859 9.8-8.373 17.32-2.754 0.552-4.835 2.987-4.835 5.901v5.646c0 0.67 0.402 1.263 1.024 1.512 0.198 0.079 0.403 0.117 0.607 0.117 0.436 0 0.862-0.177 1.177-0.508l3.573-3.761c0.165 0.119 0.366 0.191 0.582 0.191h1.184l0.652 4.176c0.076 0.487 0.495 0.846 0.988 0.846h7.532c0.493 0 0.912-0.359 0.988-0.846l0.652-4.176h1.184c0.216 0 0.416-0.072 0.582-0.191l3.573 3.761c0.315 0.331 0.741 0.508 1.177 0.508 0.203 0 0.409-0.038 0.607-0.117 0.622-0.248 1.024-0.842 1.024-1.512v-5.646c0-2.914-2.082-5.348-4.835-5.901zM4.447 28.246v-4.714c0-1.867 1.28-3.438 3.009-3.888 0.168 1.581 0.408 3.165 0.683 4.716l-3.692 3.886zM18.911 29.75h-5.82l-0.472-3.021h6.764l-0.472 3.021zM10.238 24.729c-1.749-9.4-2.259-19.192 5.762-22.408 8.021 3.216 7.511 13.008 5.762 22.408h-11.525zM27.554 28.246l-3.692-3.886c0.275-1.551 0.515-3.135 0.683-4.716 1.728 0.451 3.009 2.021 3.009 3.888v4.714z"></path>
</symbol>
<symbol id="icon-flag" viewBox="0 0 32 32">
<path fill="#fff" style="fill: var(--color1, #fff); stroke: var(--color1, #fff)" stroke="#fff" stroke-linejoin="miter" stroke-linecap="butt" stroke-miterlimit="4" stroke-width="0.6" d="M30.298 28.794l-13.658-13.626v-5.094h8.986c0.25 0 0.48-0.147 0.582-0.371 0.102-0.23 0.064-0.493-0.096-0.685l-2.573-2.97 2.566-2.861c0.166-0.186 0.211-0.461 0.109-0.691s-0.333-0.378-0.582-0.378h-9.632c-0.352 0-0.64 0.288-0.64 0.64v12.41l-13.658 13.626c-0.25 0.25-0.25 0.653 0 0.902s0.653 0.25 0.902 0l6.074-6.061 2.886 3.206c0.218 0.237 0.576 0.282 0.845 0.096l3.328-2.317 3.814 3.296c0.115 0.102 0.269 0.154 0.416 0.154 0.026 0 0.051 0 0.083-0.006 0.179-0.026 0.339-0.122 0.448-0.269l2.861-4.128 6.048 6.029c0.128 0.122 0.288 0.186 0.454 0.186s0.326-0.064 0.454-0.186c0.23-0.25 0.23-0.653-0.019-0.902zM22.202 5.613c-0.218 0.243-0.218 0.602-0.006 0.845l2.022 2.336h-7.578v-5.395h7.552l-1.99 2.214zM19.84 26.483l-3.648-3.155c-0.224-0.192-0.544-0.211-0.787-0.038l-3.27 2.278-2.547-2.835 6.413-6.394 6.426 6.413-2.586 3.731z"></path>
</symbol>
<symbol id="icon-energy" viewBox="0 0 32 32">
<path fill="#fff" style="fill: var(--color1, #fff)" d="M15.085 25.030c0.077 0.026 0.16 0.032 0.237 0.032 0.346 0 0.672-0.186 0.838-0.506l5.229-9.645c0.16-0.294 0.154-0.659-0.019-0.947s-0.486-0.467-0.826-0.467h-2.899v-5.6c0-0.435-0.294-0.819-0.723-0.928s-0.87 0.090-1.082 0.474l-5.229 9.645c-0.16 0.294-0.154 0.659 0.019 0.947s0.486 0.467 0.826 0.467h2.906v5.6c0 0.435 0.294 0.819 0.723 0.928z"></path>
<path fill="#fff" style="fill: var(--color1, #fff)" d="M16 5.702c-0.531 0-0.96-0.429-0.96-0.96v-2.298c0-0.531 0.429-0.96 0.96-0.96s0.96 0.429 0.96 0.96v2.298c0 0.531-0.429 0.96-0.96 0.96z"></path>
<path fill="#fff" style="fill: var(--color1, #fff)" d="M16 30.515c-0.531 0-0.96-0.429-0.96-0.96v-2.298c0-0.531 0.429-0.96 0.96-0.96s0.96 0.429 0.96 0.96v2.298c0 0.531-0.429 0.96-0.96 0.96z"></path>
<path fill="#fff" style="fill: var(--color1, #fff)" d="M29.555 16.96h-2.298c-0.531 0-0.96-0.429-0.96-0.96s0.429-0.96 0.96-0.96h2.298c0.531 0 0.96 0.429 0.96 0.96s-0.429 0.96-0.96 0.96z"></path>
<path fill="#fff" style="fill: var(--color1, #fff)" d="M4.742 16.96h-2.298c-0.531 0-0.96-0.429-0.96-0.96s0.429-0.96 0.96-0.96h2.298c0.531 0 0.96 0.429 0.96 0.96s-0.429 0.96-0.96 0.96z"></path>
<path fill="#fff" style="fill: var(--color1, #fff)" d="M22.964 9.997c-0.243 0-0.493-0.096-0.678-0.282-0.378-0.378-0.378-0.986 0-1.357l1.421-1.421c0.378-0.378 0.986-0.378 1.357 0 0.378 0.378 0.378 0.986 0 1.357l-1.421 1.421c-0.186 0.186-0.435 0.282-0.678 0.282z"></path>
<path fill="#fff" style="fill: var(--color1, #fff)" d="M7.616 25.344c-0.243 0-0.493-0.096-0.678-0.282-0.378-0.378-0.378-0.986 0-1.357l1.421-1.421c0.378-0.378 0.986-0.378 1.357 0 0.378 0.378 0.378 0.986 0 1.357l-1.421 1.421c-0.186 0.186-0.435 0.282-0.678 0.282z"></path>
<path fill="#fff" style="fill: var(--color1, #fff)" d="M24.384 25.344c-0.243 0-0.493-0.096-0.678-0.282l-1.421-1.421c-0.378-0.378-0.378-0.986 0-1.357 0.378-0.378 0.986-0.378 1.357 0l1.421 1.421c0.378 0.378 0.378 0.986 0 1.357-0.186 0.186-0.435 0.282-0.678 0.282z"></path>
<path fill="#fff" style="fill: var(--color1, #fff)" d="M9.037 9.997c-0.243 0-0.493-0.096-0.678-0.282l-1.421-1.421c-0.378-0.378-0.378-0.986 0-1.357 0.378-0.378 0.986-0.378 1.357 0l1.421 1.421c0.378 0.378 0.378 0.986 0 1.357-0.186 0.186-0.435 0.282-0.678 0.282z"></path>
</symbol>
<symbol id="icon-protection" viewBox="0 0 32 32">
<path fill="#fff" style="fill: var(--color1, #fff)" d="M16 31.398c-0.083 0-0.166-0.013-0.243-0.038-0.166-0.058-4.179-1.376-7.859-4.909-3.757-3.61-4.275-6.893-4.275-9.901v-10.227c0-0.429 0.333-0.774 0.762-0.8 0.019 0 2.374-0.141 5.274-1.402 3.091-1.344 5.843-3.341 5.875-3.36 0.282-0.205 0.659-0.205 0.941 0 0.026 0.019 2.79 2.022 5.875 3.36 2.918 1.267 5.248 1.402 5.274 1.402 0.422 0.019 0.762 0.371 0.762 0.8v10.221c0 3.008-0.518 6.291-4.275 9.901-3.68 3.539-7.686 4.858-7.859 4.909-0.083 0.032-0.166 0.045-0.25 0.045zM5.222 7.040v9.504c0 2.477 0.294 5.395 3.782 8.749 2.906 2.79 6.099 4.115 6.995 4.454 0.896-0.339 4.090-1.664 6.995-4.454 3.488-3.354 3.782-6.278 3.782-8.749v-9.504c-0.998-0.141-2.88-0.506-5.069-1.453-2.515-1.094-4.762-2.554-5.709-3.206-0.947 0.646-3.194 2.112-5.709 3.206-2.182 0.947-4.070 1.318-5.069 1.453z"></path>
<path fill="#fff" style="fill: var(--color1, #fff)" d="M16 25.978c-0.083 0-0.166-0.013-0.243-0.038-0.109-0.032-2.694-0.883-5.056-3.155-2.445-2.349-2.778-4.48-2.778-6.438v-6.432c0-0.429 0.333-0.774 0.762-0.8 0.013 0 1.446-0.090 3.213-0.858 1.914-0.832 3.622-2.067 3.635-2.080 0.282-0.205 0.659-0.205 0.941 0 0.019 0.013 1.728 1.254 3.635 2.080 1.786 0.774 3.2 0.858 3.213 0.858 0.422 0.019 0.762 0.371 0.762 0.8v6.426c0 1.958-0.339 4.096-2.777 6.438-2.362 2.272-4.947 3.123-5.056 3.155-0.083 0.032-0.166 0.045-0.25 0.045zM9.523 10.624v5.722c0 1.498 0.179 3.258 2.285 5.286 1.69 1.619 3.539 2.438 4.192 2.694 0.653-0.256 2.502-1.075 4.192-2.694 2.112-2.029 2.285-3.795 2.285-5.286v-5.722c-0.685-0.115-1.773-0.358-3.008-0.896-1.466-0.64-2.79-1.472-3.469-1.926-0.678 0.454-2.003 1.293-3.469 1.926-1.235 0.531-2.323 0.781-3.008 0.896z"></path>
<path fill="#fff" style="fill: var(--color1, #fff)" d="M16.364 12.531l0.691 1.402c0.058 0.122 0.173 0.205 0.307 0.224l1.542 0.224c0.333 0.051 0.467 0.461 0.224 0.698l-1.12 1.088c-0.096 0.096-0.141 0.23-0.115 0.358l0.262 1.536c0.058 0.333-0.294 0.589-0.589 0.429l-1.376-0.723c-0.122-0.064-0.262-0.064-0.378 0l-1.389 0.73c-0.301 0.16-0.646-0.096-0.589-0.429l0.262-1.536c0.026-0.134-0.019-0.269-0.115-0.358l-1.12-1.088c-0.243-0.237-0.109-0.646 0.224-0.698l1.542-0.224c0.134-0.019 0.25-0.102 0.307-0.224l0.691-1.402c0.154-0.307 0.589-0.307 0.736-0.006z"></path>
</symbol>
<symbol id="icon-puzzle" viewBox="0 0 32 32">
<path fill="#fff" style="fill: var(--color1, #fff)" d="M20.214 31.75h-16.857c-1.713 0-3.107-1.394-3.107-3.107v-5.439c0-0.651 0.415-1.234 1.033-1.451 0.613-0.215 1.27-0.031 1.673 0.472 0.78 0.972 2.037 1.399 3.28 1.115 1.146-0.262 2.092-1.209 2.354-2.355 0.229-1.006 0.012-1.991-0.611-2.773-0.614-0.77-1.531-1.212-2.515-1.212-0.98 0-1.894 0.439-2.508 1.204-0.403 0.502-1.059 0.687-1.672 0.471-0.619-0.218-1.034-0.801-1.034-1.452v-5.438c0-1.713 1.394-3.107 3.107-3.107l4.311 0c-1.006-1.295-1.353-2.988-0.903-4.642 0.493-1.814 2.002-3.249 3.843-3.656 1.582-0.35 3.201 0.021 4.441 1.017s1.951 2.479 1.951 4.068c0 1.176-0.391 2.301-1.098 3.214l4.312-0c1.713 0 3.107 1.394 3.107 3.107v4.311c1.294-1.007 2.988-1.353 4.642-0.904 1.814 0.493 3.249 2.001 3.657 3.842 0.35 1.582-0.020 3.201-1.016 4.441s-2.479 1.952-4.068 1.952c-1.177 0-2.301-0.391-3.214-1.098v4.313c0 1.713-1.394 3.107-3.107 3.107zM2.25 24.322v4.321c0 0.611 0.497 1.107 1.107 1.107h16.857c0.61 0 1.107-0.497 1.107-1.107v-5.436c0-0.65 0.393-1.212 1.001-1.431 0.614-0.221 1.283-0.038 1.702 0.468 0.624 0.752 1.54 1.184 2.511 1.184 0.98 0 1.894-0.439 2.508-1.204 0.623-0.777 0.845-1.756 0.623-2.757-0.249-1.124-1.123-2.044-2.229-2.345-1.273-0.347-2.58 0.059-3.41 1.057-0.422 0.507-1.093 0.691-1.709 0.468-0.606-0.22-0.998-0.781-0.998-1.43v-5.434c0-0.611-0.497-1.107-1.107-1.107l-5.436 0c-0.65 0-1.212-0.393-1.431-1.001-0.222-0.614-0.038-1.282 0.468-1.702 0.753-0.625 1.184-1.54 1.184-2.511 0-0.98-0.439-1.894-1.204-2.508-0.777-0.623-1.755-0.844-2.757-0.623-1.124 0.249-2.045 1.124-2.345 2.229-0.346 1.273 0.059 2.58 1.057 3.411 0.507 0.422 0.691 1.093 0.468 1.708-0.219 0.606-0.78 0.998-1.429 0.998l-5.433-0c-0.61 0-1.107 0.497-1.107 1.107v4.321c0.908-0.713 2.032-1.107 3.214-1.107 1.596 0 3.082 0.716 4.078 1.965s1.36 2.876 0.998 4.464c-0.435 1.908-1.95 3.423-3.858 3.86-1.593 0.364-3.204-0.004-4.432-0.968z"></path>
</symbol>
<symbol id="icon-agree" viewBox="0 0 32 32">
<path fill="#fff" style="fill: var(--color1, #fff); stroke: var(--color1, #fff)" stroke="#fff" stroke-linejoin="miter" stroke-linecap="butt" stroke-miterlimit="4" stroke-width="0.5647" d="M15.99 6.73c-5.111 0-9.263 4.161-9.263 9.267s4.152 9.267 9.263 9.267c5.111 0 9.263-4.154 9.263-9.267s-4.152-9.267-9.263-9.267zM15.99 23.985c-4.401 0-7.985-3.585-7.985-7.989s3.584-7.989 7.985-7.989c4.401 0 7.985 3.585 7.985 7.989s-3.584 7.989-7.985 7.989z"></path>
<path fill="#fff" style="fill: var(--color1, #fff); stroke: var(--color1, #fff)" stroke="#fff" stroke-linejoin="miter" stroke-linecap="butt" stroke-miterlimit="4" stroke-width="0.5647" d="M19.504 12.916l-5.088 5.166-2.161-3.002c-0.204-0.284-0.572-0.323-0.824-0.092s-0.286 0.647-0.082 0.93l2.547 3.536c0.099 0.139 0.245 0.224 0.409 0.244h0.047c0.146 0 0.28-0.059 0.391-0.172l5.543-5.628c0.24-0.244 0.257-0.66 0.047-0.93s-0.59-0.297-0.829-0.053z"></path>
<path fill="#fff" style="fill: var(--color1, #fff); stroke: var(--color1, #fff)" stroke="#fff" stroke-linejoin="miter" stroke-linecap="butt" stroke-miterlimit="4" stroke-width="0.5647" d="M30.161 13.867l-0.571-0.571c-0.422-0.422-0.585-1.041-0.422-1.612l0.218-0.776c0.449-1.599-0.483-3.259-2.081-3.708l-0.571-0.163c-0.585-0.163-1.034-0.639-1.163-1.238l-0.129-0.578c-0.17-0.782-0.632-1.456-1.312-1.891s-1.482-0.578-2.264-0.408l-1.292 0.286c-0.551 0.116-1.115-0.048-1.51-0.442l-0.945-0.946c-0.564-0.565-1.326-0.878-2.128-0.878s-1.557 0.313-2.128 0.878l-0.571 0.571c-0.422 0.422-1.040 0.585-1.612 0.422l-0.775-0.218c-1.598-0.449-3.257 0.483-3.706 2.082l-0.163 0.571c-0.163 0.585-0.639 1.034-1.238 1.163l-0.578 0.129c-0.782 0.17-1.455 0.633-1.89 1.313s-0.578 1.483-0.408 2.265l0.286 1.306c0.122 0.551-0.048 1.116-0.442 1.51l-0.945 0.946c-1.17 1.17-1.17 3.082 0 4.252l0.571 0.571c0.422 0.422 0.585 1.041 0.422 1.612l-0.218 0.776c-0.449 1.599 0.483 3.259 2.081 3.708l0.571 0.163c0.585 0.163 1.034 0.639 1.163 1.238l0.129 0.578c0.17 0.782 0.632 1.456 1.312 1.891 0.673 0.435 1.482 0.578 2.264 0.408l1.306-0.286c0.551-0.123 1.115 0.048 1.51 0.442l0.945 0.946c0.571 0.565 1.326 0.878 2.128 0.878s1.557-0.313 2.128-0.878l0.571-0.571c0.422-0.422 1.040-0.585 1.612-0.422l0.775 0.218c1.598 0.449 3.257-0.483 3.706-2.082l0.163-0.571c0.163-0.585 0.639-1.034 1.238-1.163l0.578-0.129c1.618-0.354 2.652-1.953 2.305-3.579l-0.286-1.306c-0.116-0.551 0.048-1.116 0.442-1.51l0.945-0.946c0.564-0.571 0.877-1.327 0.877-2.129s-0.326-1.551-0.898-2.123zM29.202 17.16l-0.945 0.946c-0.728 0.728-1.027 1.762-0.809 2.762l0.286 1.306c0.19 0.884-0.374 1.769-1.258 1.959l-0.578 0.129c-1.088 0.238-1.958 1.048-2.258 2.123l-0.163 0.571c-0.122 0.422-0.394 0.776-0.782 0.993-0.381 0.218-0.83 0.265-1.251 0.15l-0.775-0.218c-1.047-0.293-2.169 0-2.938 0.769l-0.571 0.571c-0.313 0.313-0.728 0.483-1.163 0.483-0.442 0-0.85-0.17-1.163-0.483l-0.952-0.952c-0.571-0.571-1.333-0.884-2.122-0.884-0.211 0-0.428 0.020-0.639 0.068l-1.306 0.286c-0.428 0.095-0.87 0.014-1.238-0.225s-0.626-0.605-0.721-1.034l-0.129-0.578c-0.238-1.088-1.047-1.959-2.122-2.259l-0.571-0.163c-0.87-0.245-1.387-1.157-1.136-2.034l0.218-0.776c0.292-1.048 0-2.17-0.768-2.939l-0.571-0.571c-0.313-0.313-0.483-0.728-0.483-1.163s0.17-0.85 0.483-1.163l0.945-0.946c0.728-0.728 1.027-1.762 0.809-2.762l-0.286-1.306c-0.095-0.429-0.014-0.871 0.224-1.238s0.605-0.626 1.034-0.721l0.578-0.129c1.088-0.238 1.958-1.048 2.258-2.123l0.163-0.571c0.245-0.871 1.156-1.388 2.033-1.136l0.775 0.218c1.047 0.293 2.169 0 2.938-0.769l0.571-0.571c0.313-0.313 0.728-0.483 1.163-0.483 0.442 0 0.85 0.17 1.163 0.483l0.952 0.946c0.728 0.728 1.761 1.027 2.761 0.81l1.306-0.286c0.428-0.095 0.87-0.014 1.238 0.224s0.626 0.606 0.721 1.034l0.129 0.578c0.238 1.088 1.047 1.959 2.122 2.259l0.571 0.163c0.87 0.245 1.387 1.157 1.136 2.034l-0.218 0.776c-0.292 1.048 0 2.17 0.768 2.939l0.571 0.571c0.313 0.313 0.483 0.728 0.483 1.163s-0.177 0.857-0.483 1.17z"></path>
</symbol>
<symbol id="icon-arrow" viewBox="0 0 31 32">
<path fill="#fff" style="fill: var(--color1, #fff); stroke: var(--color1, #fff)" stroke="#fff" stroke-linejoin="miter" stroke-linecap="butt" stroke-miterlimit="4" stroke-width="0.9143" d="M20.777 9.884h-6.951c-0.242 0-0.438 0.195-0.438 0.438s0.196 0.438 0.438 0.438h5.89l-10.163 10.163c-0.171 0.171-0.171 0.45 0 0.621s0.45 0.171 0.621 0l10.163-10.163v5.89c0 0.242 0.195 0.438 0.438 0.438 0.124 0 0.23-0.050 0.31-0.13s0.127-0.189 0.13-0.31v-6.951c0-0.118-0.047-0.227-0.13-0.31s-0.192-0.124-0.307-0.121z"></path>
</symbol>
<symbol id="icon-ideas" viewBox="0 0 32 32">
<path d="M27.819 1.92h-23.631c-2.309 0-4.188 1.896-4.188 4.224v19.719c0 2.328 1.88 4.217 4.181 4.217h23.637c2.309 0 4.181-1.896 4.181-4.217v-19.719c0.007-2.328-1.873-4.224-4.181-4.224zM30.645 25.856c0 1.573-1.267 2.843-2.819 2.843h-23.637c-1.559 0.007-2.826-1.271-2.826-2.843v-19.712c0-1.573 1.267-2.85 2.826-2.85h23.637c1.559 0 2.819 1.278 2.819 2.843v19.719z"></path>
<path d="M4.331 8.113c0.577 0 1.045-0.468 1.045-1.045s-0.468-1.045-1.045-1.045c-0.577 0-1.045 0.468-1.045 1.045s0.468 1.045 1.045 1.045z"></path>
<path d="M7.572 8.113c0.577 0 1.045-0.468 1.045-1.045s-0.468-1.045-1.045-1.045c-0.577 0-1.045 0.468-1.045 1.045s0.468 1.045 1.045 1.045z"></path>
<path d="M10.821 8.113c0.577 0 1.045-0.468 1.045-1.045s-0.468-1.045-1.045-1.045c-0.577 0-1.045 0.468-1.045 1.045s0.468 1.045 1.045 1.045z"></path>
<path d="M22.668 19.162c0-0.007 0-0.020 0-0.027 0.007-0.047 0.007-0.1 0.013-0.146 0-0.013 0-0.027 0.007-0.040 0.007-0.047 0.007-0.093 0.007-0.14 0-0.013 0-0.033 0-0.047 0-0.047 0.007-0.093 0.007-0.133 0-0.013 0-0.033 0-0.047 0-0.060 0-0.12 0-0.18s0-0.12 0-0.18c0-0.013 0-0.033 0-0.047 0-0.047 0-0.093-0.007-0.133 0-0.013 0-0.033 0-0.047 0-0.047-0.007-0.093-0.007-0.14 0-0.013 0-0.027 0-0.040-0.007-0.047-0.007-0.1-0.013-0.146 0-0.007 0-0.020 0-0.027-0.007-0.053-0.013-0.107-0.020-0.16 0-0.007 0-0.013 0-0.013-0.073-0.592-0.226-1.178-0.446-1.737-0.007-0.013-0.013-0.033-0.020-0.047-1.085-2.709-3.734-4.619-6.822-4.619s-5.737 1.917-6.822 4.619c-0.007 0.013-0.013 0.033-0.020 0.047-0.22 0.559-0.366 1.145-0.446 1.737v0.013c-0.007 0.053-0.013 0.107-0.020 0.16v0.027c-0.007 0.047-0.007 0.1-0.013 0.146v0.040c-0.007 0.047-0.007 0.093-0.007 0.14v0.047c0 0.047-0.007 0.093-0.007 0.133v0.453c0 0.047 0 0.093 0.007 0.133v0.047c0 0.047 0.007 0.093 0.007 0.133 0 0.013 0 0.027 0.007 0.040 0.007 0.047 0.007 0.1 0.013 0.146v0.033c0.007 0.053 0.013 0.107 0.020 0.16v0.020c0.007 0.060 0.013 0.113 0.027 0.173 0.080 0.532 0.22 1.058 0.419 1.564 0.007 0.013 0.013 0.033 0.020 0.047 1.085 2.702 3.734 4.619 6.822 4.619s5.737-1.917 6.822-4.619c0.007-0.013 0.013-0.033 0.020-0.047 0.22-0.559 0.366-1.145 0.446-1.737 0-0.007 0-0.013 0-0.013-0.007-0.060 0-0.113 0.007-0.166zM21.377 18.596v0.060c0 0.053-0.007 0.107-0.007 0.16v0.047c-0.007 0.060-0.013 0.12-0.013 0.18 0 0.027-0.007 0.060-0.013 0.087-0.007 0.033-0.007 0.067-0.013 0.1-0.007 0.060-0.020 0.12-0.027 0.18-0.007 0.020-0.007 0.040-0.013 0.067-0.007 0.040-0.013 0.080-0.027 0.126 0 0.013-0.007 0.027-0.007 0.040-0.040 0.18-0.087 0.359-0.14 0.539h-2.682c0.053-0.572 0.087-1.165 0.087-1.77s-0.027-1.198-0.087-1.77h2.682c0.053 0.173 0.1 0.353 0.14 0.539 0 0.013 0.007 0.027 0.007 0.040 0.007 0.040 0.013 0.087 0.027 0.126 0.007 0.020 0.007 0.040 0.007 0.060 0.013 0.060 0.020 0.126 0.027 0.186 0.007 0.033 0.007 0.067 0.013 0.1 0.007 0.027 0.007 0.060 0.013 0.087 0.007 0.060 0.013 0.12 0.013 0.173v0.047c0.007 0.053 0.007 0.107 0.007 0.16v0.060c0 0.067 0.007 0.133 0.007 0.2v0.18zM15.36 24.413c-0.426 0-1.132-1.012-1.531-2.915h3.062c-0.399 1.904-1.105 2.915-1.531 2.915zM13.629 20.167c-0.060-0.539-0.093-1.132-0.093-1.77s0.033-1.231 0.093-1.77h3.461c0.060 0.539 0.093 1.132 0.093 1.77s-0.033 1.231-0.093 1.77h-3.461zM9.469 19.634c0-0.013-0.007-0.027-0.007-0.047-0.007-0.040-0.013-0.080-0.027-0.12-0.007-0.020-0.007-0.047-0.013-0.067-0.007-0.060-0.020-0.113-0.027-0.173-0.007-0.033-0.007-0.067-0.013-0.1-0.007-0.027-0.007-0.060-0.007-0.087-0.007-0.060-0.013-0.12-0.013-0.18 0-0.013 0-0.027 0-0.047-0.007-0.053-0.007-0.107-0.007-0.16 0-0.020 0-0.040 0-0.060 0-0.067-0.007-0.133-0.007-0.2s0-0.133 0.007-0.2c0-0.020 0-0.040 0-0.060 0-0.053 0.007-0.107 0.007-0.16 0-0.013 0-0.033 0-0.047 0.007-0.060 0.013-0.12 0.013-0.173 0-0.027 0.007-0.060 0.013-0.087 0.007-0.033 0.007-0.067 0.013-0.1 0.007-0.060 0.020-0.126 0.027-0.186 0-0.020 0.007-0.040 0.007-0.060 0.007-0.040 0.013-0.087 0.027-0.126 0-0.013 0.007-0.027 0.007-0.040 0.040-0.18 0.087-0.359 0.14-0.539h2.682c-0.053 0.572-0.087 1.165-0.087 1.77s0.027 1.198 0.087 1.77h-2.682c-0.053-0.166-0.1-0.346-0.14-0.526zM15.36 12.379c0.426 0 1.132 1.012 1.531 2.915h-3.062c0.399-1.904 1.105-2.915 1.531-2.915zM20.511 15.294h-2.276c-0.126-0.679-0.293-1.305-0.499-1.857-0.093-0.253-0.193-0.479-0.293-0.686 1.291 0.479 2.37 1.384 3.068 2.543zM13.27 12.752c-0.1 0.206-0.2 0.433-0.293 0.686-0.206 0.552-0.373 1.178-0.499 1.857h-2.276c0.706-1.158 1.784-2.063 3.068-2.543zM10.208 21.498h2.27c0.126 0.679 0.293 1.305 0.499 1.857 0.093 0.253 0.193 0.479 0.293 0.686-1.285-0.479-2.363-1.384-3.062-2.543zM17.45 24.040c0.1-0.206 0.2-0.433 0.293-0.686 0.206-0.552 0.373-1.178 0.499-1.857h2.27c-0.699 1.158-1.777 2.063-3.062 2.543z"></path>
</symbol>
<symbol id="icon-right" viewBox="0 0 49 32">
<path stroke-linejoin="miter" stroke-linecap="butt" stroke-miterlimit="4" stroke-width="1.8824" d="M46.504 15.23l-13.493-13.493c-0.47-0.47-1.229-0.47-1.699 0s-0.47 1.229 0 1.699l11.433 11.433h-39.454c-0.663 0-1.205 0.542-1.205 1.205s0.542 1.205 1.205 1.205h39.454l-11.433 11.433c-0.47 0.47-0.47 1.229 0 1.699 0.241 0.241 0.542 0.349 0.855 0.349s0.614-0.12 0.855-0.349l13.493-13.493c0.229-0.229 0.349-0.53 0.349-0.855s-0.133-0.614-0.361-0.831z"></path>
</symbol>
<symbol id="icon-left" viewBox="0 0 49 32">
<path stroke-linejoin="miter" stroke-linecap="butt" stroke-miterlimit="4" stroke-width="1.8824" d="M2.437 15.23l13.493-13.493c0.47-0.47 1.229-0.47 1.699 0s0.47 1.229 0 1.699l-11.433 11.433h39.454c0.663 0 1.205 0.542 1.205 1.205s-0.542 1.205-1.205 1.205h-39.454l11.433 11.433c0.47 0.47 0.47 1.229 0 1.699-0.241 0.241-0.542 0.349-0.855 0.349s-0.614-0.12-0.855-0.349l-13.493-13.493c-0.229-0.229-0.349-0.53-0.349-0.855s0.133-0.614 0.361-0.831z"></path>
</symbol>
<symbol id="icon-laptop" viewBox="0 0 55 32">
<path d="M49.824 30.45h-44.288v-28.66c0-0.713 0.578-1.292 1.292-1.292h41.704c0.713 0 1.292 0.578 1.292 1.292v28.66z"></path>
<path d="M50.166 30.45h-44.971v-28.957c0-0.723 0.586-1.308 1.308-1.308h42.354c0.723 0 1.308 0.586 1.308 1.308v28.957z"></path>
<path d="M48.997 2.064h-42.685v26.777h42.685v-26.777z"></path>
<path d="M0.185 30.455v0.327h22.146c0.218 0 0.435 0.031 0.647 0.082 0.025 0.006 0.050 0.011 0.075 0.016v-0.424l-22.868-0z"></path>
<path d="M32.253 30.455v0.424c-0.094 0.018-0.19 0.027-0.287 0.027h-8.626c-0.097 0-0.192-0.009-0.287-0.027v-0.424h9.2z"></path>
<path d="M22.445 30.782c0 0 0.406 0.028 0.609 0.095h9.201c0 0 0.271-0.068 0.541-0.095h22.283c0.008 0 0.009 0.011 0.002 0.013-1.919 0.594-3.916 0.896-5.924 0.896h-43.006c-2.009 0-4.006-0.302-5.924-0.896-0.007-0.002-0.006-0.013 0.002-0.013h22.216z"></path>
<path d="M55.121 30.455v0.327h-22.145c-0.218 0-0.435 0.031-0.647 0.082-0.025 0.006-0.050 0.011-0.076 0.016v-0.424l22.868-0z"></path>
</symbol>
<symbol id="icon-cinema" viewBox="0 0 32 32">
<path stroke-linejoin="round" stroke-linecap="round" stroke-miterlimit="4" stroke-width="0.4678" d="M9.372 18.588c0.703 0 1.377-0.279 1.875-0.776s0.776-1.171 0.776-1.875c0-0.703-0.279-1.377-0.776-1.875s-1.171-0.776-1.875-0.776c-0.703 0-1.377 0.279-1.875 0.776s-0.776 1.171-0.776 1.875c0 0.703 0.279 1.377 0.776 1.875s1.171 0.776 1.875 0.776zM22.628 18.588c0.703 0 1.378-0.279 1.875-0.776s0.777-1.171 0.777-1.875-0.279-1.377-0.777-1.875c-0.497-0.497-1.171-0.776-1.875-0.776s-1.378 0.279-1.875 0.776c-0.497 0.497-0.777 1.171-0.777 1.875s0.279 1.377 0.777 1.875c0.497 0.497 1.171 0.776 1.875 0.776zM16 11.961c0.703 0 1.377-0.279 1.875-0.776s0.776-1.171 0.776-1.875c0-0.703-0.279-1.377-0.776-1.875s-1.171-0.776-1.875-0.776c-0.703 0-1.377 0.279-1.875 0.776s-0.776 1.171-0.776 1.875c0 0.703 0.279 1.377 0.776 1.875s1.171 0.776 1.875 0.776zM16 25.216c0.703 0 1.377-0.279 1.875-0.776s0.776-1.171 0.776-1.875c0-0.703-0.279-1.378-0.776-1.875s-1.171-0.776-1.875-0.776-1.377 0.279-1.875 0.776c-0.497 0.497-0.776 1.172-0.776 1.875s0.279 1.377 0.776 1.875c0.497 0.497 1.171 0.776 1.875 0.776z"></path>
<path stroke-linejoin="round" stroke-linecap="round" stroke-miterlimit="4" stroke-width="0.4678" d="M2.745 15.937c0 7.321 5.934 13.255 13.255 13.255s13.255-5.934 13.255-13.255c0-7.321-5.934-13.255-13.255-13.255s-13.255 5.934-13.255 13.255zM2.745 15.937v13.255"></path>
</symbol>
<symbol id="icon-lucide" viewBox="0 0 32 32">
<path fill="none" stroke="#fff" style="stroke: var(--color1, #fff)" stroke-linejoin="round" stroke-linecap="round" stroke-miterlimit="4" stroke-width="2.2857" d="M26.667 10.667h-21.333c-0.736 0-1.333 0.597-1.333 1.333v2.667c0 0.736 0.597 1.333 1.333 1.333h21.333c0.736 0 1.333-0.597 1.333-1.333v-2.667c0-0.736-0.597-1.333-1.333-1.333z"></path>
<path fill="none" stroke="#fff" style="stroke: var(--color1, #fff)" stroke-linejoin="round" stroke-linecap="round" stroke-miterlimit="4" stroke-width="2.2857" d="M16 10.667v17.333M16 10.667c-0.482-1.987-1.313-3.687-2.383-4.876s-2.331-1.813-3.617-1.791c-0.884 0-1.732 0.351-2.357 0.976s-0.976 1.473-0.976 2.357c0 0.884 0.351 1.732 0.976 2.357s1.473 0.976 2.357 0.976M16 10.667c0.482-1.987 1.313-3.687 2.383-4.876s2.331-1.813 3.617-1.791c0.884 0 1.732 0.351 2.357 0.976s0.976 1.473 0.976 2.357c0 0.884-0.351 1.732-0.976 2.357s-1.473 0.976-2.357 0.976M25.333 16v9.333c0 0.707-0.281 1.386-0.781 1.886s-1.178 0.781-1.886 0.781h-13.333c-0.707 0-1.386-0.281-1.886-0.781s-0.781-1.178-0.781-1.886v-9.333"></path>
</symbol>
<svg width="0" height="0" style="position: absolute;">
  <!-- Залитая иконка -->
  <symbol id="icon-star-filled" viewBox="0 0 34 32">
    <defs>
      <linearGradient id="star-gradient-filled" x1="0%" y1="0%" x2="100%" y2="100%" gradientTransform="rotate(30)">
        <stop offset="0%" stop-color="#9624e2" />
        <stop offset="100%" stop-color="#02079d" />
      </linearGradient>
    </defs>
    <path 
      fill="url(#star-gradient-filled)"
      stroke-linejoin="miter"
      stroke-linecap="butt"
      stroke-miterlimit="4"
      stroke-width="1.5238"
      d="M19.972 11.323c0.204 0.628 0.789 1.054 1.449 1.054h10.387l-8.403 6.106c-0.467 0.34-0.697 0.908-0.61 1.466l0.057 0.237 3.21 9.879-8.403-6.106c-0.467-0.34-1.080-0.383-1.583-0.128l-0.208 0.128-8.403 6.106 3.21-9.879c0.178-0.549 0.030-1.145-0.368-1.545l-0.186-0.158-8.403-6.106h10.387c0.578 0 1.098-0.326 1.356-0.827l0.094-0.226 3.21-9.878 3.21 9.878z"
    />
  </symbol>

  <!-- Иконка с обводкой -->
  <symbol id="icon-star-outline" viewBox="0 0 34 32">
    <defs>
      <linearGradient id="star-gradient-outline" x1="0%" y1="0%" x2="100%" y2="100%" gradientTransform="rotate(30)">
        <stop offset="0%" stop-color="#9624e2" />
        <stop offset="100%" stop-color="#02079d" />
      </linearGradient>
    </defs>
    <path 
      stroke="url(#star-gradient-outline)" 
      fill="none"
      stroke-linejoin="miter"
      stroke-linecap="butt"
      stroke-miterlimit="4"
      stroke-width="1.5238"
      d="M19.972 11.323c0.204 0.628 0.789 1.054 1.449 1.054h10.387l-8.403 6.106c-0.467 0.34-0.697 0.908-0.61 1.466l0.057 0.237 3.21 9.879-8.403-6.106c-0.467-0.34-1.080-0.383-1.583-0.128l-0.208 0.128-8.403 6.106 3.21-9.879c0.178-0.549 0.030-1.145-0.368-1.545l-0.186-0.158-8.403-6.106h10.387c0.578 0 1.098-0.326 1.356-0.827l0.094-0.226 3.21-9.878 3.21 9.878z"
    />
  </symbol>
</svg>
</defs>
</svg>
