<svg aria-hidden="true" style="position: absolute; width: 0; height: 0; overflow: hidden;" version="1.1" xmlns="http://www.w3.org/2000/svg" xmlns:xlink="http://www.w3.org/1999/xlink">

<symbol id="icon-game" viewBox="0 0 32 32">
<path fill="#fff" style="fill: var(--color1, #fff)" d="M4.084 10.040c2.28-4.548 6.845-7.373 11.916-7.373 7.352 0 13.333 5.981 13.333 13.333s-5.981 13.333-13.333 13.333c-5.071 0-9.636-2.825-11.916-7.373-0.153-0.305-0.183-0.656-0.085-0.983s0.318-0.603 0.614-0.772l7.364-4.205-7.363-4.204c-0.615-0.352-0.848-1.123-0.531-1.756zM15.328 14.843c0.204 0.116 0.374 0.285 0.492 0.488s0.18 0.434 0.18 0.669c0 0.235-0.062 0.466-0.18 0.669s-0.288 0.372-0.492 0.488l-8.231 4.7c0.965 1.48 2.285 2.696 3.84 3.536s3.295 1.278 5.062 1.274c5.881 0 10.667-4.785 10.667-10.667s-4.785-10.667-10.667-10.667c-1.767-0.004-3.507 0.434-5.062 1.273s-2.875 2.055-3.841 3.535l8.231 4.701z"></path>
<path fill="#fff" style="fill: var(--color1, #fff)" d="M16.667 12c-1.105 0-2-0.895-2-2s0.895-2 2-2c1.105 0 2 0.895 2 2s-0.895 2-2 2z"></path>
</symbol>
<symbol id="icon-close" viewBox="0 0 32 32">
<path d="M1.074 1.074c0.669-0.669 1.755-0.669 2.424 0l12.502 12.502 12.502-12.502c0.669-0.669 1.755-0.669 2.424 0s0.669 1.755 0 2.424l-12.502 12.502 12.502 12.502c0.669 0.669 0.669 1.755 0 2.424s-1.755 0.669-2.424 0l-12.502-12.502-12.502 12.502c-0.669 0.669-1.755 0.669-2.424 0s-0.669-1.755 0-2.424l12.502-12.502-12.502-12.502c-0.669-0.669-0.669-1.755 0-2.424z"></path>
</symbol>
<symbol id="icon-open" viewBox="0 0 48 32">
<path fill="#fff" style="fill: var(--color1, #fff)" d="M2.667 32c-0.756 0-1.388-0.256-1.899-0.768s-0.766-1.145-0.768-1.899c-0.002-0.754 0.254-1.387 0.768-1.899s1.147-0.768 1.899-0.768h42.667c0.756 0 1.389 0.256 1.901 0.768s0.767 1.145 0.765 1.899c-0.002 0.754-0.258 1.388-0.768 1.901s-1.143 0.769-1.899 0.765h-42.667zM2.667 18.667c-0.756 0-1.388-0.256-1.899-0.768s-0.766-1.145-0.768-1.899c-0.002-0.754 0.254-1.387 0.768-1.899s1.147-0.768 1.899-0.768h42.667c0.756 0 1.389 0.256 1.901 0.768s0.767 1.145 0.765 1.899c-0.002 0.754-0.258 1.388-0.768 1.901s-1.143 0.769-1.899 0.765h-42.667zM2.667 5.333c-0.756 0-1.388-0.256-1.899-0.768s-0.766-1.145-0.768-1.899c-0.002-0.754 0.254-1.387 0.768-1.899s1.147-0.768 1.899-0.768h42.667c0.756 0 1.389 0.256 1.901 0.768s0.767 1.145 0.765 1.899c-0.002 0.754-0.258 1.388-0.768 1.901s-1.143 0.769-1.899 0.765h-42.667z"></path>
</symbol>
<symbol id="icon-instagram" viewBox="0 0 32 32">
<path fill="none" stroke="#fff" style="stroke: var(--color1, #fff)" stroke-linejoin="miter" stroke-linecap="butt" stroke-miterlimit="4" stroke-width="2.6667" d="M4 14.667c0-5.028 0-7.543 1.563-9.104s4.076-1.563 9.104-1.563h2.667c5.028 0 7.543 0 9.104 1.563s1.563 4.076 1.563 9.104v2.667c0 5.028 0 7.543-1.563 9.104s-4.076 1.563-9.104 1.563h-2.667c-5.028 0-7.543 0-9.104-1.563s-1.563-4.076-1.563-9.104v-2.667z"></path>
<path fill="#fff" style="fill: var(--color1, #fff)" d="M22 12c1.105 0 2-0.895 2-2s-0.895-2-2-2c-1.105 0-2 0.895-2 2s0.895 2 2 2z"></path>
<path fill="none" stroke="#fff" style="stroke: var(--color1, #fff)" stroke-linejoin="miter" stroke-linecap="butt" stroke-miterlimit="4" stroke-width="2.6667" d="M16 20c2.209 0 4-1.791 4-4s-1.791-4-4-4c-2.209 0-4 1.791-4 4s1.791 4 4 4z"></path>
</symbol>
<symbol id="icon-whatsapp" viewBox="0 0 32 32">
<path fill="#fff" style="fill: var(--color1, #fff)" d="M25.4 6.547c-1.223-1.235-2.679-2.213-4.283-2.88s-3.326-1.006-5.063-1c-7.28 0-13.213 5.933-13.213 13.213 0 2.333 0.613 4.6 1.76 6.6l-1.867 6.853 7-1.84c1.933 1.053 4.107 1.613 6.32 1.613 7.28 0 13.213-5.933 13.213-13.213 0-3.533-1.373-6.853-3.867-9.347zM16.053 26.867c-1.973 0-3.907-0.533-5.6-1.533l-0.4-0.24-4.16 1.093 1.107-4.053-0.267-0.413c-1.097-1.751-1.679-3.774-1.68-5.84 0-6.053 4.933-10.987 10.987-10.987 2.933 0 5.693 1.147 7.76 3.227 1.023 1.018 1.835 2.23 2.386 3.564s0.833 2.765 0.827 4.209c0.027 6.053-4.907 10.973-10.96 10.973zM22.080 18.653c-0.333-0.16-1.96-0.96-2.253-1.080-0.307-0.107-0.52-0.16-0.747 0.16-0.227 0.333-0.853 1.080-1.040 1.293-0.187 0.227-0.387 0.253-0.72 0.080-0.333-0.16-1.4-0.52-2.653-1.64-0.987-0.88-1.64-1.96-1.84-2.293-0.187-0.333-0.027-0.507 0.147-0.68 0.147-0.147 0.333-0.387 0.493-0.573s0.227-0.333 0.333-0.547c0.107-0.227 0.053-0.413-0.027-0.573s-0.747-1.787-1.013-2.453c-0.267-0.64-0.547-0.56-0.747-0.573h-0.64c-0.227 0-0.573 0.080-0.88 0.413-0.293 0.333-1.147 1.133-1.147 2.76s1.187 3.2 1.347 3.413c0.16 0.227 2.333 3.56 5.64 4.987 0.787 0.347 1.4 0.547 1.88 0.693 0.787 0.253 1.507 0.213 2.080 0.133 0.64-0.093 1.96-0.8 2.227-1.573 0.28-0.773 0.28-1.427 0.187-1.573s-0.293-0.213-0.627-0.373z"></path>
</symbol>
<symbol id="icon-youtube" viewBox="0 0 32 32">
<path fill="#fff" style="fill: var(--color1, #fff)" d="M16 5.333c1.14 0 2.309 0.029 3.443 0.077l1.339 0.064 1.281 0.076 1.2 0.081 1.096 0.085c1.19 0.091 2.309 0.598 3.161 1.433s1.382 1.944 1.497 3.131l0.053 0.567 0.1 1.213c0.093 1.257 0.163 2.628 0.163 3.939s-0.069 2.681-0.163 3.939l-0.1 1.213-0.053 0.567c-0.115 1.188-0.645 2.297-1.498 3.132s-1.972 1.342-3.162 1.432l-1.093 0.084-1.2 0.083-1.283 0.076-1.339 0.064c-1.147 0.050-2.295 0.075-3.443 0.077-1.148-0.002-2.296-0.028-3.443-0.077l-1.339-0.064-1.281-0.076-1.2-0.083-1.096-0.084c-1.19-0.091-2.309-0.598-3.161-1.433s-1.382-1.944-1.497-3.131l-0.053-0.567-0.1-1.213c-0.102-1.311-0.156-2.624-0.163-3.939 0-1.311 0.069-2.681 0.163-3.939l0.1-1.213 0.053-0.567c0.115-1.187 0.645-2.296 1.497-3.131s1.971-1.342 3.16-1.433l1.095-0.085 1.2-0.081 1.283-0.076 1.339-0.064c1.147-0.050 2.296-0.075 3.444-0.077zM16 8c-1.1 0-2.232 0.029-3.333 0.075l-1.304 0.063-1.252 0.073-1.176 0.080-1.077 0.084c-0.566 0.040-1.1 0.279-1.507 0.675s-0.66 0.924-0.714 1.489c-0.156 1.612-0.303 3.619-0.303 5.461s0.147 3.849 0.303 5.461c0.113 1.163 1.036 2.067 2.221 2.164l1.077 0.083 1.176 0.080 1.252 0.075 1.304 0.063c1.101 0.045 2.233 0.075 3.333 0.075s2.232-0.029 3.333-0.075l1.304-0.063 1.252-0.073 1.176-0.080 1.077-0.084c0.566-0.040 1.1-0.279 1.507-0.675s0.66-0.924 0.714-1.489c0.156-1.612 0.303-3.619 0.303-5.461s-0.147-3.849-0.303-5.461c-0.054-0.565-0.307-1.093-0.714-1.489s-0.941-0.635-1.507-0.675l-1.077-0.083-1.176-0.080-1.252-0.075-1.304-0.063c-1.111-0.048-2.222-0.073-3.333-0.075zM13.333 12.767c-0-0.13 0.032-0.259 0.093-0.374s0.149-0.214 0.257-0.287c0.108-0.073 0.231-0.12 0.361-0.134s0.261 0.003 0.382 0.050l0.108 0.053 5.6 3.232c0.111 0.064 0.206 0.155 0.275 0.263s0.111 0.232 0.122 0.361c0.011 0.128-0.009 0.257-0.058 0.376s-0.127 0.224-0.226 0.307l-0.113 0.080-5.6 3.233c-0.113 0.065-0.24 0.102-0.37 0.107s-0.26-0.022-0.377-0.078c-0.118-0.057-0.219-0.141-0.297-0.246s-0.128-0.227-0.147-0.356l-0.008-0.12v-6.467z"></path>
</symbol>
<symbol id="icon-linkedin" viewBox="0 0 32 32">
<path fill="#fff" style="fill: var(--color1, #fff)" d="M9.253 6.667c-0 0.707-0.282 1.385-0.782 1.885s-1.179 0.78-1.886 0.78c-0.707-0-1.385-0.282-1.885-0.782s-0.78-1.179-0.78-1.886c0-0.707 0.282-1.385 0.782-1.885s1.179-0.78 1.886-0.78c0.707 0 1.385 0.282 1.885 0.782s0.78 1.179 0.78 1.886zM9.333 11.307h-5.333v16.693h5.333v-16.693zM17.76 11.307h-5.307v16.693h5.253v-8.76c0-4.88 6.36-5.333 6.36 0v8.76h5.267v-10.573c0-8.227-9.413-7.92-11.627-3.88l0.053-2.24z"></path>
</symbol>
<symbol id="icon-telegram" viewBox="0 0 32 32">
<path fill="#fff" style="fill: var(--color1, #fff)" d="M29.12 8.075c0.058-0.353 0.021-0.715-0.109-1.048s-0.346-0.626-0.627-0.848c-0.281-0.221-0.616-0.363-0.971-0.411s-0.715 0-1.045 0.139l-22.8 9.6c-1.589 0.669-1.671 2.968 0 3.661 1.655 0.689 3.333 1.32 5.032 1.891 1.557 0.515 3.256 0.991 4.617 1.125 0.372 0.445 0.84 0.875 1.317 1.267 0.729 0.6 1.607 1.217 2.513 1.809 1.816 1.187 3.831 2.321 5.188 3.060 1.623 0.88 3.565-0.133 3.856-1.903l3.027-18.343zM6.125 17.324l20.165-8.491-2.824 17.12c-1.332-0.724-3.251-1.808-4.96-2.925-0.788-0.506-1.548-1.053-2.279-1.639-0.195-0.159-0.385-0.326-0.568-0.499l5.281-5.28c0.25-0.25 0.391-0.589 0.391-0.943s-0.14-0.693-0.39-0.943-0.589-0.391-0.943-0.391c-0.354-0-0.693 0.14-0.943 0.39l-5.783 5.783c-0.979-0.125-2.341-0.488-3.837-0.981-1.114-0.371-2.217-0.772-3.309-1.203l-0.001 0.001z"></path>
</symbol>
<symbol id="icon-video" viewBox="0 0 32 32">
<path fill="none" stroke="#fff" style="stroke: var(--color1, #fff)" stroke-linejoin="round" stroke-linecap="round" stroke-miterlimit="4" stroke-width="2" d="M1.568 22.957v-13.913c0-0.984 0.338-1.928 0.939-2.623s1.417-1.087 2.268-1.087h13.63c0.851 0 1.666 0.391 2.268 1.087s0.939 1.639 0.939 2.623v13.913c0 0.984-0.338 1.928-0.939 2.623s-1.417 1.087-2.268 1.087h-13.63c-0.851 0-1.666-0.391-2.268-1.087s-0.939-1.639-0.939-2.623zM29.097 6.708l-6.414 6.61c-0.085 0.087-0.152 0.193-0.199 0.313s-0.071 0.248-0.071 0.379v3.298c0 0.131 0.024 0.26 0.071 0.379s0.114 0.226 0.199 0.313l6.414 6.61c0.115 0.119 0.258 0.196 0.411 0.223s0.309 0.003 0.45-0.071c0.141-0.073 0.261-0.192 0.344-0.342s0.129-0.325 0.129-0.504v-16.514c0-0.179-0.045-0.354-0.129-0.504s-0.203-0.269-0.344-0.342c-0.141-0.073-0.297-0.098-0.45-0.071s-0.296 0.105-0.411 0.223z"></path>
</symbol>
<symbol id="icon-web" viewBox="0 0 32 32">
<path fill="none" stroke="#fff" style="stroke: var(--color1, #fff)" stroke-linejoin="round" stroke-linecap="round" stroke-miterlimit="4" stroke-width="2.2857" d="M30.857 16c0 3.94-1.565 7.719-4.351 10.506s-6.565 4.352-10.506 4.352c-3.94 0-7.719-1.565-10.506-4.352s-4.352-6.565-4.352-10.506M30.857 16c0-3.94-1.565-7.719-4.351-10.506s-6.565-4.352-10.506-4.352c-3.94 0-7.719 1.565-10.506 4.352s-4.352 6.565-4.352 10.506M30.857 16h-29.714"></path>
<path fill="none" stroke="#fff" style="stroke: var(--color1, #fff)" stroke-linejoin="round" stroke-linecap="round" stroke-miterlimit="4" stroke-width="2.2857" d="M21.714 16c-0.281 5.433-2.282 10.636-5.714 14.857-3.432-4.221-5.434-9.424-5.714-14.857 0.281-5.433 2.282-10.636 5.714-14.857 3.432 4.221 5.434 9.424 5.714 14.857z"></path>
</symbol>
<symbol id="icon-mobile" viewBox="0 0 32 32">
<path fill="#fff" style="fill: var(--color1, #fff)" d="M24.833 0h-17c-0.663 0-1.299 0.263-1.768 0.732s-0.732 1.105-0.732 1.768v27c0 0.663 0.263 1.299 0.732 1.768s1.105 0.732 1.768 0.732h17c0.663 0 1.299-0.263 1.768-0.732s0.732-1.105 0.732-1.768v-27c0-0.663-0.263-1.299-0.732-1.768s-1.105-0.732-1.768-0.732zM24.833 29.5h-17v-27h17v27z"></path>
<path fill="#fff" style="fill: var(--color1, #fff)" d="M16 27c0.884 0 1.6-0.672 1.6-1.5s-0.716-1.5-1.6-1.5c-0.884 0-1.6 0.672-1.6 1.5s0.716 1.5 1.6 1.5z"></path>
</symbol>

<symbol id="icon-open-faq" viewBox="0 0 32 32">
<path fill="#fff" style="fill: var(--color1, #fff)" d="M13.714 0h4.571v32h-4.571v-32z"></path>
<path fill="#fff" style="fill: var(--color1, #fff)" d="M0 18.286v-4.571h32v4.571h-32z"></path>
</symbol>
<symbol id="icon-space" viewBox="0 0 32 32">
<path fill="#fff" style="fill: var(--color1, #fff)" d="M16 13.856c-1.241 0-2.25-1.009-2.25-2.25s1.009-2.25 2.25-2.25c1.241 0 2.25 1.009 2.25 2.25s-1.009 2.25-2.25 2.25z"></path>
<path fill="#fff" style="fill: var(--color1, #fff)" d="M24.718 17.631c0.485-7.521-1.005-14.618-8.374-17.32-0.222-0.082-0.466-0.082-0.688 0-7.368 2.702-8.859 9.8-8.373 17.32-2.754 0.552-4.835 2.987-4.835 5.901v5.646c0 0.67 0.402 1.263 1.024 1.512 0.198 0.079 0.403 0.117 0.607 0.117 0.436 0 0.862-0.177 1.177-0.508l3.573-3.761c0.165 0.119 0.366 0.191 0.582 0.191h1.184l0.652 4.176c0.076 0.487 0.495 0.846 0.988 0.846h7.532c0.493 0 0.912-0.359 0.988-0.846l0.652-4.176h1.184c0.216 0 0.416-0.072 0.582-0.191l3.573 3.761c0.315 0.331 0.741 0.508 1.177 0.508 0.203 0 0.409-0.038 0.607-0.117 0.622-0.248 1.024-0.842 1.024-1.512v-5.646c0-2.914-2.082-5.348-4.835-5.901zM4.447 28.246v-4.714c0-1.867 1.28-3.438 3.009-3.888 0.168 1.581 0.408 3.165 0.683 4.716l-3.692 3.886zM18.911 29.75h-5.82l-0.472-3.021h6.764l-0.472 3.021zM10.238 24.729c-1.749-9.4-2.259-19.192 5.762-22.408 8.021 3.216 7.511 13.008 5.762 22.408h-11.525zM27.554 28.246l-3.692-3.886c0.275-1.551 0.515-3.135 0.683-4.716 1.728 0.451 3.009 2.021 3.009 3.888v4.714z"></path>
</symbol>
<symbol id="icon-flag" viewBox="0 0 32 32">
<path fill="#fff" style="fill: var(--color1, #fff); stroke: var(--color1, #fff)" stroke="#fff" stroke-linejoin="miter" stroke-linecap="butt" stroke-miterlimit="4" stroke-width="0.6" d="M30.298 28.794l-13.658-13.626v-5.094h8.986c0.25 0 0.48-0.147 0.582-0.371 0.102-0.23 0.064-0.493-0.096-0.685l-2.573-2.97 2.566-2.861c0.166-0.186 0.211-0.461 0.109-0.691s-0.333-0.378-0.582-0.378h-9.632c-0.352 0-0.64 0.288-0.64 0.64v12.41l-13.658 13.626c-0.25 0.25-0.25 0.653 0 0.902s0.653 0.25 0.902 0l6.074-6.061 2.886 3.206c0.218 0.237 0.576 0.282 0.845 0.096l3.328-2.317 3.814 3.296c0.115 0.102 0.269 0.154 0.416 0.154 0.026 0 0.051 0 0.083-0.006 0.179-0.026 0.339-0.122 0.448-0.269l2.861-4.128 6.048 6.029c0.128 0.122 0.288 0.186 0.454 0.186s0.326-0.064 0.454-0.186c0.23-0.25 0.23-0.653-0.019-0.902zM22.202 5.613c-0.218 0.243-0.218 0.602-0.006 0.845l2.022 2.336h-7.578v-5.395h7.552l-1.99 2.214zM19.84 26.483l-3.648-3.155c-0.224-0.192-0.544-0.211-0.787-0.038l-3.27 2.278-2.547-2.835 6.413-6.394 6.426 6.413-2.586 3.731z"></path>
</symbol>
<symbol id="icon-energy" viewBox="0 0 32 32">
<path fill="#fff" style="fill: var(--color1, #fff)" d="M15.085 25.030c0.077 0.026 0.16 0.032 0.237 0.032 0.346 0 0.672-0.186 0.838-0.506l5.229-9.645c0.16-0.294 0.154-0.659-0.019-0.947s-0.486-0.467-0.826-0.467h-2.899v-5.6c0-0.435-0.294-0.819-0.723-0.928s-0.87 0.090-1.082 0.474l-5.229 9.645c-0.16 0.294-0.154 0.659 0.019 0.947s0.486 0.467 0.826 0.467h2.906v5.6c0 0.435 0.294 0.819 0.723 0.928z"></path>
<path fill="#fff" style="fill: var(--color1, #fff)" d="M16 5.702c-0.531 0-0.96-0.429-0.96-0.96v-2.298c0-0.531 0.429-0.96 0.96-0.96s0.96 0.429 0.96 0.96v2.298c0 0.531-0.429 0.96-0.96 0.96z"></path>
<path fill="#fff" style="fill: var(--color1, #fff)" d="M16 30.515c-0.531 0-0.96-0.429-0.96-0.96v-2.298c0-0.531 0.429-0.96 0.96-0.96s0.96 0.429 0.96 0.96v2.298c0 0.531-0.429 0.96-0.96 0.96z"></path>
<path fill="#fff" style="fill: var(--color1, #fff)" d="M29.555 16.96h-2.298c-0.531 0-0.96-0.429-0.96-0.96s0.429-0.96 0.96-0.96h2.298c0.531 0 0.96 0.429 0.96 0.96s-0.429 0.96-0.96 0.96z"></path>
<path fill="#fff" style="fill: var(--color1, #fff)" d="M4.742 16.96h-2.298c-0.531 0-0.96-0.429-0.96-0.96s0.429-0.96 0.96-0.96h2.298c0.531 0 0.96 0.429 0.96 0.96s-0.429 0.96-0.96 0.96z"></path>
<path fill="#fff" style="fill: var(--color1, #fff)" d="M22.964 9.997c-0.243 0-0.493-0.096-0.678-0.282-0.378-0.378-0.378-0.986 0-1.357l1.421-1.421c0.378-0.378 0.986-0.378 1.357 0 0.378 0.378 0.378 0.986 0 1.357l-1.421 1.421c-0.186 0.186-0.435 0.282-0.678 0.282z"></path>
<path fill="#fff" style="fill: var(--color1, #fff)" d="M7.616 25.344c-0.243 0-0.493-0.096-0.678-0.282-0.378-0.378-0.378-0.986 0-1.357l1.421-1.421c0.378-0.378 0.986-0.378 1.357 0 0.378 0.378 0.378 0.986 0 1.357l-1.421 1.421c-0.186 0.186-0.435 0.282-0.678 0.282z"></path>
<path fill="#fff" style="fill: var(--color1, #fff)" d="M24.384 25.344c-0.243 0-0.493-0.096-0.678-0.282l-1.421-1.421c-0.378-0.378-0.378-0.986 0-1.357 0.378-0.378 0.986-0.378 1.357 0l1.421 1.421c0.378 0.378 0.378 0.986 0 1.357-0.186 0.186-0.435 0.282-0.678 0.282z"></path>
<path fill="#fff" style="fill: var(--color1, #fff)" d="M9.037 9.997c-0.243 0-0.493-0.096-0.678-0.282l-1.421-1.421c-0.378-0.378-0.378-0.986 0-1.357 0.378-0.378 0.986-0.378 1.357 0l1.421 1.421c0.378 0.378 0.378 0.986 0 1.357-0.186 0.186-0.435 0.282-0.678 0.282z"></path>
</symbol>
<symbol id="icon-protection" viewBox="0 0 32 32">
<path fill="#fff" style="fill: var(--color1, #fff)" d="M16 31.398c-0.083 0-0.166-0.013-0.243-0.038-0.166-0.058-4.179-1.376-7.859-4.909-3.757-3.61-4.275-6.893-4.275-9.901v-10.227c0-0.429 0.333-0.774 0.762-0.8 0.019 0 2.374-0.141 5.274-1.402 3.091-1.344 5.843-3.341 5.875-3.36 0.282-0.205 0.659-0.205 0.941 0 0.026 0.019 2.79 2.022 5.875 3.36 2.918 1.267 5.248 1.402 5.274 1.402 0.422 0.019 0.762 0.371 0.762 0.8v10.221c0 3.008-0.518 6.291-4.275 9.901-3.68 3.539-7.686 4.858-7.859 4.909-0.083 0.032-0.166 0.045-0.25 0.045zM5.222 7.040v9.504c0 2.477 0.294 5.395 3.782 8.749 2.906 2.79 6.099 4.115 6.995 4.454 0.896-0.339 4.090-1.664 6.995-4.454 3.488-3.354 3.782-6.278 3.782-8.749v-9.504c-0.998-0.141-2.88-0.506-5.069-1.453-2.515-1.094-4.762-2.554-5.709-3.206-0.947 0.646-3.194 2.112-5.709 3.206-2.182 0.947-4.070 1.318-5.069 1.453z"></path>
<path fill="#fff" style="fill: var(--color1, #fff)" d="M16 25.978c-0.083 0-0.166-0.013-0.243-0.038-0.109-0.032-2.694-0.883-5.056-3.155-2.445-2.349-2.778-4.48-2.778-6.438v-6.432c0-0.429 0.333-0.774 0.762-0.8 0.013 0 1.446-0.090 3.213-0.858 1.914-0.832 3.622-2.067 3.635-2.080 0.282-0.205 0.659-0.205 0.941 0 0.019 0.013 1.728 1.254 3.635 2.080 1.786 0.774 3.2 0.858 3.213 0.858 0.422 0.019 0.762 0.371 0.762 0.8v6.426c0 1.958-0.339 4.096-2.777 6.438-2.362 2.272-4.947 3.123-5.056 3.155-0.083 0.032-0.166 0.045-0.25 0.045zM9.523 10.624v5.722c0 1.498 0.179 3.258 2.285 5.286 1.69 1.619 3.539 2.438 4.192 2.694 0.653-0.256 2.502-1.075 4.192-2.694 2.112-2.029 2.285-3.795 2.285-5.286v-5.722c-0.685-0.115-1.773-0.358-3.008-0.896-1.466-0.64-2.79-1.472-3.469-1.926-0.678 0.454-2.003 1.293-3.469 1.926-1.235 0.531-2.323 0.781-3.008 0.896z"></path>
<path fill="#fff" style="fill: var(--color1, #fff)" d="M16.364 12.531l0.691 1.402c0.058 0.122 0.173 0.205 0.307 0.224l1.542 0.224c0.333 0.051 0.467 0.461 0.224 0.698l-1.12 1.088c-0.096 0.096-0.141 0.23-0.115 0.358l0.262 1.536c0.058 0.333-0.294 0.589-0.589 0.429l-1.376-0.723c-0.122-0.064-0.262-0.064-0.378 0l-1.389 0.73c-0.301 0.16-0.646-0.096-0.589-0.429l0.262-1.536c0.026-0.134-0.019-0.269-0.115-0.358l-1.12-1.088c-0.243-0.237-0.109-0.646 0.224-0.698l1.542-0.224c0.134-0.019 0.25-0.102 0.307-0.224l0.691-1.402c0.154-0.307 0.589-0.307 0.736-0.006z"></path>
</symbol>
<symbol id="icon-puzzle" viewBox="0 0 32 32">
<path fill="#fff" style="fill: var(--color1, #fff)" d="M20.214 31.75h-16.857c-1.713 0-3.107-1.394-3.107-3.107v-5.439c0-0.651 0.415-1.234 1.033-1.451 0.613-0.215 1.27-0.031 1.673 0.472 0.78 0.972 2.037 1.399 3.28 1.115 1.146-0.262 2.092-1.209 2.354-2.355 0.229-1.006 0.012-1.991-0.611-2.773-0.614-0.77-1.531-1.212-2.515-1.212-0.98 0-1.894 0.439-2.508 1.204-0.403 0.502-1.059 0.687-1.672 0.471-0.619-0.218-1.034-0.801-1.034-1.452v-5.438c0-1.713 1.394-3.107 3.107-3.107l4.311 0c-1.006-1.295-1.353-2.988-0.903-4.642 0.493-1.814 2.002-3.249 3.843-3.656 1.582-0.35 3.201 0.021 4.441 1.017s1.951 2.479 1.951 4.068c0 1.176-0.391 2.301-1.098 3.214l4.312-0c1.713 0 3.107 1.394 3.107 3.107v4.311c1.294-1.007 2.988-1.353 4.642-0.904 1.814 0.493 3.249 2.001 3.657 3.842 0.35 1.582-0.020 3.201-1.016 4.441s-2.479 1.952-4.068 1.952c-1.177 0-2.301-0.391-3.214-1.098v4.313c0 1.713-1.394 3.107-3.107 3.107zM2.25 24.322v4.321c0 0.611 0.497 1.107 1.107 1.107h16.857c0.61 0 1.107-0.497 1.107-1.107v-5.436c0-0.65 0.393-1.212 1.001-1.431 0.614-0.221 1.283-0.038 1.702 0.468 0.624 0.752 1.54 1.184 2.511 1.184 0.98 0 1.894-0.439 2.508-1.204 0.623-0.777 0.845-1.756 0.623-2.757-0.249-1.124-1.123-2.044-2.229-2.345-1.273-0.347-2.58 0.059-3.41 1.057-0.422 0.507-1.093 0.691-1.709 0.468-0.606-0.22-0.998-0.781-0.998-1.43v-5.434c0-0.611-0.497-1.107-1.107-1.107l-5.436 0c-0.65 0-1.212-0.393-1.431-1.001-0.222-0.614-0.038-1.282 0.468-1.702 0.753-0.625 1.184-1.54 1.184-2.511 0-0.98-0.439-1.894-1.204-2.508-0.777-0.623-1.755-0.844-2.757-0.623-1.124 0.249-2.045 1.124-2.345 2.229-0.346 1.273 0.059 2.58 1.057 3.411 0.507 0.422 0.691 1.093 0.468 1.708-0.219 0.606-0.78 0.998-1.429 0.998l-5.433-0c-0.61 0-1.107 0.497-1.107 1.107v4.321c0.908-0.713 2.032-1.107 3.214-1.107 1.596 0 3.082 0.716 4.078 1.965s1.36 2.876 0.998 4.464c-0.435 1.908-1.95 3.423-3.858 3.86-1.593 0.364-3.204-0.004-4.432-0.968z"></path>
</symbol>
<symbol id="icon-agree" viewBox="0 0 32 32">
<path fill="#fff" style="fill: var(--color1, #fff); stroke: var(--color1, #fff)" stroke="#fff" stroke-linejoin="miter" stroke-linecap="butt" stroke-miterlimit="4" stroke-width="0.5647" d="M15.99 6.73c-5.111 0-9.263 4.161-9.263 9.267s4.152 9.267 9.263 9.267c5.111 0 9.263-4.154 9.263-9.267s-4.152-9.267-9.263-9.267zM15.99 23.985c-4.401 0-7.985-3.585-7.985-7.989s3.584-7.989 7.985-7.989c4.401 0 7.985 3.585 7.985 7.989s-3.584 7.989-7.985 7.989z"></path>
<path fill="#fff" style="fill: var(--color1, #fff); stroke: var(--color1, #fff)" stroke="#fff" stroke-linejoin="miter" stroke-linecap="butt" stroke-miterlimit="4" stroke-width="0.5647" d="M19.504 12.916l-5.088 5.166-2.161-3.002c-0.204-0.284-0.572-0.323-0.824-0.092s-0.286 0.647-0.082 0.93l2.547 3.536c0.099 0.139 0.245 0.224 0.409 0.244h0.047c0.146 0 0.28-0.059 0.391-0.172l5.543-5.628c0.24-0.244 0.257-0.66 0.047-0.93s-0.59-0.297-0.829-0.053z"></path>
<path fill="#fff" style="fill: var(--color1, #fff); stroke: var(--color1, #fff)" stroke="#fff" stroke-linejoin="miter" stroke-linecap="butt" stroke-miterlimit="4" stroke-width="0.5647" d="M30.161 13.867l-0.571-0.571c-0.422-0.422-0.585-1.041-0.422-1.612l0.218-0.776c0.449-1.599-0.483-3.259-2.081-3.708l-0.571-0.163c-0.585-0.163-1.034-0.639-1.163-1.238l-0.129-0.578c-0.17-0.782-0.632-1.456-1.312-1.891s-1.482-0.578-2.264-0.408l-1.292 0.286c-0.551 0.116-1.115-0.048-1.51-0.442l-0.945-0.946c-0.564-0.565-1.326-0.878-2.128-0.878s-1.557 0.313-2.128 0.878l-0.571 0.571c-0.422 0.422-1.040 0.585-1.612 0.422l-0.775-0.218c-1.598-0.449-3.257 0.483-3.706 2.082l-0.163 0.571c-0.163 0.585-0.639 1.034-1.238 1.163l-0.578 0.129c-0.782 0.17-1.455 0.633-1.89 1.313s-0.578 1.483-0.408 2.265l0.286 1.306c0.122 0.551-0.048 1.116-0.442 1.51l-0.945 0.946c-1.17 1.17-1.17 3.082 0 4.252l0.571 0.571c0.422 0.422 0.585 1.041 0.422 1.612l-0.218 0.776c-0.449 1.599 0.483 3.259 2.081 3.708l0.571 0.163c0.585 0.163 1.034 0.639 1.163 1.238l0.129 0.578c0.17 0.782 0.632 1.456 1.312 1.891 0.673 0.435 1.482 0.578 2.264 0.408l1.306-0.286c0.551-0.123 1.115 0.048 1.51 0.442l0.945 0.946c0.571 0.565 1.326 0.878 2.128 0.878s1.557-0.313 2.128-0.878l0.571-0.571c0.422-0.422 1.040-0.585 1.612-0.422l0.775 0.218c1.598 0.449 3.257-0.483 3.706-2.082l0.163-0.571c0.163-0.585 0.639-1.034 1.238-1.163l0.578-0.129c1.618-0.354 2.652-1.953 2.305-3.579l-0.286-1.306c-0.116-0.551 0.048-1.116 0.442-1.51l0.945-0.946c0.564-0.571 0.877-1.327 0.877-2.129s-0.326-1.551-0.898-2.123zM29.202 17.16l-0.945 0.946c-0.728 0.728-1.027 1.762-0.809 2.762l0.286 1.306c0.19 0.884-0.374 1.769-1.258 1.959l-0.578 0.129c-1.088 0.238-1.958 1.048-2.258 2.123l-0.163 0.571c-0.122 0.422-0.394 0.776-0.782 0.993-0.381 0.218-0.83 0.265-1.251 0.15l-0.775-0.218c-1.047-0.293-2.169 0-2.938 0.769l-0.571 0.571c-0.313 0.313-0.728 0.483-1.163 0.483-0.442 0-0.85-0.17-1.163-0.483l-0.952-0.952c-0.571-0.571-1.333-0.884-2.122-0.884-0.211 0-0.428 0.020-0.639 0.068l-1.306 0.286c-0.428 0.095-0.87 0.014-1.238-0.225s-0.626-0.605-0.721-1.034l-0.129-0.578c-0.238-1.088-1.047-1.959-2.122-2.259l-0.571-0.163c-0.87-0.245-1.387-1.157-1.136-2.034l0.218-0.776c0.292-1.048 0-2.17-0.768-2.939l-0.571-0.571c-0.313-0.313-0.483-0.728-0.483-1.163s0.17-0.85 0.483-1.163l0.945-0.946c0.728-0.728 1.027-1.762 0.809-2.762l-0.286-1.306c-0.095-0.429-0.014-0.871 0.224-1.238s0.605-0.626 1.034-0.721l0.578-0.129c1.088-0.238 1.958-1.048 2.258-2.123l0.163-0.571c0.245-0.871 1.156-1.388 2.033-1.136l0.775 0.218c1.047 0.293 2.169 0 2.938-0.769l0.571-0.571c0.313-0.313 0.728-0.483 1.163-0.483 0.442 0 0.85 0.17 1.163 0.483l0.952 0.946c0.728 0.728 1.761 1.027 2.761 0.81l1.306-0.286c0.428-0.095 0.87-0.014 1.238 0.224s0.626 0.606 0.721 1.034l0.129 0.578c0.238 1.088 1.047 1.959 2.122 2.259l0.571 0.163c0.87 0.245 1.387 1.157 1.136 2.034l-0.218 0.776c-0.292 1.048 0 2.17 0.768 2.939l0.571 0.571c0.313 0.313 0.483 0.728 0.483 1.163s-0.177 0.857-0.483 1.17z"></path>
</symbol>
<symbol id="icon-arrow" viewBox="0 0 31 32">
<path fill="#fff" style="fill: var(--color1, #fff); stroke: var(--color1, #fff)" stroke="#fff" stroke-linejoin="miter" stroke-linecap="butt" stroke-miterlimit="4" stroke-width="0.9143" d="M20.777 9.884h-6.951c-0.242 0-0.438 0.195-0.438 0.438s0.196 0.438 0.438 0.438h5.89l-10.163 10.163c-0.171 0.171-0.171 0.45 0 0.621s0.45 0.171 0.621 0l10.163-10.163v5.89c0 0.242 0.195 0.438 0.438 0.438 0.124 0 0.23-0.050 0.31-0.13s0.127-0.189 0.13-0.31v-6.951c0-0.118-0.047-0.227-0.13-0.31s-0.192-0.124-0.307-0.121z"></path>
</symbol>
<symbol id="icon-ideas" viewBox="0 0 32 32">
<path d="M27.819 1.92h-23.631c-2.309 0-4.188 1.896-4.188 4.224v19.719c0 2.328 1.88 4.217 4.181 4.217h23.637c2.309 0 4.181-1.896 4.181-4.217v-19.719c0.007-2.328-1.873-4.224-4.181-4.224zM30.645 25.856c0 1.573-1.267 2.843-2.819 2.843h-23.637c-1.559 0.007-2.826-1.271-2.826-2.843v-19.712c0-1.573 1.267-2.85 2.826-2.85h23.637c1.559 0 2.819 1.278 2.819 2.843v19.719z"></path>
<path d="M4.331 8.113c0.577 0 1.045-0.468 1.045-1.045s-0.468-1.045-1.045-1.045c-0.577 0-1.045 0.468-1.045 1.045s0.468 1.045 1.045 1.045z"></path>
<path d="M7.572 8.113c0.577 0 1.045-0.468 1.045-1.045s-0.468-1.045-1.045-1.045c-0.577 0-1.045 0.468-1.045 1.045s0.468 1.045 1.045 1.045z"></path>
<path d="M10.821 8.113c0.577 0 1.045-0.468 1.045-1.045s-0.468-1.045-1.045-1.045c-0.577 0-1.045 0.468-1.045 1.045s0.468 1.045 1.045 1.045z"></path>
<path d="M22.668 19.162c0-0.007 0-0.020 0-0.027 0.007-0.047 0.007-0.1 0.013-0.146 0-0.013 0-0.027 0.007-0.040 0.007-0.047 0.007-0.093 0.007-0.14 0-0.013 0-0.033 0-0.047 0-0.047 0.007-0.093 0.007-0.133 0-0.013 0-0.033 0-0.047 0-0.060 0-0.12 0-0.18s0-0.12 0-0.18c0-0.013 0-0.033 0-0.047 0-0.047 0-0.093-0.007-0.133 0-0.013 0-0.033 0-0.047 0-0.047-0.007-0.093-0.007-0.14 0-0.013 0-0.027 0-0.040-0.007-0.047-0.007-0.1-0.013-0.146 0-0.007 0-0.020 0-0.027-0.007-0.053-0.013-0.107-0.020-0.16 0-0.007 0-0.013 0-0.013-0.073-0.592-0.226-1.178-0.446-1.737-0.007-0.013-0.013-0.033-0.020-0.047-1.085-2.709-3.734-4.619-6.822-4.619s-5.737 1.917-6.822 4.619c-0.007 0.013-0.013 0.033-0.020 0.047-0.22 0.559-0.366 1.145-0.446 1.737v0.013c-0.007 0.053-0.013 0.107-0.020 0.16v0.027c-0.007 0.047-0.007 0.1-0.013 0.146v0.040c-0.007 0.047-0.007 0.093-0.007 0.14v0.047c0 0.047-0.007 0.093-0.007 0.133v0.453c0 0.047 0 0.093 0.007 0.133v0.047c0 0.047 0.007 0.093 0.007 0.133 0 0.013 0 0.027 0.007 0.040 0.007 0.047 0.007 0.1 0.013 0.146v0.033c0.007 0.053 0.013 0.107 0.020 0.16v0.020c0.007 0.060 0.013 0.113 0.027 0.173 0.080 0.532 0.22 1.058 0.419 1.564 0.007 0.013 0.013 0.033 0.020 0.047 1.085 2.702 3.734 4.619 6.822 4.619s5.737-1.917 6.822-4.619c0.007-0.013 0.013-0.033 0.020-0.047 0.22-0.559 0.366-1.145 0.446-1.737 0-0.007 0-0.013 0-0.013-0.007-0.060 0-0.113 0.007-0.166zM21.377 18.596v0.060c0 0.053-0.007 0.107-0.007 0.16v0.047c-0.007 0.060-0.013 0.12-0.013 0.18 0 0.027-0.007 0.060-0.013 0.087-0.007 0.033-0.007 0.067-0.013 0.1-0.007 0.060-0.020 0.12-0.027 0.18-0.007 0.020-0.007 0.040-0.013 0.067-0.007 0.040-0.013 0.080-0.027 0.126 0 0.013-0.007 0.027-0.007 0.040-0.040 0.18-0.087 0.359-0.14 0.539h-2.682c0.053-0.572 0.087-1.165 0.087-1.77s-0.027-1.198-0.087-1.77h2.682c0.053 0.173 0.1 0.353 0.14 0.539 0 0.013 0.007 0.027 0.007 0.040 0.007 0.040 0.013 0.087 0.027 0.126 0.007 0.020 0.007 0.040 0.007 0.060 0.013 0.060 0.020 0.126 0.027 0.186 0.007 0.033 0.007 0.067 0.013 0.1 0.007 0.027 0.007 0.060 0.013 0.087 0.007 0.060 0.013 0.12 0.013 0.173v0.047c0.007 0.053 0.007 0.107 0.007 0.16v0.060c0 0.067 0.007 0.133 0.007 0.2v0.18zM15.36 24.413c-0.426 0-1.132-1.012-1.531-2.915h3.062c-0.399 1.904-1.105 2.915-1.531 2.915zM13.629 20.167c-0.060-0.539-0.093-1.132-0.093-1.77s0.033-1.231 0.093-1.77h3.461c0.060 0.539 0.093 1.132 0.093 1.77s-0.033 1.231-0.093 1.77h-3.461zM9.469 19.634c0-0.013-0.007-0.027-0.007-0.047-0.007-0.040-0.013-0.080-0.027-0.12-0.007-0.020-0.007-0.047-0.013-0.067-0.007-0.060-0.020-0.113-0.027-0.173-0.007-0.033-0.007-0.067-0.013-0.1-0.007-0.027-0.007-0.060-0.007-0.087-0.007-0.060-0.013-0.12-0.013-0.18 0-0.013 0-0.027 0-0.047-0.007-0.053-0.007-0.107-0.007-0.16 0-0.020 0-0.040 0-0.060 0-0.067-0.007-0.133-0.007-0.2s0-0.133 0.007-0.2c0-0.020 0-0.040 0-0.060 0-0.053 0.007-0.107 0.007-0.16 0-0.013 0-0.033 0-0.047 0.007-0.060 0.013-0.12 0.013-0.173 0-0.027 0.007-0.060 0.013-0.087 0.007-0.033 0.007-0.067 0.013-0.1 0.007-0.060 0.020-0.126 0.027-0.186 0-0.020 0.007-0.040 0.007-0.060 0.007-0.040 0.013-0.087 0.027-0.126 0-0.013 0.007-0.027 0.007-0.040 0.040-0.18 0.087-0.359 0.14-0.539h2.682c-0.053 0.572-0.087 1.165-0.087 1.77s0.027 1.198 0.087 1.77h-2.682c-0.053-0.166-0.1-0.346-0.14-0.526zM15.36 12.379c0.426 0 1.132 1.012 1.531 2.915h-3.062c0.399-1.904 1.105-2.915 1.531-2.915zM20.511 15.294h-2.276c-0.126-0.679-0.293-1.305-0.499-1.857-0.093-0.253-0.193-0.479-0.293-0.686 1.291 0.479 2.37 1.384 3.068 2.543zM13.27 12.752c-0.1 0.206-0.2 0.433-0.293 0.686-0.206 0.552-0.373 1.178-0.499 1.857h-2.276c0.706-1.158 1.784-2.063 3.068-2.543zM10.208 21.498h2.27c0.126 0.679 0.293 1.305 0.499 1.857 0.093 0.253 0.193 0.479 0.293 0.686-1.285-0.479-2.363-1.384-3.062-2.543zM17.45 24.040c0.1-0.206 0.2-0.433 0.293-0.686 0.206-0.552 0.373-1.178 0.499-1.857h2.27c-0.699 1.158-1.777 2.063-3.062 2.543z"></path>
</symbol>
<symbol id="icon-right" viewBox="0 0 49 32">
<path stroke-linejoin="miter" stroke-linecap="butt" stroke-miterlimit="4" stroke-width="1.8824" d="M46.504 15.23l-13.493-13.493c-0.47-0.47-1.229-0.47-1.699 0s-0.47 1.229 0 1.699l11.433 11.433h-39.454c-0.663 0-1.205 0.542-1.205 1.205s0.542 1.205 1.205 1.205h39.454l-11.433 11.433c-0.47 0.47-0.47 1.229 0 1.699 0.241 0.241 0.542 0.349 0.855 0.349s0.614-0.12 0.855-0.349l13.493-13.493c0.229-0.229 0.349-0.53 0.349-0.855s-0.133-0.614-0.361-0.831z"></path>
</symbol>
<symbol id="icon-left" viewBox="0 0 49 32">
<path stroke-linejoin="miter" stroke-linecap="butt" stroke-miterlimit="4" stroke-width="1.8824" d="M2.437 15.23l13.493-13.493c0.47-0.47 1.229-0.47 1.699 0s0.47 1.229 0 1.699l-11.433 11.433h39.454c0.663 0 1.205 0.542 1.205 1.205s-0.542 1.205-1.205 1.205h-39.454l11.433 11.433c0.47 0.47 0.47 1.229 0 1.699-0.241 0.241-0.542 0.349-0.855 0.349s-0.614-0.12-0.855-0.349l-13.493-13.493c-0.229-0.229-0.349-0.53-0.349-0.855s0.133-0.614 0.361-0.831z"></path>
</symbol>
<symbol id="icon-laptop" viewBox="0 0 55 32">
<path d="M49.824 30.45h-44.288v-28.66c0-0.713 0.578-1.292 1.292-1.292h41.704c0.713 0 1.292 0.578 1.292 1.292v28.66z"></path>
<path d="M50.166 30.45h-44.971v-28.957c0-0.723 0.586-1.308 1.308-1.308h42.354c0.723 0 1.308 0.586 1.308 1.308v28.957z"></path>
<path d="M48.997 2.064h-42.685v26.777h42.685v-26.777z"></path>
<path d="M0.185 30.455v0.327h22.146c0.218 0 0.435 0.031 0.647 0.082 0.025 0.006 0.050 0.011 0.075 0.016v-0.424l-22.868-0z"></path>
<path d="M32.253 30.455v0.424c-0.094 0.018-0.19 0.027-0.287 0.027h-8.626c-0.097 0-0.192-0.009-0.287-0.027v-0.424h9.2z"></path>
<path d="M22.445 30.782c0 0 0.406 0.028 0.609 0.095h9.201c0 0 0.271-0.068 0.541-0.095h22.283c0.008 0 0.009 0.011 0.002 0.013-1.919 0.594-3.916 0.896-5.924 0.896h-43.006c-2.009 0-4.006-0.302-5.924-0.896-0.007-0.002-0.006-0.013 0.002-0.013h22.216z"></path>
<path d="M55.121 30.455v0.327h-22.145c-0.218 0-0.435 0.031-0.647 0.082-0.025 0.006-0.050 0.011-0.076 0.016v-0.424l22.868-0z"></path>
</symbol>
<symbol id="icon-cinema" viewBox="0 0 32 32">
<path stroke-linejoin="round" stroke-linecap="round" stroke-miterlimit="4" stroke-width="0.7547" d="M2.667 16c0 7.364 5.969 13.333 13.333 13.333s13.333-5.969 13.333-13.333c0-7.364-5.969-13.333-13.333-13.333s-13.333 5.969-13.333 13.333zM2.667 16v13.333"></path>
</symbol>
<symbol id="icon-cinema-next" viewBox="0 0 32 32">
<path stroke-linejoin="round" stroke-linecap="round" stroke-miterlimit="4" stroke-width="1.0811" d="M5.242 20.324c1.147 0 2.247-0.456 3.058-1.267s1.267-1.911 1.267-3.058-0.456-2.247-1.267-3.058c-0.811-0.811-1.911-1.267-3.058-1.267s-2.247 0.456-3.058 1.267c-0.811 0.811-1.267 1.911-1.267 3.058s0.456 2.247 1.267 3.058c0.811 0.811 1.911 1.267 3.058 1.267zM26.863 20.324c1.147 0 2.247-0.456 3.058-1.267s1.267-1.911 1.267-3.058-0.456-2.247-1.267-3.058c-0.811-0.811-1.911-1.267-3.058-1.267s-2.247 0.456-3.058 1.267c-0.811 0.811-1.267 1.911-1.267 3.058s0.456 2.247 1.267 3.058c0.811 0.811 1.911 1.267 3.058 1.267zM16.052 9.514c1.147 0 2.247-0.456 3.058-1.267s1.267-1.911 1.267-3.058-0.456-2.247-1.267-3.058c-0.811-0.811-1.911-1.267-3.058-1.267s-2.247 0.456-3.058 1.267c-0.811 0.811-1.267 1.911-1.267 3.058s0.456 2.247 1.267 3.058c0.811 0.811 1.911 1.267 3.058 1.267zM16.052 31.135c1.147 0 2.247-0.456 3.058-1.267s1.267-1.911 1.267-3.058-0.456-2.247-1.267-3.058c-0.811-0.811-1.911-1.267-3.058-1.267s-2.247 0.456-3.058 1.267c-0.811 0.811-1.267 1.911-1.267 3.058s0.456 2.247 1.267 3.058c0.811 0.811 1.911 1.267 3.058 1.267z"></path>
</symbol>
<symbol id="icon-lucide" viewBox="0 0 32 32">
<path fill="none" stroke="#fff" style="stroke: var(--color1, #fff)" stroke-linejoin="round" stroke-linecap="round" stroke-miterlimit="4" stroke-width="2.2857" d="M26.667 10.667h-21.333c-0.736 0-1.333 0.597-1.333 1.333v2.667c0 0.736 0.597 1.333 1.333 1.333h21.333c0.736 0 1.333-0.597 1.333-1.333v-2.667c0-0.736-0.597-1.333-1.333-1.333z"></path>
<path fill="none" stroke="#fff" style="stroke: var(--color1, #fff)" stroke-linejoin="round" stroke-linecap="round" stroke-miterlimit="4" stroke-width="2.2857" d="M16 10.667v17.333M16 10.667c-0.482-1.987-1.313-3.687-2.383-4.876s-2.331-1.813-3.617-1.791c-0.884 0-1.732 0.351-2.357 0.976s-0.976 1.473-0.976 2.357c0 0.884 0.351 1.732 0.976 2.357s1.473 0.976 2.357 0.976M16 10.667c0.482-1.987 1.313-3.687 2.383-4.876s2.331-1.813 3.617-1.791c0.884 0 1.732 0.351 2.357 0.976s0.976 1.473 0.976 2.357c0 0.884-0.351 1.732-0.976 2.357s-1.473 0.976-2.357 0.976M25.333 16v9.333c0 0.707-0.281 1.386-0.781 1.886s-1.178 0.781-1.886 0.781h-13.333c-0.707 0-1.386-0.281-1.886-0.781s-0.781-1.178-0.781-1.886v-9.333"></path>
</symbol>
 <defs>
    <linearGradient id="star-gradient-filled" x1="0%" y1="0%" x2="100%" y2="100%" gradientTransform="rotate(30)">
      <stop offset="0%" stop-color="#9624e2"/>
      <stop offset="100%" stop-color="#02079d"/>
    </linearGradient>
    <linearGradient id="star-gradient-outline" x1="0%" y1="0%" x2="100%" y2="100%" gradientTransform="rotate(30)">
      <stop offset="0%" stop-color="#9624e2"/>
      <stop offset="100%" stop-color="#02079d"/>
    </linearGradient>
  </defs>

 <symbol id="icon-star-filled" viewBox="0 0 34 32">
    <path
      fill="url(#star-gradient-filled)"
      stroke-linejoin="miter"
      stroke-linecap="butt"
      stroke-miterlimit="4"
      stroke-width="1.5238"
      d="M19.972 11.323c0.204 0.628 0.789 1.054 1.449 1.054h10.387l-8.403 6.106c-0.467 0.34-0.697 0.908-0.61 1.466l0.057 0.237 
         3.21 9.879-8.403-6.106c-0.467-0.34-1.080-0.383-1.583-0.128l-0.208 0.128-8.403 6.106 
         3.21-9.879c0.178-0.549 0.030-1.145-0.368-1.545l-0.186-0.158-8.403-6.106h10.387 
         c0.578 0 1.098-0.326 1.356-0.827l0.094-0.226 3.21-9.878 3.21 9.878z"
    />
  </symbol>

  <symbol id="icon-star-outline" viewBox="0 0 34 32">
    <path
      stroke="url(#star-gradient-outline)"
      fill="none"
      stroke-linejoin="miter"
      stroke-linecap="butt"
      stroke-miterlimit="4"
      stroke-width="1.5238"
      d="M19.972 11.323c0.204 0.628 0.789 1.054 1.449 1.054h10.387l-8.403 6.106c-0.467 0.34-0.697 0.908-0.61 1.466l0.057 0.237 
         3.21 9.879-8.403-6.106c-0.467-0.34-1.080-0.383-1.583-0.128l-0.208 0.128-8.403 6.106 
         3.21-9.879c0.178-0.549 0.030-1.145-0.368-1.545l-0.186-0.158-8.403-6.106h10.387 
         c0.578 0 1.098-0.326 1.356-0.827l0.094-0.226 3.21-9.878 3.21 9.878z"
    />
  </symbol>
<symbol id="icon-launch" viewBox="0 0 32 32">
<path d="M28 21.19c-0.14-1-1.42-2.080-2.050-2.52l-0.67-0.47c-0.68-0.51-0.43-0.74-0.83-0.74 0-1 0.13-1.93 0.13-2.8v-1.2c0-0.39-0.080-0.8-0.14-1.2-0.14-0.87-0.33-1.75-0.57-2.77-0.029-0.189-0.191-0.333-0.386-0.333-0.072 0-0.14 0.020-0.198 0.054l0.002-0.001c-0.111 0.068-0.184 0.188-0.184 0.325 0 0.023 0.002 0.045 0.006 0.067l-0-0.002c0.070 1.060 0.070 2 0.11 2.85 0 0.64 0 1.26 0.11 1.89 0.11 1 0.3 2 0.48 3.14h-1.93c-1.2-0.050-2.41-0.18-3.61-0.26-0.82-0.050-1.63-0.080-2.44-0.1-1 0-1.95 0-2.92 0.11-1.45 0.11-2.88 0.3-4.33 0.48-0.188 0-0.34 0.152-0.34 0.34s0.152 0.34 0.34 0.34h2.88c1.43 0 2.85 0 4.29 0.080 0.86 0 1.72 0.050 2.59 0.070s1.74 0 2.61 0c1 0 2.060-0.080 3.070-0.18l0.75 0.59 0.67 0.52c0.363 0.262 0.698 0.56 1 0.89l-4.13-0.36h-4.080c-2 0-4.070 0.12-6.1 0.12-1.68 0.060-3.38 0.29-5.070 0.35h-1.8c0.197-0.486 0.446-0.905 0.748-1.28l-0.008 0.010 0.68-0.61 1-0.66c0.108-0.058 0.18-0.171 0.18-0.3 0-0.059-0.015-0.114-0.041-0.162l0.001 0.002c-0.061-0.096-0.167-0.158-0.287-0.158-0.026 0-0.051 0.003-0.075 0.008l0.002-0 0.14-1.84c0.070-0.91 0.18-1.81 0.25-2.73s0.15-1.82 0.15-2.75c-0.11-2.34-0.2-1.24 1-1.44l2.37-0.43c0.16-0.051 0.275-0.198 0.275-0.373 0-0.215-0.175-0.39-0.39-0.39-0.016 0-0.031 0.001-0.047 0.003l0.002-0-2.31 0.2c-0.18 0-1-0.070-1.4 0-0.217 0.026-0.404 0.137-0.529 0.298l-0.001 0.002c-0.105 0.175-0.176 0.382-0.199 0.604l-0.001 0.006c-0.070 0.48 0 1.23 0 1.5 0 0.92-0.1 1.84-0.11 2.75s0 1.84 0.070 2.76l0.090 2.23-0.49 0.3-0.81 0.66c-0.648 0.626-1.143 1.406-1.429 2.281l-0.011 0.039c-0.064 0.174-0.1 0.374-0.1 0.583 0 0.582 0.286 1.098 0.725 1.414l0.005 0.004c0.316 0.212 0.691 0.363 1.094 0.428l0.016 0.002c0.51 0.070 1.025 0.098 1.54 0.080l3.28 0.14c2.86 0 5.72 0.17 8.57 0.18 1.24 0 2.48 0 3.72-0.13l2.070-0.32 1.28-0.33 0.85-0.36c0.523-0.201 0.887-0.699 0.887-1.282 0-0.077-0.006-0.152-0.019-0.226l0.001 0.008zM26.68 21.8l-0.7 0.26-1.17 0.26-1.92 0.18h-2.43c-3.27 0-6.54-0.2-9.81-0.17h-3.3c-0.46 0.040-0.92 0.040-1.38 0-0.265-0.034-0.505-0.115-0.72-0.235l0.010 0.005c-0.217-0.156-0.357-0.408-0.357-0.693 0-0.111 0.021-0.216 0.059-0.313l-0.002 0.006v-0.070c0.69 0.1 1.384 0.16 2.080 0.18 1.68 0.060 3.39 0 5.060 0h4.1c2-0.050 4.070-0.19 6.1-0.26h4.63c0.076 0.091 0.122 0.209 0.122 0.338 0 0.244-0.164 0.449-0.388 0.511l-0.004 0.001h0.020z"></path>
<path d="M13.41 7c0.348 0.322 0.726 0.61 1.13 0.86 0.069 0.062 0.16 0.1 0.26 0.1 0.215 0 0.39-0.175 0.39-0.39 0-0.12-0.054-0.228-0.14-0.299l-0.001-0c-0.27-0.24-0.52-0.501-0.75-0.78-0.093-0.116-0.157-0.259-0.179-0.415l-0.001-0.005 0.17-0.26c0.183-0.276 0.421-0.502 0.7-0.665l0.010-0.005c0.308-0.186 0.666-0.331 1.046-0.416l0.024-0.004 0.43-0.070s-0.080 0.1-0.11 0.16c-0.428 0.714-0.772 1.541-0.987 2.418l-0.013 0.062c-0.044 0.157-0.069 0.337-0.069 0.522 0 0.544 0.217 1.037 0.57 1.398l0.77 0.79c0.363 0.372 0.87 0.603 1.431 0.603 0.203 0 0.399-0.030 0.583-0.086l-0.014 0.004c0.946-0.256 1.774-0.626 2.528-1.102l-0.038 0.022c0.080 0 0.15-0.11 0.23-0.15l-0.090 0.51c-0.089 0.404-0.234 0.762-0.429 1.086l0.009-0.016c-0.168 0.3-0.405 0.557-0.69 0.75l-0.26 0.17c-0.161-0.023-0.304-0.087-0.422-0.181l0.002 0.001c-0.282-0.238-0.537-0.483-0.774-0.744l-0.006-0.006c-0.072-0.080-0.175-0.13-0.29-0.13-0.215 0-0.39 0.175-0.39 0.39 0 0.095 0.034 0.183 0.091 0.25l-0-0.001c0.25 0.404 0.538 0.782 0.86 1.13 0.196 0.19 0.437 0.327 0.7 0.4 0.184 0.040 0.375 0.040 0.56 0 0.226-0.046 0.443-0.13 0.64-0.25 0.468-0.279 0.852-0.68 1.11-1.16 0.174-0.477 0.255-0.983 0.24-1.49l-0.080-1c-0.002-0.027-0.004-0.058-0.004-0.090s0.001-0.063 0.004-0.094l-0 0.004c0.674-0.475 1.258-1.009 1.769-1.607l0.011-0.013c0.778-0.947 1.337-2.104 1.582-3.372l0.008-0.048c0.076-0.55 0.076-1.11 0-1.66-0.016-0.523-0.214-0.996-0.532-1.363l0.002 0.003c-0.339-0.295-0.774-0.488-1.252-0.529l-0.008-0.001c-0.139-0.011-0.301-0.016-0.464-0.016-0.416 0-0.822 0.039-1.216 0.113l0.041-0.006c-1.3 0.295-2.433 0.881-3.37 1.688l0.010-0.009c-0.614 0.535-1.151 1.132-1.609 1.788l-0.021 0.032h-0.11l-1-0.12c-0.008-0-0.017-0-0.026-0-0.553 0-1.080 0.11-1.561 0.31l0.027-0.010c-0.507 0.261-0.916 0.65-1.193 1.126l-0.007 0.014c-0.108 0.178-0.191 0.386-0.238 0.607l-0.002 0.013c-0.019 0.083-0.030 0.178-0.030 0.275s0.011 0.192 0.032 0.284l-0.002-0.009c0.081 0.259 0.221 0.495 0.41 0.69zM19.41 2.84c0.81-0.628 1.79-1.078 2.859-1.274l0.041-0.006c0.35-0.060 0.705-0.084 1.060-0.070 0.246-0.020 0.491 0.040 0.7 0.17 0.14 0.216 0.203 0.473 0.18 0.73 0.024 0.364 0.007 0.73-0.050 1.090-0.159 1.113-0.585 2.104-1.212 2.936l0.012-0.016c-0.668 0.875-1.47 1.607-2.383 2.178l-0.037 0.022c-0.627 0.436-1.349 0.799-2.121 1.053l-0.059 0.017c-0.124 0.047-0.268 0.074-0.418 0.074-0.299 0-0.572-0.107-0.784-0.285l0.002 0.002-0.81-0.77c-0.185-0.22-0.298-0.507-0.298-0.821 0-0.158 0.029-0.309 0.081-0.448l-0.003 0.009c0.272-0.828 0.642-1.547 1.106-2.194l-0.016 0.024c0.593-0.939 1.318-1.733 2.159-2.384l0.021-0.016-0.030-0.020zM12.16 10.88c0.095 0.069 0.2 0.123 0.31 0.16l-0.080 0.11c-0.375 0.451-0.708 0.96-0.979 1.505l-0.021 0.045c-0.082 0.203-0.129 0.437-0.129 0.683 0 0.151 0.018 0.299 0.052 0.439l-0.003-0.013c0.035 0.107 0.094 0.197 0.17 0.27l0 0c0.074 0.075 0.164 0.133 0.265 0.169l0.005 0.001c0.409 0.13 0.85 0.116 1.25-0.040 0.587-0.291 1.092-0.624 1.552-1.010l-0.012 0.010 0.11-0.080c0.040 0.113 0.093 0.22 0.16 0.32 0.152 0.302 0.46 0.506 0.816 0.506 0.132 0 0.257-0.028 0.37-0.079l-0.006 0.002c0.421-0.223 0.741-0.592 0.896-1.037l0.004-0.013c0.082-0.234 0.129-0.504 0.129-0.786 0-0.075-0.003-0.15-0.010-0.224l0.001 0.009c-0.041-0.487-0.108-0.927-0.202-1.358l0.012 0.068c-0.022-0.185-0.178-0.327-0.367-0.327-0.026 0-0.051 0.003-0.075 0.008l0.002-0c-0.189 0.024-0.334 0.184-0.334 0.377 0 0.019 0.001 0.037 0.004 0.055l-0-0.002c0.056 0.394 0.086 0.792 0.090 1.19 0 0.004 0 0.008 0 0.013 0 0.229-0.044 0.448-0.124 0.649l0.004-0.012c0 0.090-0.22 0.17-0.32 0.26l-0.050-0.66c-0.079-0.27-0.325-0.464-0.615-0.464-0.062 0-0.122 0.009-0.179 0.025l0.005-0.001-0.28 0.1-0.73 0.42c-0.24 0.15-0.59 0.4-1 0.6h-0.050c0.209-0.392 0.412-0.718 0.631-1.032l-0.021 0.032 0.41-0.75c0.040-0.087 0.074-0.178 0.1-0.27 0.002-0.014 0.004-0.029 0.004-0.045s-0.001-0.031-0.004-0.047l0 0.002c0.012-0.043 0.019-0.093 0.019-0.145 0-0.284-0.212-0.519-0.486-0.555l-0.003-0-0.72 0.040s0-0.050-0.060 0 0 0.1 0 0.090c0-0.010 0.27-0.33 0.42-0.39 0.195-0.084 0.421-0.135 0.658-0.14l0.002-0c0.398 0 0.796 0.027 1.19 0.080 0.016 0.003 0.034 0.004 0.053 0.004 0.172 0 0.314-0.127 0.337-0.292l0-0.002c0.006-0.024 0.009-0.052 0.009-0.080 0-0.19-0.151-0.344-0.339-0.35h-0.001c-0.423-0.090-0.85-0.156-1.28-0.2-0.064-0.005-0.138-0.009-0.213-0.009-0.281 0-0.551 0.043-0.806 0.124l0.019-0.005c-0.433 0.169-0.781 0.478-0.995 0.87l-0.005 0.010c-0.045 0.104-0.071 0.225-0.071 0.352 0 0.357 0.206 0.667 0.506 0.815l0.005 0.002z"></path>
</symbol>
<symbol id="icon-unity" viewBox="0 0 32 32">
<path d="M9.613 24.28c0.040-0.065 0.064-0.144 0.064-0.229 0-0.243-0.197-0.44-0.44-0.44-0.118 0-0.225 0.046-0.304 0.122l0-0c-0.668 0.908-1.702 1.514-2.881 1.599l-0.013 0.001c-1.12-0.015-2.117-0.528-2.782-1.327l-0.005-0.006c-0.364-0.591-0.58-1.307-0.58-2.074 0-0.535 0.105-1.046 0.296-1.513l-0.010 0.027c0.391-1.177 1.476-2.013 2.758-2.027h0.002c0.553-0.016 1.105 0.069 1.627 0.253 0.503 0.187 0.96 0.483 1.333 0.867 0.074 0.101 0.192 0.166 0.326 0.166 0.198 0 0.363-0.143 0.396-0.332l0-0.002c0.003-0.020 0.005-0.042 0.005-0.065 0-0.087-0.028-0.168-0.076-0.234l0.001 0.001c-0.428-0.516-0.963-0.927-1.572-1.202l-0.027-0.011c-0.58-0.277-1.255-0.463-1.967-0.519l-0.020-0.001c-0.089-0.007-0.193-0.011-0.298-0.011-1.748 0-3.238 1.102-3.813 2.649l-0.009 0.028c-0.255 0.595-0.403 1.288-0.403 2.015 0 1.077 0.325 2.078 0.882 2.91l-0.012-0.019c0.171 0.168 0.363 0.312 0.573 0.427-0.411 0.274-0.768 0.573-1.092 0.905l-0.001 0.001c-0.243 0.272-0.453 0.573-0.627 0.893-0.16 0.279-0.308 0.605-0.427 0.945l-0.013 0.042c-0.246 0.704-0.425 1.524-0.504 2.372l-0.003 0.041c-0.004 0.023-0.007 0.050-0.007 0.077 0 0.243 0.197 0.44 0.44 0.44 0.028 0 0.056-0.003 0.083-0.008l-0.003 0c0.183-0.037 0.321-0.188 0.34-0.374l0-0.002c0.228-0.701 0.513-1.384 0.853-2.040l0.44-0.8c0.147-0.253 0.307-0.507 0.467-0.76 0.276-0.416 0.573-0.816 0.893-1.2 0.633 0.343 1.385 0.545 2.185 0.545 0.17 0 0.337-0.009 0.502-0.027l-0.020 0.002c1.436-0.187 2.659-0.971 3.429-2.090l0.011-0.017zM31.56 28.12c-0.132-0.382-0.28-0.708-0.456-1.016l0.016 0.030c-0.185-0.339-0.393-0.632-0.631-0.898l0.004 0.004c-0.325-0.334-0.683-0.632-1.069-0.892l-0.024-0.015c0.189-0.136 0.36-0.297 0.507-0.48 0.537-0.809 0.856-1.802 0.856-2.87 0-0.715-0.143-1.397-0.403-2.017l0.013 0.035c-0.584-1.575-2.075-2.678-3.822-2.678-0.105 0-0.209 0.004-0.312 0.012l0.014-0.001c-0.714 0.048-1.377 0.22-1.983 0.495l0.036-0.015c-0.637 0.286-1.172 0.697-1.594 1.206l-0.006 0.007c-0.061 0.067-0.098 0.156-0.098 0.253 0 0.209 0.169 0.378 0.378 0.378 0.111 0 0.211-0.048 0.28-0.124l0-0c0.366-0.375 0.811-0.67 1.308-0.858l0.025-0.008c0.435-0.154 0.936-0.243 1.459-0.243 0.059 0 0.118 0.001 0.177 0.003l-0.008-0c1.284 0.013 2.369 0.85 2.754 2.006l0.006 0.021c0.193 0.453 0.305 0.979 0.305 1.531 0 0.743-0.202 1.438-0.555 2.034l0.010-0.019c-0.677 0.754-1.655 1.227-2.743 1.227-0.015 0-0.031-0-0.046-0l0.002 0c-1.175-0.058-2.207-0.626-2.887-1.485l-0.006-0.008c-0.079-0.076-0.186-0.122-0.304-0.122-0.243 0-0.44 0.197-0.44 0.44 0 0.085 0.024 0.163 0.065 0.231l-0.001-0.002c0.79 1.162 2.041 1.959 3.483 2.131l0.023 0.002c0.127 0.012 0.276 0.019 0.425 0.019 0.796 0 1.545-0.2 2.2-0.552l-0.025 0.012c0.32 0.384 0.617 0.784 0.893 1.2 0.16 0.253 0.32 0.507 0.467 0.76l0.44 0.8c0.339 0.647 0.624 1.32 0.853 2.013 0.035 0.203 0.21 0.355 0.421 0.355 0.030 0 0.060-0.003 0.089-0.009l-0.003 0c0.201-0.043 0.349-0.22 0.349-0.431 0-0.017-0.001-0.035-0.003-0.051l0 0.002c-0.057-0.882-0.214-1.704-0.46-2.488l0.020 0.074z"></path>
<path d="M22.013 25.413c-0.223-0.405-0.471-0.754-0.752-1.073l0.006 0.006c-0.446-0.503-0.945-0.942-1.492-1.316l-0.028-0.018c1.052-1.013 1.705-2.434 1.705-4.007 0-0.185-0.009-0.369-0.027-0.55l0.002 0.023c-0.015-2.846-2.325-5.147-5.173-5.147-0.009 0-0.019 0-0.028 0h0.001c-0.061-0.002-0.134-0.004-0.206-0.004-3 0-5.45 2.36-5.593 5.324l-0.001 0.013c-0.002 0.052-0.003 0.113-0.003 0.174 0 1.968 1.184 3.659 2.879 4.4l0.031 0.012c-0.755 0.421-1.469 0.912-2.133 1.467-0.599 0.509-1.116 1.107-1.533 1.773-0.563 0.811-0.9 1.816-0.9 2.899 0 0.356 0.036 0.704 0.106 1.040l-0.006-0.033c0.030 0.211 0.21 0.371 0.427 0.371 0.238 0 0.431-0.193 0.431-0.431 0-0.021-0.002-0.042-0.004-0.062l0 0.002c0.003-1.145 0.427-2.191 1.125-2.992l-0.005 0.005c0.4-0.533 0.867-1.053 1.333-1.56 0.747-0.787 1.493-1.533 2.187-2.133 0.524 0.133 1.060 0.211 1.6 0.227 0.009 0.001 0.019 0.001 0.029 0.001 0.204 0 0.371-0.159 0.385-0.36l0-0.001c0-0.004 0-0.009 0-0.014 0-0.204-0.158-0.372-0.359-0.386l-0.001-0c-2.907-0.267-4.28-2.067-4.32-4 0.395 0.208 0.824 0.339 1.267 0.387 0.094 0.016 0.203 0.025 0.313 0.025s0.219-0.009 0.325-0.026l-0.012 0.002c0.216-0.031 0.427-0.089 0.627-0.173 0.531-0.187 0.98-0.494 1.33-0.89l0.003-0.003s0-0.107 0.067-0.147l0.507 0.267c0.451 0.211 0.925 0.368 1.413 0.467 0.919 0.147 1.855 0.147 2.773 0 0.015 0.13 0.024 0.281 0.024 0.434 0 1.909-1.374 3.497-3.187 3.829l-0.024 0.004c-0.22 0.027-0.389 0.212-0.389 0.437 0 0.015 0.001 0.030 0.002 0.045l-0-0.002c0.026 0.213 0.206 0.377 0.424 0.377 0.020 0 0.039-0.001 0.058-0.004l-0.002 0c0.636-0.052 1.253-0.239 1.813-0.547 0.448 0.489 0.853 1.016 1.213 1.573 0.2 0.307 0.4 0.613 0.587 0.933s0.36 0.653 0.533 1c0.408 0.812 0.737 1.66 0.987 2.533 0.047 0.197 0.221 0.341 0.429 0.341 0.15 0 0.283-0.075 0.362-0.19l0.001-0.001c0.044-0.066 0.070-0.148 0.070-0.235 0-0.031-0.003-0.061-0.010-0.090l0 0.003c-0.13-1.026-0.36-1.954-0.682-2.837l0.029 0.090c-0.156-0.484-0.337-0.899-0.552-1.291l0.019 0.038zM14.32 17.933h-0.64l-0.64 0.093c-0.436 0.12-0.883 0.196-1.333 0.227 0.232-1.017 0.816-1.871 1.614-2.445l0.012-0.008c0.385 0.752 0.886 1.388 1.486 1.914l0.007 0.006c0.010 0.003 0.021 0.004 0.033 0.004s0.023-0.002 0.034-0.005l-0.001 0c-0.165 0.092-0.357 0.166-0.559 0.211l-0.014 0.003zM17.787 17.667c-0.441-0.143-0.811-0.296-1.167-0.475l0.047 0.021c-1.004-0.477-1.852-1.128-2.538-1.924l-0.008-0.010c0.631-0.29 1.368-0.461 2.145-0.467h0.002c0.038-0.001 0.083-0.002 0.127-0.002 1.891 0 3.455 1.401 3.71 3.222l0.002 0.020c-0.84-0.035-1.634-0.174-2.387-0.404l0.067 0.018z"></path>
<path d="M16.613 25.413c0-0.214-0.173-0.387-0.387-0.387s-0.387 0.173-0.387 0.387v0c-0.12 0.48-0.267 0.92-0.347 1.4-0.010 0.092-0.015 0.199-0.015 0.307s0.005 0.215 0.016 0.32l-0.001-0.013c-0.013 0.2-0.013 0.4 0 0.6 0 0.48 0.187 0.92 0.28 1.4 0 0.001 0 0.001 0 0.002 0 0.228 0.184 0.412 0.412 0.412 0.010 0 0.020-0 0.029-0.001l-0.001 0c0 0 0 0 0 0 0.236 0 0.427-0.191 0.427-0.427 0-0.005-0-0.009-0-0.014l0 0.001c0-0.467 0.173-0.907 0.227-1.333 0.013-0.195 0.013-0.392 0-0.587 0.020-0.2 0.020-0.4 0-0.6-0.040-0.56-0.173-0.987-0.253-1.467zM18.36 7.64l-1.613-0.973s-0.4-0.28-0.56-0.36c-0.101-0.051-0.219-0.081-0.345-0.081-0.214 0-0.408 0.087-0.548 0.228l-0 0c-0.507 0.547-1.040 1.053-1.56 1.573-0.8 0.787-1.587 1.547-2.427 2.267-0.866 0.727-1.826 1.45-2.824 2.122l-0.123 0.078c-0.107 0.068-0.177 0.186-0.177 0.32 0 0.208 0.169 0.377 0.377 0.377 0.074 0 0.143-0.021 0.202-0.058l-0.002 0.001c1.531-0.836 2.839-1.693 4.073-2.641l-0.073 0.054c1.174-0.88 2.208-1.753 3.19-2.682l-0.017 0.016 1.653 1 6.8 4.453c0.066 0.041 0.146 0.066 0.232 0.066 0.153 0 0.289-0.079 0.367-0.198l0.001-0.002c0.047-0.068 0.075-0.151 0.075-0.242 0-0.15-0.077-0.281-0.193-0.357l-0.002-0.001c-1.773-1.24-3.413-2.667-5.147-4-0.453-0.32-0.907-0.6-1.36-0.96z"></path>
<path d="M7.52 9.013c0.907-0.587 1.813-1.227 2.667-1.88 1.333-0.973 2.667-1.987 3.92-2.987l1.747-1.333 0.147-0.147s0.36 0.213 0.427 0.28c0.467 0.44 0.907 0.88 1.333 1.333 0.213 0.173 0.44 0.36 0.667 0.52 0.897 0.633 1.833 1.212 2.8 1.733 1.413 0.827 2.867 1.56 4.267 2.347 0.063 0.039 0.139 0.061 0.22 0.061 0.155 0 0.291-0.083 0.365-0.206l0.001-0.002c0.036-0.064 0.058-0.14 0.058-0.221 0-0.158-0.081-0.297-0.203-0.378l-0.002-0.001c-1.333-0.853-2.733-1.68-4.093-2.587-0.88-0.581-1.727-1.213-2.533-1.893l-1.88-1.8c-0.224-0.242-0.459-0.464-0.708-0.67l-0.012-0.010c-0.153-0.111-0.339-0.187-0.541-0.213l-0.006-0.001c-0.024-0.002-0.052-0.003-0.080-0.003-0.151 0-0.293 0.036-0.419 0.099l0.005-0.002c-0.254 0.18-0.475 0.36-0.685 0.552l0.005-0.005-1.747 1.467c-1.24 1.093-2.413 2.267-3.653 3.267-0.827 0.72-1.653 1.333-2.507 2.053-0.126 0.065-0.211 0.195-0.211 0.344 0 0.214 0.173 0.387 0.387 0.387 0.102 0 0.195-0.040 0.265-0.105l-0 0z"></path>
</symbol>
<symbol id="icon-trust" viewBox="0 0 32 32">
<path d="M9.627 19.080c0.359 0.047 0.721 0.047 1.080 0 0.349-0.051 0.693-0.136 1.027-0.253 0.818-0.315 1.521-0.678 2.177-1.107l-0.044 0.027c0.143-0.075 0.239-0.222 0.239-0.392 0-0.066-0.014-0.128-0.040-0.184l0.001 0.003c-0.079-0.141-0.227-0.235-0.398-0.235-0.063 0-0.124 0.013-0.179 0.037l0.003-0.001c-0.708 0.248-1.435 0.44-2.173 0.573-0.364 0.079-0.819 0.15-1.281 0.196l-0.053 0.004h-0.667c0.749-0.973 1.238-2.18 1.345-3.496l0.002-0.024c0.267-2.667-1.053-5.333-4.147-5.6-0.011-0-0.024-0-0.037-0-2.074 0-3.914 1.006-5.057 2.556l-0.012 0.017c-0.701 0.819-1.127 1.89-1.127 3.061 0 0.942 0.276 1.82 0.752 2.557l-0.011-0.019c0.344 0.513 0.8 0.941 1.333 1.253l0.507 0.267c-0.994 1.016-1.769 2.251-2.246 3.625l-0.021 0.069c-0.332 0.982-0.548 2.117-0.599 3.294l-0.001 0.026c-0.010 0.263-0.016 0.572-0.016 0.883 0 1.426 0.122 2.824 0.357 4.183l-0.021-0.145c0.013 0.233 0.205 0.417 0.439 0.417 0.019 0 0.038-0.001 0.056-0.004l-0.002 0c0.212-0.027 0.374-0.206 0.374-0.423 0-0.011-0-0.021-0.001-0.031l0 0.001c-0.025-0.448-0.039-0.971-0.039-1.498 0-1.154 0.067-2.292 0.198-3.411l-0.013 0.136c0.132-1.13 0.342-2.147 0.633-3.13l-0.033 0.13c0.401-1.446 1.047-2.705 1.898-3.797l-0.018 0.024c0.36 0.093 0.72 0.187 1.080 0.253 0.022 0.005 0.047 0.007 0.073 0.007 0.207 0 0.374-0.167 0.374-0.374 0-0.181-0.128-0.331-0.298-0.366l-0.002-0c-2.667-0.613-3.147-1.853-3.16-1.893-0.287-0.508-0.457-1.115-0.457-1.762 0-0.985 0.393-1.879 1.031-2.532l-0.001 0.001c0.917-1.212 2.356-1.987 3.977-1.987 0.008 0 0.016 0 0.025 0h-0.001c2.28 0.133 3.187 2.12 3.067 4.093 0 0.018 0 0.040 0 0.061 0 2.136-1.435 3.937-3.394 4.491l-0.033 0.008c-0.207 0.038-0.362 0.218-0.362 0.433 0 0.017 0.001 0.033 0.003 0.049l-0-0.002c0.037 0.201 0.211 0.351 0.42 0.351 0.021 0 0.042-0.002 0.062-0.005l-0.002 0c0.758-0.111 1.432-0.405 1.997-0.834l-0.011 0.008c0.452 0.209 0.933 0.349 1.427 0.413z"></path>
<path d="M14.093 19.6c-0.527 0.5-1.117 0.941-1.755 1.309l-0.045 0.024c-0.577 0.327-1.248 0.621-1.95 0.845l-0.077 0.021c-0.541 0.133-1.075 0.293-1.6 0.48-0.378 0.142-0.686 0.398-0.889 0.726l-0.004 0.008c-0.244 0.58-0.386 1.255-0.386 1.963 0 0.126 0.004 0.25 0.013 0.374l-0.001-0.017c0 1.667 0.547 3.72 0.627 4.773 0.007 0.223 0.189 0.401 0.413 0.401 0.009 0 0.019-0 0.028-0.001l-0.001 0c0.223-0.009 0.4-0.192 0.4-0.416 0-0.004-0-0.008-0-0.012v0.001c0-0.907-0.147-2.573-0.147-4.107 0-3.453 0.813-2.48 2.040-2.96 0.803-0.382 1.49-0.791 2.134-1.254l-0.041 0.028c0.672-0.477 1.28-1.037 1.813-1.667 0.073-0.066 0.118-0.161 0.118-0.267s-0.045-0.201-0.118-0.266l-0-0c-0.069-0.078-0.169-0.127-0.281-0.127-0.118 0-0.223 0.054-0.292 0.14l-0.001 0.001zM27.52 17.507c-0.633 0.067-1.273 0.067-1.907 0-1.893-0.267-4.467-1.92-3.56-4.627 0.629-1.596 1.961-2.796 3.603-3.232l0.037-0.008c0.361-0.113 0.776-0.179 1.206-0.179 1.463 0 2.749 0.755 3.491 1.896l0.010 0.016c0.329 0.521 0.525 1.155 0.525 1.834 0 1.251-0.663 2.348-1.657 2.957l-0.015 0.009c-0.109 0.078-0.18 0.205-0.18 0.348 0 0.089 0.027 0.172 0.074 0.24l-0.001-0.001c0.072 0.115 0.198 0.19 0.341 0.19 0.093 0 0.178-0.031 0.246-0.084l-0.001 0.001c1.36-0.773 2.263-2.212 2.263-3.862 0-0.817-0.221-1.582-0.607-2.239l0.011 0.021c-0.958-1.637-2.708-2.718-4.71-2.718-0.482 0-0.949 0.063-1.394 0.18l0.038-0.009c-2.135 0.571-3.813 2.135-4.532 4.154l-0.014 0.046c-0.128 0.38-0.202 0.817-0.202 1.271 0 1.050 0.396 2.008 1.046 2.733l-0.003-0.004c-0.251-0.089-0.462-0.183-0.665-0.292l0.025 0.012c-0.696-0.468-1.258-1.081-1.653-1.8l-0.013-0.027c-0.342-0.609-0.75-1.131-1.224-1.584l-0.003-0.002c-0.592-0.594-1.41-0.962-2.315-0.962-0.257 0-0.507 0.030-0.747 0.086l0.022-0.004c-0.889 0.383-1.538 1.173-1.717 2.129l-0.003 0.018c-0.038 0.138-0.059 0.296-0.059 0.46s0.022 0.322 0.062 0.473l-0.003-0.013c0.298 0.794 0.662 1.481 1.1 2.111l-0.020-0.031c0.547 0.84 1.192 1.615 1.92 2.307 0.712 0.673 1.518 1.257 2.393 1.73l0.060 0.030c0.563 0.249 1.288 0.516 2.031 0.745l0.156 0.041c0.221 0.080 0.432 0.187 0.627 0.32 0.137 0.493 0.227 0.997 0.267 1.507 0.1 0.796 0.14 1.599 0.12 2.4-0.029 1.227-0.128 2.451-0.293 3.667-0.001 0.012-0.002 0.026-0.002 0.040 0 0.209 0.17 0.379 0.379 0.379 0.181 0 0.332-0.127 0.37-0.296l0-0.003c0.2-1.227 0.4-2.48 0.48-3.733 0.060-0.848 0.060-1.699 0-2.547-0.017-0.593-0.075-1.159-0.17-1.711l0.010 0.071c-0.060-0.246-0.181-0.458-0.347-0.627l0 0c-0.28-0.24-0.601-0.446-0.948-0.603l-0.025-0.010c-0.667-0.307-1.453-0.507-2.027-0.827-0.81-0.467-1.51-0.997-2.136-1.603l0.003 0.003c-0.628-0.613-1.194-1.285-1.691-2.008l-0.029-0.045c-0.187-0.293-0.36-0.587-0.52-0.893-0.56-1.013-0.427-0.96-0.347-1.24 0.072-0.437 0.348-0.797 0.726-0.983l0.008-0.004c0.453-0.173 1.053 0 1.907 0.6s1.467 2.427 3.133 3.307c0.787 0.4 1.664 0.593 2.547 0.56 0.128 0.084 0.263 0.16 0.4 0.227 0.609 0.283 1.317 0.469 2.062 0.519l0.018 0.001c0.164 0.009 0.356 0.014 0.549 0.014 0.535 0 1.062-0.039 1.576-0.114l-0.058 0.007c0.183-0.018 0.324-0.171 0.324-0.357 0-0.020-0.002-0.039-0.005-0.058l0 0.002c-0.014-0.18-0.163-0.32-0.346-0.32-0.005 0-0.010 0-0.015 0l0.001-0z"></path>
<path d="M28.72 16.96c-0.069-0.087-0.174-0.141-0.293-0.141-0.206 0-0.373 0.167-0.373 0.373 0 0.132 0.068 0.247 0.171 0.314l0.001 0.001c1.070 1.207 1.792 2.744 1.996 4.441l0.004 0.039c0.173 0.996 0.28 2.003 0.32 3.013 0.013 0.387 0.021 0.842 0.021 1.298 0 1.195-0.051 2.378-0.151 3.547l0.011-0.152c-0.002 0.017-0.004 0.036-0.004 0.056 0 0.211 0.158 0.385 0.362 0.41l0.002 0c0.018 0.003 0.039 0.004 0.060 0.004 0.209 0 0.383-0.15 0.419-0.348l0-0.003c0.343-1.584 0.552-3.195 0.627-4.813 0.006-0.153 0.010-0.333 0.010-0.514 0-0.989-0.111-1.953-0.32-2.879l0.017 0.087c-0.421-1.918-1.447-3.548-2.866-4.722l-0.014-0.011zM9.52 6.2c0.064 0.225 0.149 0.444 0.253 0.653 0.093 0.207 0.2 0.407 0.32 0.6 0.307 0.467 0.645 0.912 1.013 1.333 0.069 0.114 0.192 0.188 0.332 0.188 0.064 0 0.124-0.015 0.177-0.043l-0.002 0.001c0.116-0.065 0.193-0.187 0.193-0.327 0-0.066-0.017-0.128-0.047-0.182l0.001 0.002c-0.173-0.52-0.267-1.027-0.44-1.533-0.088-0.25-0.178-0.457-0.28-0.656l0.014 0.029c-0.107-0.23-0.213-0.422-0.332-0.606l0.012 0.020c-0.28-0.467-0.587-0.907-0.893-1.333-0.072-0.141-0.216-0.236-0.382-0.236-0.236 0-0.427 0.191-0.427 0.427 0 0.061 0.013 0.12 0.036 0.172l-0.001-0.003c0.16 0.48 0.267 0.987 0.453 1.493zM15.56 6.52c0 0 0 0 0 0 0 0.202 0.16 0.366 0.359 0.373l0.001 0c0.008 0.001 0.017 0.001 0.027 0.001 0.199 0 0.36-0.161 0.36-0.36 0-0 0-0.001 0-0.001v0c0.12-0.56 0.267-1.080 0.333-1.653 0.013-0.235 0.013-0.471 0-0.707 0.006-0.106 0.010-0.229 0.010-0.353s-0.004-0.248-0.010-0.37l0.001 0.017c0-0.547-0.16-1.080-0.24-1.64 0-0 0-0.001 0-0.001 0-0.226-0.176-0.411-0.399-0.426l-0.001-0c-0.004-0-0.009-0-0.013-0-0.228 0-0.413 0.185-0.413 0.413 0 0 0 0 0 0v0c-0.093 0.56-0.2 1.093-0.253 1.653-0.013 0.236-0.013 0.471 0 0.707-0.006 0.106-0.010 0.229-0.010 0.353s0.004 0.248 0.011 0.37l-0.001-0.017c0.027 0.56 0.16 1.080 0.24 1.64zM20.413 8.36c0.392-0.281 0.763-0.593 1.107-0.933 0.135-0.148 0.255-0.309 0.36-0.48 0.107-0.16 0.2-0.333 0.293-0.507 0.2-0.427 0.36-0.84 0.547-1.253 0.058-0.074 0.094-0.169 0.094-0.272 0-0.13-0.057-0.247-0.147-0.328l-0-0c-0.067-0.046-0.15-0.073-0.239-0.073-0.143 0-0.27 0.070-0.347 0.178l-0.001 0.001c-0.347 0.333-0.667 0.64-0.987 1-0.12 0.147-0.24 0.293-0.347 0.453-0.121 0.152-0.236 0.322-0.337 0.501l-0.010 0.019c-0.2 0.413-0.333 0.827-0.547 1.227-0.063 0.067-0.101 0.156-0.101 0.255 0 0.206 0.167 0.373 0.373 0.373 0.115 0 0.219-0.052 0.287-0.135l0-0.001v-0.027z"></path>
</symbol>
<symbol id="icon-expertise" viewBox="0 0 32 32">
<path d="M21.080 25.867c-0.273-0.193-0.584-0.371-0.911-0.519l-0.036-0.014c-2.040-0.8-1.84-0.2-0.827-0.987 3.24-2.48 2.813-8.587-1.48-9.427-0.027-0.006-0.059-0.009-0.091-0.009-0.216 0-0.396 0.151-0.442 0.353l-0.001 0.003c-0.173 0.8 1.053 0.28 2.227 1.773 1.84 2.373 0.453 8.133-5.52 6.747-4.6-0.933-4-9.027 2.28-8.613 0.030 0.008 0.065 0.013 0.1 0.013 0.221 0 0.4-0.179 0.4-0.4s-0.179-0.4-0.4-0.4c-0.007 0-0.014 0-0.021 0.001l0.001-0c-0.314-0.062-0.674-0.097-1.043-0.097-3.122 0-5.653 2.531-5.653 5.653 0 2.12 1.167 3.968 2.895 4.936l0.029 0.015c-2.92 1.187-5.333 3.56-4.893 6.667 0 0.221 0.179 0.4 0.4 0.4s0.4-0.179 0.4-0.4v0c0.134-0.936 0.52-1.763 1.086-2.434l-0.006 0.007c0.874-1.113 1.847-2.086 2.923-2.932l0.037-0.028c1.253-0.76 1.187-0.707 1.267-0.813 0.44 0.088 0.885 0.145 1.333 0.173-0.24 0.852-0.378 1.83-0.378 2.84 0 0.855 0.099 1.688 0.286 2.486l-0.014-0.073c-0.003 0.012-0.005 0.026-0.005 0.040s0.002 0.028 0.005 0.041l-0-0.001c0.035 0.18 0.192 0.315 0.38 0.315 0.045 0 0.089-0.008 0.129-0.022l-0.003 0.001c0.004 0 0.008 0 0.012 0 0.166 0 0.305-0.112 0.347-0.264l0.001-0.003c0.003-0.018 0.005-0.039 0.005-0.060s-0.002-0.042-0.005-0.062l0 0.002c0.252-1.317 0.364-2.659 0.333-4-0.227-1.333-0.2-1.067-0.187-1.2 0.53-0.020 1.032-0.106 1.508-0.251l-0.042 0.011c0.924 0.513 1.813 1.083 2.667 1.707 1.206 1.234 2.148 2.731 2.734 4.396l0.026 0.084c0.020 0.233 0.215 0.415 0.452 0.415 0.25 0 0.453-0.203 0.453-0.453 0-0.053-0.009-0.104-0.026-0.152l0.001 0.003c-0.134-2.197-1.162-4.13-2.722-5.458l-0.011-0.009z"></path>
<path d="M14.92 18.587c-0.857 0.537-1.898 0.856-3.013 0.856-0.056 0-0.113-0.001-0.168-0.002l0.008 0c-0.207 0.017-0.369 0.189-0.369 0.399 0 0.186 0.127 0.343 0.3 0.387l0.003 0.001c2.667 0.507 3.693 0 5.88-1.427 0.827 0.827 1.573 1.88 2.053 1.333 0.082-0.082 0.132-0.195 0.132-0.32s-0.051-0.238-0.132-0.32v0c-1.133-1.187-1.24-2.493-2.413-2.16-0.907 0.435-1.654 0.852-2.373 1.309l0.093-0.055zM13.427 7.253c-0.653 1.24-2.267 3.613-0.867 4 1.187 0.347 2.427-1.013 3.227-1.933 0 0 0.28-0.187 0.48-0.36 0.32 0.333 0.667 0.667 1.027 0.973 0.657 0.561 1.427 1.014 2.269 1.317l0.051 0.016c1.427 0.133 0.853-2.373 0.6-3.8l-0.213-0.293c1.013-0.493 2.813-1.333 2.733-2.493-0.093-1.333-2.013-1.2-3.493-1.333h-0.387l-1.36-2.507c-0.96-1.2-2.067-0.987-2.667 0.213l-0.893 1.973c0 0.080-0.2 0.253-0.24 0.373-0.145-0.009-0.314-0.014-0.484-0.014-0.909 0-1.783 0.147-2.601 0.418l0.058-0.017c-0.653 0.373-0.627 1.187-0.080 1.787 0.818 0.66 1.755 1.224 2.763 1.651l0.077 0.029zM13.427 4.587c0.253 0 0.547 0.187 0.947 0s0.52-0.733 1.72-3.067c0.096 0.067 0.187 0.143 0.267 0.227 0.2 0.267 1.12 2.333 1.52 2.773 0.145 0.145 0.331 0.249 0.54 0.292l0.007 0.001c0.956 0.021 1.874 0.132 2.762 0.324l-0.095-0.017c-0.725 0.4-1.483 0.733-2.267 1-0.233 0.166-0.384 0.436-0.384 0.741 0 0.073 0.009 0.144 0.025 0.212l-0.001-0.006c0.257 0.821 0.435 1.665 0.533 2.52-0.894-0.53-1.662-1.153-2.327-1.873l-0.006-0.007c-1.080-1.107-2.253 2.387-3.667 2.667-0.003-0.038-0.005-0.082-0.005-0.127s0.002-0.089 0.005-0.132l-0 0.006c0.147-0.72 1.080-2.24 1.333-2.973 0 0.187 0.147-0.6-0.373-0.6l-1.227-0.6c-0.213-0.16-1.333-0.787-1.52-1.12 0.16-0.040 2.12-0.267 2.24-0.28l-0.027 0.040zM32 8.533c-0.133-1.333-1.973-1.107-3.413-1.253-0.072-0.008-0.155-0.013-0.24-0.013s-0.168 0.005-0.25 0.013l0.010-0.001-1.333-2.24c-0.893-1.040-1.827-0.84-2.333 0.187l-0.853 1.853c-0.026 0.056-0.042 0.121-0.042 0.19 0 0.25 0.203 0.453 0.453 0.453 0.173 0 0.324-0.097 0.4-0.241l0.001-0.002c1.213-2.44 1.080-2.32 1.507-1.747 0.173 0.227 1.107 2.227 1.467 2.667s0.88 0.24 1.093 0.28c0.627 0.093 1.72 0 2.147 0.147 0 0-2.227 0.987-2.387 1.067-0.244 0.156-0.404 0.426-0.404 0.733 0 0.081 0.011 0.159 0.032 0.233l-0.001-0.006c0.227 0.721 0.387 1.463 0.48 2.213-2.667-1.4-2.187-3.093-4-0.787-0.213 0.253-1.227 1.653-1.8 1.747-0.074-0.373-0.116-0.801-0.116-1.24s0.042-0.867 0.123-1.282l-0.007 0.042c0.015-0.040 0.023-0.086 0.023-0.134 0-0.222-0.18-0.401-0.401-0.401-0.164 0-0.305 0.098-0.367 0.24l-0.001 0.003c-0.187 0.651-0.295 1.398-0.295 2.171 0 0.174 0.006 0.347 0.016 0.519l-0.001-0.023c0.093 1.16 0.933 1.333 1.893 0.773 0.688-0.499 1.28-1.071 1.786-1.714l0.014-0.019 0.427-0.307c0.633 0.671 1.36 1.245 2.16 1.707 0.68 0.36 1.333 0.747 1.813 0.227s0-2.667-0.093-3.747c0.933-0.453 2.587-1.28 2.493-2.307zM2.493 10.907c-0.169 0.853-0.28 1.717-0.333 2.587-0.022 0.096-0.035 0.206-0.035 0.318 0 0.321 0.103 0.618 0.278 0.859l-0.003-0.004c0.52 0.52 1.133 0.133 1.813-0.227 0.827-0.486 1.537-1.056 2.155-1.715l0.005-0.005 0.427 0.307c0.525 0.624 1.131 1.176 1.8 1.64 0.947 0.533 1.8 0.4 1.893-0.773 0.010-0.149 0.015-0.324 0.015-0.5 0-0.771-0.108-1.517-0.309-2.224l0.014 0.057c-0.060-0.15-0.205-0.254-0.373-0.254-0.222 0-0.401 0.18-0.401 0.401 0 0.053 0.010 0.103 0.029 0.149l-0.001-0.003c0.074 0.373 0.116 0.801 0.116 1.24s-0.042 0.867-0.123 1.282l0.007-0.042c-0.587-0.093-1.613-1.52-1.8-1.747-1.827-2.307-1.333-0.613-4 0.787 0.107-0.835 0.276-1.584 0.505-2.305l-0.025 0.092c0.019-0.068 0.030-0.146 0.030-0.227 0-0.307-0.16-0.577-0.4-0.731l-0.003-0.002c-0.16-0.093-2.373-1.093-2.387-1.067 0.427-0.107 1.52 0 2.147-0.147 0.213 0 0.773 0 1.093-0.28s1.587-3.040 1.827-2.973c0.24 0.067 0.253 0.213 1.187 2.080 0.077 0.146 0.228 0.243 0.402 0.243 0.25 0 0.453-0.203 0.453-0.453 0-0.069-0.015-0.134-0.043-0.192l0.001 0.003-0.853-1.853c-0.507-1.027-1.44-1.227-2.267-0.187l-1.333 2.24c-0.072-0.008-0.155-0.013-0.24-0.013s-0.168 0.005-0.25 0.013l0.010-0.001c-1.533 0.213-3.387 0.013-3.52 1.32-0.093 1.027 1.56 1.84 2.493 2.307z"></path>
</symbol>
<symbol id="icon-present" viewBox="0 0 32 32">
<path stroke-linejoin="round" stroke-linecap="round" stroke-miterlimit="4" stroke-width="2.6667" d="M28.444 9.778h-24.889c-0.859 0-1.556 0.696-1.556 1.556v3.111c0 0.859 0.696 1.555 1.556 1.555h24.889c0.859 0 1.556-0.696 1.556-1.555v-3.111c0-0.859-0.696-1.556-1.556-1.556z"></path>
<path stroke-linejoin="round" stroke-linecap="round" stroke-miterlimit="4" stroke-width="2.6667" d="M16 9.778v20.222M16 9.778c-0.563-2.319-1.532-4.301-2.78-5.688s-2.719-2.115-4.22-2.089c-1.031 0-2.021 0.41-2.75 1.139s-1.139 1.718-1.139 2.75c0 1.031 0.41 2.021 1.139 2.75s1.718 1.139 2.75 1.139M16 9.778c0.563-2.319 1.531-4.301 2.78-5.688s2.719-2.115 4.22-2.089c1.031 0 2.021 0.41 2.75 1.139s1.139 1.718 1.139 2.75c0 1.031-0.41 2.021-1.139 2.75s-1.719 1.139-2.75 1.139M26.888 16v10.889c0 0.825-0.328 1.616-0.911 2.2s-1.375 0.911-2.2 0.911h-15.556c-0.825 0-1.616-0.328-2.2-0.911s-0.911-1.375-0.911-2.2v-10.889"></path>
</symbol>
<symbol id="icon-box" viewBox="0 0 31 32">
<path stroke-linejoin="round" stroke-linecap="round" stroke-miterlimit="4" stroke-width="0.4507" d="M23.334 12.712l-15.344-8.768M17.837 0.803l10.96 6.263c0.671 0.383 1.229 0.938 1.617 1.606s0.592 1.428 0.592 2.201v10.254c0 0.773-0.204 1.532-0.592 2.201s-0.946 1.223-1.617 1.606l-10.96 6.263c-0.662 0.378-1.412 0.577-2.175 0.577s-1.512-0.199-2.175-0.577l-10.96-6.263c-0.671-0.384-1.229-0.938-1.617-1.606s-0.592-1.428-0.592-2.201v-10.254c-0-0.773 0.204-1.533 0.592-2.201s0.946-1.223 1.617-1.606l10.96-6.263c0.662-0.378 1.412-0.577 2.175-0.577s1.512 0.199 2.175 0.577z"></path>
<path stroke-linejoin="round" stroke-linecap="round" stroke-miterlimit="4" stroke-width="0.4507" d="M1.414 9.424l12.17 6.554c0.639 0.344 1.353 0.524 2.078 0.524s1.439-0.18 2.078-0.524l12.17-6.554M15.662 17.096v14.248"></path>
</symbol>
<symbol id="icon-plus" viewBox="0 0 33 32">
<path stroke-linejoin="round" stroke-linecap="round" stroke-miterlimit="4" stroke-width="1.2308" d="M31.459 16h-15.385M16.075 16h-15.385M16.075 16v-15.385M16.075 16v15.385"></path>
</symbol>
<symbol id="icon-selected" viewBox="0 0 31 32">
<path fill="none" stroke="#9f9fa6" style="stroke: var(--color1, #9f9fa6)" stroke-linejoin="round" stroke-linecap="round" stroke-miterlimit="4" stroke-width="1.5238" d="M15.619 0.762l4.002 2.92 4.955-0.009 1.522 4.715 4.014 2.904-1.54 4.709 1.54 4.709-4.014 2.904-1.522 4.715-4.955-0.009-4.002 2.92-4.002-2.92-4.955 0.009-1.522-4.715-4.014-2.904 1.54-4.709-1.54-4.709 4.014-2.904 1.522-4.715 4.955 0.009 4.002-2.92z"></path>
<path fill="none" stroke="#9f9fa6" style="stroke: var(--color1, #9f9fa6)" stroke-linejoin="round" stroke-linecap="round" stroke-miterlimit="4" stroke-width="1.5238" d="M10.286 16l3.81 3.81 7.619-7.619"></path>
</symbol>
<symbol id="icon-search" viewBox="0 0 28 32">
<path fill="#9f9fa6" style="fill: var(--color1, #9f9fa6)" d="M12.363 0c-1.972 0-3.914 0.472-5.667 1.376s-3.263 2.213-4.406 3.82-1.885 3.463-2.165 5.414c-0.28 1.952-0.089 3.942 0.557 5.804s1.728 3.544 3.156 4.904c1.428 1.36 3.16 2.358 5.052 2.912s3.889 0.647 5.825 0.272c1.936-0.375 3.753-1.207 5.302-2.428l5.312 5.312c0.274 0.265 0.642 0.412 1.023 0.408s0.746-0.156 1.016-0.426c0.27-0.27 0.423-0.634 0.426-1.016s-0.143-0.749-0.408-1.023l-5.312-5.312c1.437-1.823 2.332-4.014 2.582-6.322s-0.155-4.64-1.168-6.728-2.594-3.85-4.561-5.082c-1.967-1.232-4.242-1.886-6.563-1.885zM2.908 12.364c0-2.508 0.996-4.912 2.769-6.685s4.178-2.769 6.685-2.769 4.912 0.996 6.685 2.769c1.773 1.773 2.769 4.178 2.769 6.685s-0.996 4.912-2.769 6.685c-1.773 1.773-4.178 2.769-6.685 2.769s-4.912-0.996-6.685-2.769c-1.773-1.773-2.769-4.178-2.769-6.685z"></path>
</symbol>
<symbol id="icon-success" viewBox="0 0 32 32">
<path fill="none" stroke="#fff" style="stroke: var(--color1, #fff)" stroke-linejoin="round" stroke-linecap="round" stroke-miterlimit="4" stroke-width="1" d="M5.566 18.193c-7.447-7.303 2.931-18.933 10.585-10.445 7.173-8.488 17.72 3.029 10.337 10.445l-10.337 10.384-10.585-10.384z"></path>
<path fill="none" stroke="#fff" style="stroke: var(--color1, #fff)" stroke-linejoin="round" stroke-linecap="round" stroke-miterlimit="4" stroke-width="1" d="M16.178 18.979c-0.816-0.684-1.401-1.603-1.677-2.631s-0.228-2.117 0.136-3.117c0.364-1.001 1.027-1.865 1.899-2.475s1.911-0.938 2.976-0.938c1.065 0 2.104 0.328 2.976 0.938s1.535 1.475 1.899 2.475c0.364 1.001 0.412 2.089 0.136 3.117s-0.861 1.947-1.677 2.631"></path>
<path fill="none" stroke="#fff" style="stroke: var(--color1, #fff)" stroke-linejoin="round" stroke-linecap="round" stroke-miterlimit="4" stroke-width="1" d="M15.218 11.835c-0.912-0.639-2.036-0.901-3.137-0.731s-2.094 0.757-2.772 1.641c-0.678 0.884-0.989 1.995-0.868 3.102s0.665 2.125 1.518 2.841c-1.013 0.605-1.618 1.21-1.975 1.815M22.847 18.979c0.565 0.207 1.148 0.524 1.772 1.092M16.178 18.979c-1.953 1.34-3.471 3.064-4.409 5.3"></path>
</symbol>
<symbol id="icon-strategy" viewBox="0 0 32 32">
<path fill="none" stroke="#fff" style="stroke: var(--color1, #fff)" stroke-linejoin="round" stroke-linecap="round" stroke-miterlimit="4" stroke-width="1" d="M24 14.667l3.128-2.868c0.581-0.533 0.872-0.8 0.872-1.132M28 10.667c0-0.332-0.291-0.599-0.872-1.132l-3.128-2.868M28 10.667c-24 0-24 17.333-24 17.333"></path>
<path fill="none" stroke="#fff" style="stroke: var(--color1, #fff)" stroke-linejoin="round" stroke-linecap="round" stroke-miterlimit="4" stroke-width="1" d="M7.333 10.667c1.841 0 3.333-1.492 3.333-3.333s-1.492-3.333-3.333-3.333c-1.841 0-3.333 1.492-3.333 3.333s1.492 3.333 3.333 3.333z"></path>
<path fill="none" stroke="#fff" style="stroke: var(--color1, #fff)" stroke-linejoin="round" stroke-linecap="round" stroke-miterlimit="4" stroke-width="1" d="M17.333 28l6.667-6.667M24 28l-6.667-6.667"></path>
</symbol>
<symbol id="icon-outline" viewBox="0 0 32 32">
<path fill="none" stroke="#fff" style="stroke: var(--color1, #fff)" stroke-linejoin="round" stroke-linecap="round" stroke-miterlimit="4" stroke-width="1" d="M29.333 20.667c0 3.682-2.985 6.667-6.667 6.667-1.193 0-2.315-0.313-3.284-0.863-1.027-0.582-1.881-1.426-2.475-2.445s-0.907-2.178-0.908-3.358c0-1.712 0.645-3.273 1.705-4.453 0.625-0.697 1.389-1.255 2.244-1.636s1.781-0.578 2.717-0.577c3.682 0 6.667 2.985 6.667 6.667z"></path>
<path fill="none" stroke="#fff" style="stroke: var(--color1, #fff)" stroke-linejoin="round" stroke-linecap="round" stroke-miterlimit="4" stroke-width="1" d="M22.667 8v6c-0.936-0.001-1.862 0.196-2.717 0.577s-1.62 0.939-2.244 1.636c-1.1 1.222-1.708 2.809-1.705 4.453 0.001 0.387 0.033 0.764 0.096 1.132 0.168 0.973 0.55 1.897 1.118 2.705s1.309 1.479 2.168 1.966c-1.775 0.537-4.131 0.863-6.716 0.863-5.523 0-10-1.493-10-3.333v-16"></path>
<path fill="none" stroke="#fff" style="stroke: var(--color1, #fff)" stroke-linejoin="round" stroke-linecap="round" stroke-miterlimit="4" stroke-width="1" d="M2.667 18.667c0 1.841 4.477 3.333 10 3.333 1.205 0 2.36-0.071 3.429-0.201M2.667 13.333c0 1.841 4.477 3.333 10 3.333 1.837 0 3.559-0.165 5.039-0.453M25.667 19.333l-3.667 3.667-2-2M22.667 8c0 1.841-4.477 3.333-10 3.333s-10-1.493-10-3.333c0-1.841 4.477-3.333 10-3.333s10 1.493 10 3.333z"></path>
</symbol>
<symbol id="icon-star" viewBox="0 0 27 32">
<path fill="none" stroke="#fff" style="stroke: var(--color1, #fff)" stroke-linejoin="round" stroke-linecap="round" stroke-miterlimit="4" stroke-width="0.9412" d="M1.223 9.662l6.188-2.253 2.251-6.187c0.052-0.142 0.146-0.264 0.269-0.351s0.271-0.133 0.422-0.133c0.151 0 0.298 0.046 0.422 0.133s0.217 0.209 0.269 0.351l2.252 6.188 6.188 2.251c0.142 0.052 0.264 0.146 0.351 0.269s0.133 0.271 0.133 0.422-0.046 0.298-0.133 0.422c-0.087 0.124-0.209 0.218-0.351 0.269l-6.19 2.253-2.251 6.188c-0.052 0.142-0.146 0.264-0.269 0.351s-0.271 0.133-0.422 0.133c-0.151 0-0.298-0.046-0.422-0.133s-0.217-0.209-0.269-0.351l-2.252-6.19-6.187-2.251c-0.142-0.052-0.264-0.146-0.351-0.269s-0.133-0.271-0.133-0.422 0.046-0.298 0.133-0.422c0.087-0.124 0.209-0.217 0.351-0.269z"></path>
<path fill="#fff" style="fill: var(--color1, #fff)" d="M21.586 19.44c-0.299-0.822-1.461-0.822-1.76 0l-1.358 3.734-3.734 1.358c-0.822 0.299-0.822 1.461 0 1.76l3.734 1.358 1.358 3.734c0.299 0.822 1.461 0.822 1.76 0l1.358-3.734 3.734-1.358c0.822-0.299 0.822-1.461 0-1.76l-3.734-1.358-1.358-3.734z"></path>
</symbol>
<symbol id="icon-person" viewBox="0 0 32 32">
<path fill="#fff" style="fill: var(--color1, #fff)" d="M21.969 16.704c2.735 0 4.963-2.436 4.963-5.4 0-2.93-2.217-5.251-4.963-5.251-2.723 0-4.964 2.355-4.964 5.274 0.011 2.953 2.241 5.377 4.964 5.377zM8.733 16.957c2.367 0 4.309-2.126 4.309-4.734 0-2.551-1.919-4.607-4.309-4.607-2.367 0-4.32 2.091-4.309 4.63 0.011 2.597 1.942 4.711 4.309 4.711zM21.969 14.969c-1.678 0-3.114-1.609-3.114-3.642 0-2 1.414-3.539 3.114-3.539 1.712 0 3.114 1.517 3.114 3.515 0 2.034-1.413 3.666-3.114 3.666zM8.733 15.245c-1.402 0-2.597-1.344-2.597-2.999 0-1.62 1.183-2.918 2.597-2.918 1.447 0 2.608 1.275 2.608 2.895 0 1.678-1.195 3.022-2.608 3.022zM2.344 27.493h9.020c-0.552-0.31-0.977-1-0.897-1.701h-8.41c-0.23 0-0.345-0.091-0.345-0.31 0-2.849 3.251-5.515 7.009-5.515 1.447 0 2.746 0.345 3.861 0.999 0.37-0.468 0.807-0.879 1.298-1.218-1.482-0.977-3.263-1.482-5.159-1.482-4.815 0-8.722 3.493-8.722 7.319 0 1.275 0.781 1.907 2.344 1.907zM14.753 27.493h14.432c1.907 0 2.815-0.574 2.815-1.838 0-3.010-3.803-7.366-10.031-7.366-6.239 0-10.042 4.355-10.042 7.366 0 1.264 0.907 1.838 2.826 1.838zM14.202 25.758c-0.299 0-0.425-0.080-0.425-0.322 0-1.885 2.918-5.411 8.193-5.411 5.263 0 8.181 3.527 8.181 5.411 0 0.241-0.114 0.322-0.414 0.322h-15.534z"></path>
</symbol>
<symbol id="icon-check-mark" viewBox="0 0 32 32">
<path fill="none" stroke="#fff" style="stroke: var(--color1, #fff)" stroke-linejoin="round" stroke-linecap="round" stroke-miterlimit="4" stroke-width="1" d="M15.999 2.667l3.502 2.555 4.335-0.008 1.331 4.125 3.512 2.541-1.347 4.12 1.347 4.12-3.512 2.541-1.331 4.125-4.335-0.008-3.502 2.555-3.502-2.555-4.335 0.008-1.331-4.125-3.512-2.541 1.347-4.12-1.347-4.12 3.512-2.541 1.331-4.125 4.335 0.008 3.502-2.555z"></path>
<path fill="none" stroke="#fff" style="stroke: var(--color1, #fff)" stroke-linejoin="round" stroke-linecap="round" stroke-miterlimit="4" stroke-width="1" d="M11.332 16l3.333 3.333 6.667-6.667"></path>
</symbol>
<symbol id="icon-funnel" viewBox="0 0 32 32">
<path fill="#fff" style="fill: var(--color1, #fff)" d="M10 8v-4.641c-1.375 0.656-2.604 1.51-3.688 2.563s-1.979 2.25-2.688 3.594l-1.859-0.766c0.729-1.427 1.646-2.714 2.75-3.859s2.359-2.109 3.766-2.891h-4.281v-2h8v8h-2zM28.375 9.516c-0.656-1.26-1.484-2.391-2.484-3.391s-2.135-1.833-3.406-2.5l0.766-1.844c1.5 0.771 2.844 1.75 4.031 2.938s2.172 2.531 2.953 4.031l-1.859 0.766zM2 16c0 0.708 0.052 1.411 0.156 2.109s0.266 1.385 0.484 2.063l-1.844 0.766c-0.531-1.594-0.797-3.24-0.797-4.938s0.266-3.344 0.797-4.938l1.859 0.766c-0.208 0.677-0.37 1.365-0.484 2.063s-0.172 1.401-0.172 2.109zM3.609 22.484c0.656 1.26 1.49 2.396 2.5 3.406s2.146 1.844 3.406 2.5l-0.766 1.859c-1.5-0.781-2.844-1.766-4.031-2.953s-2.177-2.537-2.969-4.047l1.859-0.766zM30.297 21.297l1.406 1.406-8.703 8.719-4.203-4.219 1.406-1.406 2.797 2.781 7.297-7.281zM30 16c0-0.708-0.057-1.411-0.172-2.109s-0.276-1.385-0.484-2.063l1.859-0.766c0.531 1.594 0.797 3.24 0.797 4.938h-2zM11.828 29.359c0.677 0.219 1.365 0.38 2.063 0.484s1.401 0.156 2.109 0.156v2c-1.708 0-3.359-0.266-4.953-0.797l0.781-1.844z"></path>
</symbol>
<symbol id="icon-two-stars" viewBox="0 0 27 32">
<path fill="none" stroke="#fff" style="stroke: var(--color1, #fff)" stroke-linejoin="round" stroke-linecap="round" stroke-miterlimit="4" stroke-width="0.9412" d="M1.222 9.662l6.188-2.253 2.251-6.187c0.052-0.142 0.146-0.264 0.269-0.351s0.271-0.133 0.422-0.133 0.298 0.046 0.422 0.133c0.124 0.087 0.217 0.209 0.269 0.351l2.253 6.188 6.188 2.251c0.142 0.052 0.264 0.146 0.351 0.269s0.133 0.271 0.133 0.422c0 0.151-0.046 0.298-0.133 0.422s-0.209 0.218-0.351 0.269l-6.19 2.253-2.251 6.188c-0.052 0.142-0.146 0.264-0.269 0.351s-0.271 0.133-0.422 0.133-0.298-0.046-0.422-0.133c-0.124-0.087-0.217-0.209-0.269-0.351l-2.253-6.19-6.187-2.251c-0.142-0.052-0.264-0.146-0.351-0.269s-0.133-0.271-0.133-0.422 0.046-0.298 0.133-0.422c0.087-0.124 0.209-0.217 0.351-0.269z"></path>
<path fill="#fff" style="fill: var(--color1, #fff)" d="M21.586 19.44c-0.299-0.822-1.461-0.822-1.76 0l-1.358 3.734-3.734 1.358c-0.822 0.299-0.822 1.461 0 1.76l3.734 1.358 1.358 3.734c0.299 0.822 1.461 0.822 1.76 0l1.358-3.734 3.734-1.358c0.822-0.299 0.822-1.461 0-1.76l-3.734-1.358-1.358-3.734z"></path>
</symbol>
<symbol id="icon-grommet-icons" viewBox="0 0 32 32">
<path fill="none" stroke="#fff" style="stroke: var(--color1, #fff)" stroke-linejoin="round" stroke-linecap="round" stroke-miterlimit="4" stroke-width="1" d="M13.333 6.667l2.667-2.667M10.667 21.333l10.667-10.667M16 28l2.667-2.667M22 25.333c0.884 0 1.732-0.351 2.357-0.976s0.976-1.473 0.976-2.357-0.351-1.732-0.976-2.357c-0.625-0.625-1.473-0.976-2.357-0.976s-1.732 0.351-2.357 0.976c-0.625 0.625-0.976 1.473-0.976 2.357s0.351 1.732 0.976 2.357c0.625 0.625 1.473 0.976 2.357 0.976zM10 13.333c0.884 0 1.732-0.351 2.357-0.976s0.976-1.473 0.976-2.357-0.351-1.732-0.976-2.357c-0.625-0.625-1.473-0.976-2.357-0.976s-1.732 0.351-2.357 0.976c-0.625 0.625-0.976 1.473-0.976 2.357s0.351 1.732 0.976 2.357c0.625 0.625 1.473 0.976 2.357 0.976zM7.333 28c0.884 0 1.732-0.351 2.357-0.976s0.976-1.473 0.976-2.357-0.351-1.732-0.976-2.357c-0.625-0.625-1.473-0.976-2.357-0.976s-1.732 0.351-2.357 0.976c-0.625 0.625-0.976 1.473-0.976 2.357s0.351 1.732 0.976 2.357c0.625 0.625 1.473 0.976 2.357 0.976zM24.667 10.667c0.884 0 1.732-0.351 2.357-0.976s0.976-1.473 0.976-2.357-0.351-1.732-0.976-2.357c-0.625-0.625-1.473-0.976-2.357-0.976s-1.732 0.351-2.357 0.976c-0.625 0.625-0.976 1.473-0.976 2.357s0.351 1.732 0.976 2.357c0.625 0.625 1.473 0.976 2.357 0.976z"></path>
</symbol>
<symbol id="icon-shield-protection" viewBox="0 0 32 32">
<path fill="#fff" style="fill: var(--color1, #fff)" d="M30 28.6l-2.8-2.8c0.5-0.8 0.8-1.8 0.8-2.8 0-2.8-2.2-5-5-5s-5 2.2-5 5c0 2.8 2.2 5 5 5 1 0 2-0.3 2.8-0.8l2.8 2.8 1.4-1.4zM20 23c0-1.7 1.3-3 3-3s3 1.3 3 3c0 1.7-1.3 3-3 3s-3-1.3-3-3zM8 16h10v2h-10v-2zM8 10h12v2h-12v-2z"></path>
<path fill="#fff" style="fill: var(--color1, #fff)" d="M14 27.7l-5.2-2.8c-3-1.5-4.8-4.6-4.8-7.9v-13h20v11h2v-11c0-1.1-0.9-2-2-2h-20c-1.1 0-2 0.9-2 2v13c0 4.1 2.2 7.8 5.8 9.7l6.2 3.3v-2.3z"></path>
</symbol>
<symbol id="icon-hands-heart" viewBox="0 0 32 32">
<path fill="#fff" style="fill: var(--color1, #fff)" opacity="0.88" d="M23.799 26.673c0.344-0.474 0.711-0.844 1.081-1.22 0.486-0.493 0.978-0.991 1.431-1.733 0.115-0.186 0.229-0.366 0.341-0.539 0.404-0.628 0.764-1.184 0.83-1.753 0.085-0.725 0.139-5.081-0.096-5.74s-1.591-1.028-2.060 0.447c-0.231 0.728-0.304 1.664-0.37 2.514-0.069 0.871-0.129 1.652-0.347 2.020-0.429 0.727-1.812 2.536-1.812 2.536l1.193-2.264c0 0 0.181-0.313 0.086-0.908s-0.815-1.428-1.153-0.766c-0.338 0.66-0.929 1.257-0.929 1.257l-2.087 2.515c0 0-0.68 0.882-0.699 1.365-0.006 0.162-0.107 0.521-0.222 0.927-0.129 0.459-0.276 0.978-0.322 1.342v0.883h5.132l0.001-0.883zM7.268 26.673c-0.346-0.474-0.714-0.844-1.084-1.22-0.489-0.493-0.981-0.991-1.436-1.733-0.115-0.186-0.229-0.366-0.342-0.54-0.406-0.627-0.766-1.182-0.833-1.751-0.086-0.726 0.18-5.082 0.415-5.741s1.596-1.028 2.067 0.447c0.231 0.728 0.305 1.664 0.372 2.514 0.068 0.871 0.129 1.652 0.347 2.020 0.431 0.727 1.818 2.536 1.818 2.536l-1.196-2.264c0 0-0.182-0.313-0.086-0.908s0.818-1.428 1.156-0.766c0.34 0.66 0.932 1.257 0.932 1.257l2.093 2.515c0 0 0.683 0.882 0.701 1.365 0.013 0.344 0.166 1.582 0.253 2.269v0.883h-5.176v-0.883zM12.25 4.444c-2.456 0-4.25 2.654-4.25 5.517 0 6.391 8 10.483 8 10.483s8-4.356 8-10.483c0-2.862-1.794-5.517-4.25-5.517-1.705 0-2.969 1.191-3.75 2.88-0.78-1.689-2.045-2.88-3.75-2.88z"></path>
<path fill="#fff" style="fill: var(--color1, #fff)" opacity="0.88" d="M0 29.333c0 0.707 0.281 1.386 0.781 1.886s1.178 0.781 1.886 0.781h26.667c0.707 0 1.386-0.281 1.886-0.781s0.781-1.178 0.781-1.886v-26.667c0-0.707-0.281-1.386-0.781-1.886s-1.178-0.781-1.886-0.781h-26.667c-0.707 0-1.386 0.281-1.886 0.781s-0.781 1.178-0.781 1.886v26.667zM1.778 2.667c0-0.236 0.094-0.462 0.26-0.629s0.393-0.26 0.629-0.26h26.667c0.236 0 0.462 0.094 0.629 0.26s0.26 0.393 0.26 0.629v26.667c0 0.236-0.094 0.462-0.26 0.629s-0.393 0.26-0.629 0.26h-5.333v-0.889c0-0.236-0.094-0.462-0.26-0.629s-0.393-0.26-0.629-0.26h-3.556c-0.236 0-0.462 0.094-0.629 0.26s-0.26 0.393-0.26 0.629v0.889h-6.222v-0.889c0-0.236-0.094-0.462-0.26-0.629s-0.393-0.26-0.629-0.26h-3.556c-0.236 0-0.462 0.094-0.629 0.26s-0.26 0.393-0.26 0.629v0.889h-4.444c-0.236 0-0.462-0.094-0.629-0.26s-0.26-0.393-0.26-0.629v-26.667z"></path>
</symbol>
<symbol id="icon-person-key" viewBox="0 0 32 32">
<path fill="#fff" style="fill: var(--color1, #fff)" opacity="0.88" d="M20.001 20.667c0-0.701 0.12-1.375 0.341-2h-12.004c-0.795 0-1.558 0.316-2.121 0.878s-0.879 1.325-0.879 2.12v0.769c0 1.191 0.427 2.341 1.2 3.247 1.859 2.18 4.588 3.376 8.129 3.612v-1.407c0-0.201 0.022-0.399 0.067-0.593-2.997-0.209-5.205-1.187-6.676-2.909-0.464-0.543-0.719-1.233-0.72-1.947v-0.771c0-0.265 0.105-0.52 0.293-0.707s0.442-0.293 0.707-0.293h11.663zM16.001 2.672c1.768 0 3.464 0.702 4.714 1.953s1.953 2.946 1.953 4.714c0 1.768-0.702 3.464-1.953 4.714s-2.946 1.953-4.714 1.953c-1.768 0-3.464-0.702-4.714-1.953s-1.953-2.946-1.953-4.714c0-1.768 0.702-3.464 1.953-4.714s2.946-1.953 4.714-1.953zM16.001 4.672c-1.238 0-2.425 0.492-3.3 1.367s-1.367 2.062-1.367 3.3c0 1.238 0.492 2.425 1.367 3.3s2.062 1.367 3.3 1.367c1.238 0 2.425-0.492 3.3-1.367s1.367-2.062 1.367-3.3c0-1.238-0.492-2.425-1.367-3.3s-2.062-1.367-3.3-1.367zM26.001 25.333c0.974-0 1.923-0.305 2.715-0.872s1.386-1.367 1.701-2.289 0.332-1.919 0.051-2.851c-0.281-0.933-0.847-1.754-1.618-2.349s-1.709-0.934-2.682-0.969c-0.973-0.035-1.933 0.235-2.745 0.773s-1.435 1.316-1.783 2.226-0.402 1.905-0.155 2.848l-5.093 5.093c-0.25 0.25-0.391 0.589-0.391 0.943v2.115c0 0.177 0.070 0.346 0.195 0.471s0.295 0.195 0.471 0.195h2.667c0.177 0 0.346-0.070 0.471-0.195s0.195-0.295 0.195-0.471v-0.667h1.333c0.177 0 0.346-0.070 0.471-0.195s0.195-0.295 0.195-0.471v-1.333h1.333c0.177 0 0.346-0.070 0.471-0.195s0.195-0.295 0.195-0.471v-1.333h2zM26.667 18.667c0.354 0 0.693 0.14 0.943 0.391s0.39 0.589 0.39 0.943c0 0.354-0.14 0.693-0.39 0.943s-0.589 0.391-0.943 0.391c-0.354 0-0.693-0.14-0.943-0.391s-0.39-0.589-0.39-0.943c0-0.354 0.14-0.693 0.39-0.943s0.589-0.391 0.943-0.391z"></path>
</symbol>
<symbol id="icon-filter" viewBox="0 0 32 32">
<path fill="none" stroke="#fff" style="stroke: var(--color1, #fff)" stroke-linejoin="round" stroke-linecap="round" stroke-miterlimit="4" stroke-width="2" d="M5.333 4h21.333c0.354 0 0.693 0.14 0.943 0.391s0.391 0.589 0.391 0.943v2.115c-0 0.354-0.141 0.693-0.391 0.943l-8.552 8.552c-0.25 0.25-0.391 0.589-0.391 0.943v8.407c0 0.203-0.046 0.403-0.135 0.585s-0.218 0.342-0.378 0.466-0.346 0.211-0.544 0.253c-0.198 0.042-0.404 0.038-0.6-0.011l-2.667-0.667c-0.288-0.072-0.544-0.239-0.727-0.473s-0.282-0.523-0.282-0.82v-7.74c-0-0.354-0.141-0.693-0.391-0.943l-8.552-8.552c-0.25-0.25-0.391-0.589-0.391-0.943v-2.115c0-0.354 0.14-0.693 0.391-0.943s0.589-0.391 0.943-0.391z"></path>
</symbol>
<symbol id="icon-tick" viewBox="0 0 32 32">
<path fill="none" stroke="#fff" style="stroke: var(--color1, #fff)" stroke-linejoin="round" stroke-linecap="round" stroke-miterlimit="4" stroke-width="3.4286" d="M5.5 17.5l7 7 14-15"></path>
</symbol>
</svg>
</svg>
