<svg aria-hidden="true" style="position: absolute; width: 0; height: 0; overflow: hidden;" version="1.1" xmlns="http://www.w3.org/2000/svg" xmlns:xlink="http://www.w3.org/1999/xlink">
<defs>
<symbol id="icon-game" viewBox="0 0 32 32">
<path fill="#fff" style="fill: var(--color1, #fff)" d="M4.084 10.040c2.28-4.548 6.845-7.373 11.916-7.373 7.352 0 13.333 5.981 13.333 13.333s-5.981 13.333-13.333 13.333c-5.071 0-9.636-2.825-11.916-7.373-0.153-0.305-0.183-0.656-0.085-0.983s0.318-0.603 0.614-0.772l7.364-4.205-7.363-4.204c-0.615-0.352-0.848-1.123-0.531-1.756zM15.328 14.843c0.204 0.116 0.374 0.285 0.492 0.488s0.18 0.434 0.18 0.669c0 0.235-0.062 0.466-0.18 0.669s-0.288 0.372-0.492 0.488l-8.231 4.7c0.965 1.48 2.285 2.696 3.84 3.536s3.295 1.278 5.062 1.274c5.881 0 10.667-4.785 10.667-10.667s-4.785-10.667-10.667-10.667c-1.767-0.004-3.507 0.434-5.062 1.273s-2.875 2.055-3.841 3.535l8.231 4.701z"></path>
<path fill="#fff" style="fill: var(--color1, #fff)" d="M16.667 12c-1.105 0-2-0.895-2-2s0.895-2 2-2c1.105 0 2 0.895 2 2s-0.895 2-2 2z"></path>
</symbol>
<symbol id="icon-close" viewBox="0 0 32 32">
<path d="M1.074 1.074c0.669-0.669 1.755-0.669 2.424 0l12.502 12.502 12.502-12.502c0.669-0.669 1.755-0.669 2.424 0s0.669 1.755 0 2.424l-12.502 12.502 12.502 12.502c0.669 0.669 0.669 1.755 0 2.424s-1.755 0.669-2.424 0l-12.502-12.502-12.502 12.502c-0.669 0.669-1.755 0.669-2.424 0s-0.669-1.755 0-2.424l12.502-12.502-12.502-12.502c-0.669-0.669-0.669-1.755 0-2.424z"></path>
</symbol>
<symbol id="icon-open" viewBox="0 0 37 32">
<path d="M0 1.714c0-0.947 0.767-1.714 1.714-1.714h33.143c0.947 0 1.714 0.767 1.714 1.714s-0.768 1.714-1.714 1.714h-33.143c-0.947 0-1.714-0.768-1.714-1.714zM0 11.238c0-0.947 0.767-1.714 1.714-1.714h33.143c0.947 0 1.714 0.768 1.714 1.714s-0.768 1.714-1.714 1.714h-33.143c-0.947 0-1.714-0.768-1.714-1.714zM0 20.762c0-0.947 0.767-1.714 1.714-1.714h33.143c0.947 0 1.714 0.768 1.714 1.714s-0.768 1.714-1.714 1.714h-33.143c-0.947 0-1.714-0.767-1.714-1.714zM0 30.286c0-0.947 0.767-1.714 1.714-1.714h33.143c0.947 0 1.714 0.768 1.714 1.714s-0.768 1.714-1.714 1.714h-33.143c-0.947 0-1.714-0.768-1.714-1.714z"></path>
</symbol>
<symbol id="icon-telegram" viewBox="0 0 32 32">
<path fill="#fff" style="fill: var(--color1, #fff)" d="M32 16c0 8.837-7.163 16-16 16s-16-7.163-16-16c0-8.837 7.163-16 16-16s16 7.163 16 16zM16.573 11.812c-1.556 0.647-4.667 1.987-9.331 4.019-0.757 0.301-1.154 0.596-1.19 0.884-0.061 0.487 0.549 0.679 1.379 0.94 0.113 0.036 0.23 0.072 0.35 0.111 0.817 0.266 1.916 0.576 2.487 0.589 0.518 0.011 1.097-0.202 1.735-0.641 4.358-2.942 6.608-4.429 6.749-4.461 0.1-0.023 0.238-0.051 0.331 0.032s0.084 0.241 0.074 0.283c-0.060 0.258-2.454 2.483-3.693 3.634-0.386 0.359-0.66 0.614-0.716 0.672-0.125 0.13-0.253 0.253-0.376 0.372-0.759 0.732-1.328 1.28 0.031 2.176 0.653 0.431 1.176 0.787 1.698 1.142 0.57 0.388 1.138 0.775 1.873 1.257 0.187 0.123 0.366 0.25 0.54 0.375 0.663 0.473 1.258 0.897 1.994 0.829 0.428-0.039 0.869-0.441 1.093-1.64 0.53-2.834 1.572-8.973 1.813-11.503 0.021-0.222-0.005-0.505-0.027-0.63s-0.066-0.302-0.228-0.433c-0.192-0.156-0.488-0.188-0.62-0.186-0.602 0.011-1.525 0.332-5.968 2.18z"></path>
</symbol>
<symbol id="icon-whats-app" viewBox="0 0 32 32">
<path fill="#fff" style="fill: var(--color1, #fff)" d="M0 32l2.249-8.217c-1.388-2.405-2.117-5.132-2.116-7.928 0.004-8.741 7.117-15.855 15.857-15.855 4.241 0.001 8.223 1.653 11.217 4.651 2.993 2.997 4.641 6.981 4.64 11.219-0.004 8.743-7.117 15.856-15.857 15.856-2.653-0.001-5.268-0.667-7.584-1.931l-8.407 2.205zM8.796 26.924c2.235 1.327 4.368 2.121 7.189 2.123 7.264 0 13.181-5.912 13.185-13.18 0.003-7.283-5.887-13.187-13.175-13.189-7.269 0-13.183 5.912-13.185 13.179-0.001 2.967 0.868 5.188 2.328 7.512l-1.332 4.864 4.989-1.308zM23.979 19.639c-0.099-0.165-0.363-0.264-0.76-0.463-0.396-0.199-2.344-1.157-2.708-1.289-0.363-0.132-0.627-0.199-0.892 0.199-0.264 0.396-1.024 1.289-1.255 1.553s-0.463 0.297-0.859 0.099c-0.396-0.199-1.673-0.616-3.187-1.967-1.177-1.051-1.973-2.348-2.204-2.745-0.231-0.396-0.024-0.611 0.173-0.808 0.179-0.177 0.396-0.463 0.595-0.695 0.201-0.229 0.267-0.395 0.4-0.66 0.132-0.264 0.067-0.496-0.033-0.695-0.1-0.197-0.892-2.148-1.221-2.941-0.323-0.772-0.649-0.668-0.892-0.68l-0.76-0.013c-0.264 0-0.693 0.099-1.056 0.496s-1.387 1.355-1.387 3.305c0 1.951 1.42 3.835 1.617 4.099 0.199 0.264 2.793 4.267 6.768 5.983 0.945 0.408 1.684 0.652 2.259 0.835 0.949 0.301 1.813 0.259 2.496 0.157 0.761-0.113 2.344-0.959 2.675-1.884 0.331-0.927 0.331-1.72 0.231-1.885z"></path>
</symbol>
<symbol id="icon-youtube" viewBox="0 0 32 32">
<path fill="#fff" style="fill: var(--color1, #fff)" d="M31.681 9.6c0 0-0.313-2.206-1.275-3.175-1.219-1.275-2.581-1.281-3.206-1.356-4.475-0.325-11.194-0.325-11.194-0.325h-0.013c0 0-6.719 0-11.194 0.325-0.625 0.075-1.987 0.081-3.206 1.356-0.963 0.969-1.269 3.175-1.269 3.175s-0.325 2.594-0.325 5.181v2.425c0 2.587 0.319 5.181 0.319 5.181s0.312 2.206 1.269 3.175c1.219 1.275 2.819 1.231 3.531 1.369 2.563 0.244 10.881 0.319 10.881 0.319s6.725-0.013 11.2-0.331c0.625-0.075 1.987-0.081 3.206-1.356 0.962-0.969 1.275-3.175 1.275-3.175s0.319-2.587 0.319-5.181v-2.425c0-2.588-0.319-5.181-0.319-5.181zM12.694 20.15v-8.994l8.644 4.512-8.644 4.481z"></path>
</symbol>
<symbol id="icon-google" viewBox="0 0 32 32">
<path fill="#fff" style="fill: var(--color1, #fff)" d="M16 13.091v6.196h8.611c-0.378 1.993-1.513 3.68-3.215 4.815l5.193 4.029c3.025-2.793 4.771-6.894 4.771-11.767 0-1.135-0.102-2.226-0.291-3.273l-15.069-0z"></path>
<path fill="#fff" style="fill: var(--color1, #fff)" d="M7.033 19.045l-1.171 0.896-4.146 3.229c2.633 5.222 8.029 8.829 14.283 8.829 4.32 0 7.942-1.425 10.589-3.869l-5.193-4.029c-1.425 0.96-3.244 1.542-5.396 1.542-4.16 0-7.694-2.807-8.96-6.589l-0.007-0.009z"></path>
<path fill="#fff" style="fill: var(--color1, #fff)" d="M1.716 8.829c-1.091 2.153-1.716 4.582-1.716 7.171s0.625 5.018 1.716 7.171c0 0.014 5.324-4.131 5.324-4.131-0.32-0.96-0.509-1.978-0.509-3.040s0.189-2.080 0.509-3.040l-5.324-4.131z"></path>
<path fill="#fff" style="fill: var(--color1, #fff)" d="M16 6.371c2.356 0 4.451 0.814 6.124 2.385l4.582-4.582c-2.778-2.589-6.385-4.175-10.705-4.175-6.254 0-11.651 3.593-14.284 8.829l5.324 4.131c1.265-3.782 4.8-6.589 8.96-6.589z"></path>
</symbol>
<symbol id="icon-linkedIn" viewBox="0 0 32 32">
<path fill="#fff" style="fill: var(--color1, #fff)" d="M29.631 0h-27.269c-1.306 0-2.362 1.031-2.362 2.306v27.381c0 1.275 1.056 2.313 2.362 2.313h27.269c1.306 0 2.369-1.037 2.369-2.306v-27.387c0-1.275-1.063-2.306-2.369-2.306zM9.494 27.269h-4.75v-15.275h4.75v15.275zM7.119 9.913c-1.525 0-2.756-1.231-2.756-2.75s1.231-2.75 2.756-2.75c1.519 0 2.75 1.231 2.75 2.75 0 1.513-1.231 2.75-2.75 2.75zM27.269 27.269h-4.744v-7.425c0-1.769-0.031-4.050-2.469-4.050-2.469 0-2.844 1.931-2.844 3.925v7.55h-4.737v-15.275h4.55v2.088h0.062c0.631-1.2 2.181-2.469 4.488-2.469 4.806 0 5.694 3.162 5.694 7.275v8.381z"></path>
</symbol>
<symbol id="icon-instagram" viewBox="0 0 32 32">
<path fill="#fff" style="fill: var(--color1, #fff)" d="M16 2.881c4.275 0 4.781 0.019 6.463 0.094 1.562 0.069 2.406 0.331 2.969 0.55 0.744 0.288 1.281 0.638 1.837 1.194 0.563 0.563 0.906 1.094 1.194 1.838 0.219 0.562 0.481 1.412 0.55 2.969 0.075 1.687 0.094 2.194 0.094 6.463 0 4.275-0.019 4.781-0.094 6.462-0.069 1.563-0.331 2.406-0.55 2.969-0.288 0.744-0.638 1.281-1.194 1.838-0.562 0.562-1.094 0.906-1.837 1.194-0.563 0.219-1.413 0.481-2.969 0.55-1.688 0.075-2.194 0.094-6.463 0.094-4.275 0-4.781-0.019-6.462-0.094-1.563-0.069-2.406-0.331-2.969-0.55-0.744-0.287-1.281-0.637-1.837-1.194-0.563-0.563-0.906-1.094-1.194-1.838-0.219-0.562-0.481-1.412-0.55-2.969-0.075-1.687-0.094-2.194-0.094-6.462 0-4.275 0.019-4.781 0.094-6.463 0.069-1.563 0.331-2.406 0.55-2.969 0.288-0.744 0.638-1.281 1.194-1.838 0.563-0.563 1.094-0.906 1.838-1.194 0.563-0.219 1.412-0.481 2.969-0.55 1.681-0.075 2.187-0.094 6.462-0.094zM16 0c-4.344 0-4.887 0.019-6.594 0.094-1.7 0.075-2.869 0.35-3.881 0.744-1.056 0.412-1.95 0.956-2.837 1.85-0.894 0.888-1.438 1.781-1.85 2.831-0.394 1.019-0.669 2.181-0.744 3.881-0.075 1.712-0.094 2.256-0.094 6.6s0.019 4.887 0.094 6.594c0.075 1.7 0.35 2.869 0.744 3.881 0.413 1.056 0.956 1.95 1.85 2.838 0.887 0.887 1.781 1.437 2.831 1.844 1.019 0.394 2.181 0.669 3.881 0.744 1.706 0.075 2.25 0.094 6.594 0.094s4.888-0.019 6.594-0.094c1.7-0.075 2.869-0.35 3.881-0.744 1.050-0.406 1.944-0.956 2.831-1.844s1.438-1.781 1.844-2.831c0.394-1.019 0.669-2.181 0.744-3.881 0.075-1.706 0.094-2.25 0.094-6.594s-0.019-4.888-0.094-6.594c-0.075-1.7-0.35-2.869-0.744-3.881-0.394-1.063-0.937-1.956-1.831-2.844-0.888-0.887-1.781-1.438-2.831-1.844-1.019-0.394-2.181-0.669-3.881-0.744-1.712-0.081-2.256-0.1-6.6-0.1z"></path>
<path fill="#fff" style="fill: var(--color1, #fff)" d="M16 7.781c-4.537 0-8.219 3.681-8.219 8.219s3.681 8.219 8.219 8.219c4.537 0 8.219-3.681 8.219-8.219s-3.681-8.219-8.219-8.219zM16 21.331c-2.944 0-5.331-2.388-5.331-5.331s2.388-5.331 5.331-5.331c2.944 0 5.331 2.388 5.331 5.331s-2.388 5.331-5.331 5.331z"></path>
<path fill="#fff" style="fill: var(--color1, #fff)" d="M26.462 7.456c0 1.062-0.862 1.919-1.919 1.919-1.062 0-1.919-0.862-1.919-1.919 0-1.063 0.863-1.919 1.919-1.919s1.919 0.862 1.919 1.919z"></path>
</symbol>
</defs>
</svg>
