<svg aria-hidden="true" style="position: absolute; width: 0; height: 0; overflow: hidden;" version="1.1" xmlns="http://www.w3.org/2000/svg" xmlns:xlink="http://www.w3.org/1999/xlink">
<defs>
<symbol id="icon-game" viewBox="0 0 32 32">
<path fill="#fff" style="fill: var(--color1, #fff)" d="M4.084 10.040c2.28-4.548 6.845-7.373 11.916-7.373 7.352 0 13.333 5.981 13.333 13.333s-5.981 13.333-13.333 13.333c-5.071 0-9.636-2.825-11.916-7.373-0.153-0.305-0.183-0.656-0.085-0.983s0.318-0.603 0.614-0.772l7.364-4.205-7.363-4.204c-0.615-0.352-0.848-1.123-0.531-1.756zM15.328 14.843c0.204 0.116 0.374 0.285 0.492 0.488s0.18 0.434 0.18 0.669c0 0.235-0.062 0.466-0.18 0.669s-0.288 0.372-0.492 0.488l-8.231 4.7c0.965 1.48 2.285 2.696 3.84 3.536s3.295 1.278 5.062 1.274c5.881 0 10.667-4.785 10.667-10.667s-4.785-10.667-10.667-10.667c-1.767-0.004-3.507 0.434-5.062 1.273s-2.875 2.055-3.841 3.535l8.231 4.701z"></path>
<path fill="#fff" style="fill: var(--color1, #fff)" d="M16.667 12c-1.105 0-2-0.895-2-2s0.895-2 2-2c1.105 0 2 0.895 2 2s-0.895 2-2 2z"></path>
</symbol>
<symbol id="icon-close" viewBox="0 0 32 32">
<path d="M1.074 1.074c0.669-0.669 1.755-0.669 2.424 0l12.502 12.502 12.502-12.502c0.669-0.669 1.755-0.669 2.424 0s0.669 1.755 0 2.424l-12.502 12.502 12.502 12.502c0.669 0.669 0.669 1.755 0 2.424s-1.755 0.669-2.424 0l-12.502-12.502-12.502 12.502c-0.669 0.669-1.755 0.669-2.424 0s-0.669-1.755 0-2.424l12.502-12.502-12.502-12.502c-0.669-0.669-0.669-1.755 0-2.424z"></path>
</symbol>
<symbol id="icon-open" viewBox="0 0 37 32">
<path d="M0 1.714c0-0.947 0.767-1.714 1.714-1.714h33.143c0.947 0 1.714 0.767 1.714 1.714s-0.768 1.714-1.714 1.714h-33.143c-0.947 0-1.714-0.768-1.714-1.714zM0 11.238c0-0.947 0.767-1.714 1.714-1.714h33.143c0.947 0 1.714 0.768 1.714 1.714s-0.768 1.714-1.714 1.714h-33.143c-0.947 0-1.714-0.768-1.714-1.714zM0 20.762c0-0.947 0.767-1.714 1.714-1.714h33.143c0.947 0 1.714 0.768 1.714 1.714s-0.768 1.714-1.714 1.714h-33.143c-0.947 0-1.714-0.767-1.714-1.714zM0 30.286c0-0.947 0.767-1.714 1.714-1.714h33.143c0.947 0 1.714 0.768 1.714 1.714s-0.768 1.714-1.714 1.714h-33.143c-0.947 0-1.714-0.768-1.714-1.714z"></path>
</symbol>
<symbol id="icon-instagram" viewBox="0 0 32 32">
<path fill="none" stroke="#fff" style="stroke: var(--color1, #fff)" stroke-linejoin="miter" stroke-linecap="butt" stroke-miterlimit="4" stroke-width="2.6667" d="M4 14.667c0-5.028 0-7.543 1.563-9.104s4.076-1.563 9.104-1.563h2.667c5.028 0 7.543 0 9.104 1.563s1.563 4.076 1.563 9.104v2.667c0 5.028 0 7.543-1.563 9.104s-4.076 1.563-9.104 1.563h-2.667c-5.028 0-7.543 0-9.104-1.563s-1.563-4.076-1.563-9.104v-2.667z"></path>
<path fill="#fff" style="fill: var(--color1, #fff)" d="M22 12c1.105 0 2-0.895 2-2s-0.895-2-2-2c-1.105 0-2 0.895-2 2s0.895 2 2 2z"></path>
<path fill="none" stroke="#fff" style="stroke: var(--color1, #fff)" stroke-linejoin="miter" stroke-linecap="butt" stroke-miterlimit="4" stroke-width="2.6667" d="M16 20c2.209 0 4-1.791 4-4s-1.791-4-4-4c-2.209 0-4 1.791-4 4s1.791 4 4 4z"></path>
</symbol>
<symbol id="icon-whatsapp" viewBox="0 0 32 32">
<path fill="#fff" style="fill: var(--color1, #fff)" d="M25.4 6.547c-1.223-1.235-2.679-2.213-4.283-2.88s-3.326-1.006-5.063-1c-7.28 0-13.213 5.933-13.213 13.213 0 2.333 0.613 4.6 1.76 6.6l-1.867 6.853 7-1.84c1.933 1.053 4.107 1.613 6.32 1.613 7.28 0 13.213-5.933 13.213-13.213 0-3.533-1.373-6.853-3.867-9.347zM16.053 26.867c-1.973 0-3.907-0.533-5.6-1.533l-0.4-0.24-4.16 1.093 1.107-4.053-0.267-0.413c-1.097-1.751-1.679-3.774-1.68-5.84 0-6.053 4.933-10.987 10.987-10.987 2.933 0 5.693 1.147 7.76 3.227 1.023 1.018 1.835 2.23 2.386 3.564s0.833 2.765 0.827 4.209c0.027 6.053-4.907 10.973-10.96 10.973zM22.080 18.653c-0.333-0.16-1.96-0.96-2.253-1.080-0.307-0.107-0.52-0.16-0.747 0.16-0.227 0.333-0.853 1.080-1.040 1.293-0.187 0.227-0.387 0.253-0.72 0.080-0.333-0.16-1.4-0.52-2.653-1.64-0.987-0.88-1.64-1.96-1.84-2.293-0.187-0.333-0.027-0.507 0.147-0.68 0.147-0.147 0.333-0.387 0.493-0.573s0.227-0.333 0.333-0.547c0.107-0.227 0.053-0.413-0.027-0.573s-0.747-1.787-1.013-2.453c-0.267-0.64-0.547-0.56-0.747-0.573h-0.64c-0.227 0-0.573 0.080-0.88 0.413-0.293 0.333-1.147 1.133-1.147 2.76s1.187 3.2 1.347 3.413c0.16 0.227 2.333 3.56 5.64 4.987 0.787 0.347 1.4 0.547 1.88 0.693 0.787 0.253 1.507 0.213 2.080 0.133 0.64-0.093 1.96-0.8 2.227-1.573 0.28-0.773 0.28-1.427 0.187-1.573s-0.293-0.213-0.627-0.373z"></path>
</symbol>
<symbol id="icon-youtube" viewBox="0 0 32 32">
<path fill="#fff" style="fill: var(--color1, #fff)" d="M16 5.333c1.14 0 2.309 0.029 3.443 0.077l1.339 0.064 1.281 0.076 1.2 0.081 1.096 0.085c1.19 0.091 2.309 0.598 3.161 1.433s1.382 1.944 1.497 3.131l0.053 0.567 0.1 1.213c0.093 1.257 0.163 2.628 0.163 3.939s-0.069 2.681-0.163 3.939l-0.1 1.213-0.053 0.567c-0.115 1.188-0.645 2.297-1.498 3.132s-1.972 1.342-3.162 1.432l-1.093 0.084-1.2 0.083-1.283 0.076-1.339 0.064c-1.147 0.050-2.295 0.075-3.443 0.077-1.148-0.002-2.296-0.028-3.443-0.077l-1.339-0.064-1.281-0.076-1.2-0.083-1.096-0.084c-1.19-0.091-2.309-0.598-3.161-1.433s-1.382-1.944-1.497-3.131l-0.053-0.567-0.1-1.213c-0.102-1.311-0.156-2.624-0.163-3.939 0-1.311 0.069-2.681 0.163-3.939l0.1-1.213 0.053-0.567c0.115-1.187 0.645-2.296 1.497-3.131s1.971-1.342 3.16-1.433l1.095-0.085 1.2-0.081 1.283-0.076 1.339-0.064c1.147-0.050 2.296-0.075 3.444-0.077zM16 8c-1.1 0-2.232 0.029-3.333 0.075l-1.304 0.063-1.252 0.073-1.176 0.080-1.077 0.084c-0.566 0.040-1.1 0.279-1.507 0.675s-0.66 0.924-0.714 1.489c-0.156 1.612-0.303 3.619-0.303 5.461s0.147 3.849 0.303 5.461c0.113 1.163 1.036 2.067 2.221 2.164l1.077 0.083 1.176 0.080 1.252 0.075 1.304 0.063c1.101 0.045 2.233 0.075 3.333 0.075s2.232-0.029 3.333-0.075l1.304-0.063 1.252-0.073 1.176-0.080 1.077-0.084c0.566-0.040 1.1-0.279 1.507-0.675s0.66-0.924 0.714-1.489c0.156-1.612 0.303-3.619 0.303-5.461s-0.147-3.849-0.303-5.461c-0.054-0.565-0.307-1.093-0.714-1.489s-0.941-0.635-1.507-0.675l-1.077-0.083-1.176-0.080-1.252-0.075-1.304-0.063c-1.111-0.048-2.222-0.073-3.333-0.075zM13.333 12.767c-0-0.13 0.032-0.259 0.093-0.374s0.149-0.214 0.257-0.287c0.108-0.073 0.231-0.12 0.361-0.134s0.261 0.003 0.382 0.050l0.108 0.053 5.6 3.232c0.111 0.064 0.206 0.155 0.275 0.263s0.111 0.232 0.122 0.361c0.011 0.128-0.009 0.257-0.058 0.376s-0.127 0.224-0.226 0.307l-0.113 0.080-5.6 3.233c-0.113 0.065-0.24 0.102-0.37 0.107s-0.26-0.022-0.377-0.078c-0.118-0.057-0.219-0.141-0.297-0.246s-0.128-0.227-0.147-0.356l-0.008-0.12v-6.467z"></path>
</symbol>
<symbol id="icon-linkedin" viewBox="0 0 32 32">
<path fill="#fff" style="fill: var(--color1, #fff)" d="M9.253 6.667c-0 0.707-0.282 1.385-0.782 1.885s-1.179 0.78-1.886 0.78c-0.707-0-1.385-0.282-1.885-0.782s-0.78-1.179-0.78-1.886c0-0.707 0.282-1.385 0.782-1.885s1.179-0.78 1.886-0.78c0.707 0 1.385 0.282 1.885 0.782s0.78 1.179 0.78 1.886zM9.333 11.307h-5.333v16.693h5.333v-16.693zM17.76 11.307h-5.307v16.693h5.253v-8.76c0-4.88 6.36-5.333 6.36 0v8.76h5.267v-10.573c0-8.227-9.413-7.92-11.627-3.88l0.053-2.24z"></path>
</symbol>
<symbol id="icon-telegram" viewBox="0 0 32 32">
<path fill="#fff" style="fill: var(--color1, #fff)" d="M29.12 8.075c0.058-0.353 0.021-0.715-0.109-1.048s-0.346-0.626-0.627-0.848c-0.281-0.221-0.616-0.363-0.971-0.411s-0.715 0-1.045 0.139l-22.8 9.6c-1.589 0.669-1.671 2.968 0 3.661 1.655 0.689 3.333 1.32 5.032 1.891 1.557 0.515 3.256 0.991 4.617 1.125 0.372 0.445 0.84 0.875 1.317 1.267 0.729 0.6 1.607 1.217 2.513 1.809 1.816 1.187 3.831 2.321 5.188 3.060 1.623 0.88 3.565-0.133 3.856-1.903l3.027-18.343zM6.125 17.324l20.165-8.491-2.824 17.12c-1.332-0.724-3.251-1.808-4.96-2.925-0.788-0.506-1.548-1.053-2.279-1.639-0.195-0.159-0.385-0.326-0.568-0.499l5.281-5.28c0.25-0.25 0.391-0.589 0.391-0.943s-0.14-0.693-0.39-0.943-0.589-0.391-0.943-0.391c-0.354-0-0.693 0.14-0.943 0.39l-5.783 5.783c-0.979-0.125-2.341-0.488-3.837-0.981-1.114-0.371-2.217-0.772-3.309-1.203l-0.001 0.001z"></path>
</symbol>
<symbol id="icon-video" viewBox="0 0 32 32">
<path fill="none" stroke="#fff" style="stroke: var(--color1, #fff)" stroke-linejoin="round" stroke-linecap="round" stroke-miterlimit="4" stroke-width="2" d="M1.568 22.957v-13.913c0-0.984 0.338-1.928 0.939-2.623s1.417-1.087 2.268-1.087h13.63c0.851 0 1.666 0.391 2.268 1.087s0.939 1.639 0.939 2.623v13.913c0 0.984-0.338 1.928-0.939 2.623s-1.417 1.087-2.268 1.087h-13.63c-0.851 0-1.666-0.391-2.268-1.087s-0.939-1.639-0.939-2.623zM29.097 6.708l-6.414 6.61c-0.085 0.087-0.152 0.193-0.199 0.313s-0.071 0.248-0.071 0.379v3.298c0 0.131 0.024 0.26 0.071 0.379s0.114 0.226 0.199 0.313l6.414 6.61c0.115 0.119 0.258 0.196 0.411 0.223s0.309 0.003 0.45-0.071c0.141-0.073 0.261-0.192 0.344-0.342s0.129-0.325 0.129-0.504v-16.514c0-0.179-0.045-0.354-0.129-0.504s-0.203-0.269-0.344-0.342c-0.141-0.073-0.297-0.098-0.45-0.071s-0.296 0.105-0.411 0.223z"></path>
</symbol>
<symbol id="icon-web" viewBox="0 0 32 32">
<path fill="none" stroke="#fff" style="stroke: var(--color1, #fff)" stroke-linejoin="round" stroke-linecap="round" stroke-miterlimit="4" stroke-width="2.2857" d="M30.857 16c0 3.94-1.565 7.719-4.351 10.506s-6.565 4.352-10.506 4.352c-3.94 0-7.719-1.565-10.506-4.352s-4.352-6.565-4.352-10.506M30.857 16c0-3.94-1.565-7.719-4.351-10.506s-6.565-4.352-10.506-4.352c-3.94 0-7.719 1.565-10.506 4.352s-4.352 6.565-4.352 10.506M30.857 16h-29.714"></path>
<path fill="none" stroke="#fff" style="stroke: var(--color1, #fff)" stroke-linejoin="round" stroke-linecap="round" stroke-miterlimit="4" stroke-width="2.2857" d="M21.714 16c-0.281 5.433-2.282 10.636-5.714 14.857-3.432-4.221-5.434-9.424-5.714-14.857 0.281-5.433 2.282-10.636 5.714-14.857 3.432 4.221 5.434 9.424 5.714 14.857z"></path>
</symbol>
<symbol id="icon-mobile" viewBox="0 0 32 32">
<path fill="#fff" style="fill: var(--color1, #fff)" d="M24.833 0h-17c-0.663 0-1.299 0.263-1.768 0.732s-0.732 1.105-0.732 1.768v27c0 0.663 0.263 1.299 0.732 1.768s1.105 0.732 1.768 0.732h17c0.663 0 1.299-0.263 1.768-0.732s0.732-1.105 0.732-1.768v-27c0-0.663-0.263-1.299-0.732-1.768s-1.105-0.732-1.768-0.732zM24.833 29.5h-17v-27h17v27z"></path>
<path fill="#fff" style="fill: var(--color1, #fff)" d="M16 27c0.884 0 1.6-0.672 1.6-1.5s-0.716-1.5-1.6-1.5c-0.884 0-1.6 0.672-1.6 1.5s0.716 1.5 1.6 1.5z"></path>
</symbol>
<symbol id="icon-trust" viewBox="0 0 49 32">
<path fill="none" stroke="#fff" style="stroke: var(--color1, #fff)" stroke-linejoin="miter" stroke-linecap="round" stroke-miterlimit="4" stroke-width="0.9057" d="M0.604 29.537c3.003-0.626 6.186-3.317 8.698-4.97 2.139-1.407 4.346-2.806 6.395-4.342 0.546-0.41 1.237-1.113 1.927-1.257 0.574-0.12 0.707 1.469 0.796 1.773 0.953 3.253 1.641 6.573 2.681 9.801 0.384 1.193 0.699 1.089 1.661 0.196 2.595-2.41 5.373-4.588 7.986-6.981 4.129-3.782 7.196-8.294 10.765-12.566 1.459-1.747 3.494-3.882 4.468-5.976 0.399-0.858 0.799-1.525 1.466-2.192 0.433-0.433 1.159-2.831 1.159-1.103 0 0.554-0.251 2.939-0.251 2.569 0-1.186 0.339-2.367 0.251-3.546-0.085-1.156-2.493 0.988-2.764 1.326-0.428 0.535-1.198 0.599-1.759 0.88"></path>
</symbol>
<symbol id="icon-sight" viewBox="0 0 50 32">
<path fill="none" stroke="#fff" style="stroke: var(--color1, #fff)" stroke-linejoin="miter" stroke-linecap="round" stroke-miterlimit="4" stroke-width="1.3521" d="M21.189 16.107c-1.298-2.809-2.588-5.571-4.127-8.254-1.125-1.962-2.28-4.956-4.148-6.358-1.339-1.004-4.53-0.44-6.066-0.396-6.688 0.191-5.92 8.602-5.92 13.299 0 1.389 0.763 2.349 1.105 3.648 0.472 1.795 0.55 3.73 1.146 5.482 0.263 0.774 0.225 3.46 1.376 3.46 9.631 0 18.037-6.624 24.221-13.507 2.677-2.979 5.712-5.754 8.546-8.588 0.926-0.926 3.048-2.281 4.502-1.918 1.242 0.31 1.922 3.16 2.335 4.127 1.135 2.666 2.491 5.248 3.085 8.109 0.804 3.875 1.334 7.841 1.334 11.798 0 1.896-0.726 3.89-3.002 4.106-1.777 0.169-2.483-1.086-3.731-2.251-2.729-2.547-5.696-4.955-8.734-7.129-1.677-1.2-4.486-3.377-6.67-3.377"></path>
</symbol>
<symbol id="icon-clients" viewBox="0 0 27 32">
<path fill="none" stroke="#fff" style="stroke: var(--color1, #fff)" stroke-linejoin="miter" stroke-linecap="round" stroke-miterlimit="4" stroke-width="0.9231" d="M0.615 30.674c2.678-3.554 4.939-7.169 7.371-10.844 0.49-0.74 0.777-1.54 1.21-2.305 0.354-0.626 1.015-0.987 1.38-1.58 0.701-1.139 1.761-3.392 3.102-3.913 0.341-0.133 2.955 4.288 3.387 4.81 1.28 1.544 2.134 3.404 3.316 5.038 1.397 1.93 2.668 3.936 4.070 5.863 0.869 1.195 1.993 2.211 2.291 3.7"></path>
<path fill="none" stroke="#fff" style="stroke: var(--color1, #fff)" stroke-linejoin="miter" stroke-linecap="round" stroke-miterlimit="4" stroke-width="0.9231" d="M15.728 0.96c-1.251-0.118-3.043-0.576-4.298-0.199-0.734 0.22-1.528 1.392-2.021 1.907-1.167 1.221-1.415 3.61-0.854 5.18 0.856 2.398 3.888 3.358 6.176 3.358 2.291 0 4.326-2.3 4.326-4.554 0-0.85 0.561-3.643-0.768-3.643"></path>
</symbol>
<symbol id="icon-style" viewBox="0 0 37 32">
<path fill="none" stroke="#fff" style="stroke: var(--color1, #fff)" stroke-linejoin="miter" stroke-linecap="round" stroke-miterlimit="4" stroke-width="1.2632" d="M0.842 14.804c10.927-0.46 21.861-0.778 32.793-1.052 0.154-0.004 2.011-0.155 2.006-0.117-0.108 0.756-1.531 1.67-2.006 2.103-3.529 3.215-7.161 6.403-10.983 9.269-1.223 0.917-2.479 1.974-3.797 2.746-1.469 0.86-3.237 1.387-4.459 2.609-1.672 1.672-1.666 0.181-1.441-1.558 0.891-6.877 3.153-13.486 4.128-20.35 0.319-2.246 0.269-4.537 1.207-6.621 0.117-0.259 0.078-0.561 0.078-0.837 0-0.729 0.672 1.299 0.915 1.986 2.186 6.172 5.803 12.281 9.191 17.857 1.126 1.853 2.263 3.692 3.038 5.706 0.28 0.727 0.719 1.714 0.857 2.473 0.48 2.64-1.229 0.518-2.512-0.195-3.26-1.811-6.794-3.186-10.321-4.362-3.795-1.265-7.317-3.742-11.1-5.16-2.674-1.003-5.144-2.327-7.595-3.797"></path>
</symbol>
<symbol id="icon-open-faq" viewBox="0 0 32 32">
<path fill="#fff" style="fill: var(--color1, #fff)" d="M13.714 0h4.571v32h-4.571v-32z"></path>
<path fill="#fff" style="fill: var(--color1, #fff)" d="M0 18.286v-4.571h32v4.571h-32z"></path>
</symbol>
</defs>
</svg>
